G04 #@! TF.GenerationSoftware,KiCad,Pcbnew,5.1.5-52549c5~84~ubuntu18.04.1*
G04 #@! TF.CreationDate,2019-12-26T11:26:19+01:00*
G04 #@! TF.ProjectId,ch340-breakout,63683334-302d-4627-9265-616b6f75742e,rev?*
G04 #@! TF.SameCoordinates,Original*
G04 #@! TF.FileFunction,Legend,Bot*
G04 #@! TF.FilePolarity,Positive*
%FSLAX46Y46*%
G04 Gerber Fmt 4.6, Leading zero omitted, Abs format (unit mm)*
G04 Created by KiCad (PCBNEW 5.1.5-52549c5~84~ubuntu18.04.1) date 2019-12-26 11:26:19*
%MOMM*%
%LPD*%
G04 APERTURE LIST*
%ADD10C,0.150000*%
%ADD11C,0.120000*%
G04 APERTURE END LIST*
D10*
X155465104Y-66332885D02*
X154665104Y-66332885D01*
X155465104Y-66675742D02*
X155046057Y-66675742D01*
X154969866Y-66637647D01*
X154931771Y-66561457D01*
X154931771Y-66447171D01*
X154969866Y-66370980D01*
X155007961Y-66332885D01*
X154931771Y-66942409D02*
X154931771Y-67247171D01*
X154665104Y-67056695D02*
X155350819Y-67056695D01*
X155427009Y-67094790D01*
X155465104Y-67170980D01*
X155465104Y-67247171D01*
X154931771Y-67399552D02*
X154931771Y-67704314D01*
X154665104Y-67513838D02*
X155350819Y-67513838D01*
X155427009Y-67551933D01*
X155465104Y-67628123D01*
X155465104Y-67704314D01*
X154931771Y-67970980D02*
X155731771Y-67970980D01*
X154969866Y-67970980D02*
X154931771Y-68047171D01*
X154931771Y-68199552D01*
X154969866Y-68275742D01*
X155007961Y-68313838D01*
X155084152Y-68351933D01*
X155312723Y-68351933D01*
X155388914Y-68313838D01*
X155427009Y-68275742D01*
X155465104Y-68199552D01*
X155465104Y-68047171D01*
X155427009Y-67970980D01*
X155427009Y-68656695D02*
X155465104Y-68732885D01*
X155465104Y-68885266D01*
X155427009Y-68961457D01*
X155350819Y-68999552D01*
X155312723Y-68999552D01*
X155236533Y-68961457D01*
X155198438Y-68885266D01*
X155198438Y-68770980D01*
X155160342Y-68694790D01*
X155084152Y-68656695D01*
X155046057Y-68656695D01*
X154969866Y-68694790D01*
X154931771Y-68770980D01*
X154931771Y-68885266D01*
X154969866Y-68961457D01*
X155388914Y-69342409D02*
X155427009Y-69380504D01*
X155465104Y-69342409D01*
X155427009Y-69304314D01*
X155388914Y-69342409D01*
X155465104Y-69342409D01*
X154969866Y-69342409D02*
X155007961Y-69380504D01*
X155046057Y-69342409D01*
X155007961Y-69304314D01*
X154969866Y-69342409D01*
X155046057Y-69342409D01*
X154627009Y-70294790D02*
X155655580Y-69609076D01*
X154627009Y-71132885D02*
X155655580Y-70447171D01*
X155007961Y-71513838D02*
X154969866Y-71437647D01*
X154931771Y-71399552D01*
X154855580Y-71361457D01*
X154817485Y-71361457D01*
X154741295Y-71399552D01*
X154703200Y-71437647D01*
X154665104Y-71513838D01*
X154665104Y-71666219D01*
X154703200Y-71742409D01*
X154741295Y-71780504D01*
X154817485Y-71818600D01*
X154855580Y-71818600D01*
X154931771Y-71780504D01*
X154969866Y-71742409D01*
X155007961Y-71666219D01*
X155007961Y-71513838D01*
X155046057Y-71437647D01*
X155084152Y-71399552D01*
X155160342Y-71361457D01*
X155312723Y-71361457D01*
X155388914Y-71399552D01*
X155427009Y-71437647D01*
X155465104Y-71513838D01*
X155465104Y-71666219D01*
X155427009Y-71742409D01*
X155388914Y-71780504D01*
X155312723Y-71818600D01*
X155160342Y-71818600D01*
X155084152Y-71780504D01*
X155046057Y-71742409D01*
X155007961Y-71666219D01*
X154741295Y-72123361D02*
X154703200Y-72161457D01*
X154665104Y-72237647D01*
X154665104Y-72428123D01*
X154703200Y-72504314D01*
X154741295Y-72542409D01*
X154817485Y-72580504D01*
X154893676Y-72580504D01*
X155007961Y-72542409D01*
X155465104Y-72085266D01*
X155465104Y-72580504D01*
X154665104Y-73075742D02*
X154665104Y-73151933D01*
X154703200Y-73228123D01*
X154741295Y-73266219D01*
X154817485Y-73304314D01*
X154969866Y-73342409D01*
X155160342Y-73342409D01*
X155312723Y-73304314D01*
X155388914Y-73266219D01*
X155427009Y-73228123D01*
X155465104Y-73151933D01*
X155465104Y-73075742D01*
X155427009Y-72999552D01*
X155388914Y-72961457D01*
X155312723Y-72923361D01*
X155160342Y-72885266D01*
X154969866Y-72885266D01*
X154817485Y-72923361D01*
X154741295Y-72961457D01*
X154703200Y-72999552D01*
X154665104Y-73075742D01*
X155465104Y-73799552D02*
X155427009Y-73723361D01*
X155350819Y-73685266D01*
X154665104Y-73685266D01*
X155465104Y-74447171D02*
X155046057Y-74447171D01*
X154969866Y-74409076D01*
X154931771Y-74332885D01*
X154931771Y-74180504D01*
X154969866Y-74104314D01*
X155427009Y-74447171D02*
X155465104Y-74370980D01*
X155465104Y-74180504D01*
X155427009Y-74104314D01*
X155350819Y-74066219D01*
X155274628Y-74066219D01*
X155198438Y-74104314D01*
X155160342Y-74180504D01*
X155160342Y-74370980D01*
X155122247Y-74447171D01*
X155465104Y-74828123D02*
X154665104Y-74828123D01*
X154969866Y-74828123D02*
X154931771Y-74904314D01*
X154931771Y-75056695D01*
X154969866Y-75132885D01*
X155007961Y-75170980D01*
X155084152Y-75209076D01*
X155312723Y-75209076D01*
X155388914Y-75170980D01*
X155427009Y-75132885D01*
X155465104Y-75056695D01*
X155465104Y-74904314D01*
X155427009Y-74828123D01*
X155427009Y-75513838D02*
X155465104Y-75590028D01*
X155465104Y-75742409D01*
X155427009Y-75818600D01*
X155350819Y-75856695D01*
X155312723Y-75856695D01*
X155236533Y-75818600D01*
X155198438Y-75742409D01*
X155198438Y-75628123D01*
X155160342Y-75551933D01*
X155084152Y-75513838D01*
X155046057Y-75513838D01*
X154969866Y-75551933D01*
X154931771Y-75628123D01*
X154931771Y-75742409D01*
X154969866Y-75818600D01*
X155388914Y-76199552D02*
X155427009Y-76237647D01*
X155465104Y-76199552D01*
X155427009Y-76161457D01*
X155388914Y-76199552D01*
X155465104Y-76199552D01*
X154931771Y-76580504D02*
X155465104Y-76580504D01*
X155007961Y-76580504D02*
X154969866Y-76618600D01*
X154931771Y-76694790D01*
X154931771Y-76809076D01*
X154969866Y-76885266D01*
X155046057Y-76923361D01*
X155465104Y-76923361D01*
X155427009Y-77609076D02*
X155465104Y-77532885D01*
X155465104Y-77380504D01*
X155427009Y-77304314D01*
X155350819Y-77266219D01*
X155046057Y-77266219D01*
X154969866Y-77304314D01*
X154931771Y-77380504D01*
X154931771Y-77532885D01*
X154969866Y-77609076D01*
X155046057Y-77647171D01*
X155122247Y-77647171D01*
X155198438Y-77266219D01*
X154931771Y-77875742D02*
X154931771Y-78180504D01*
X154665104Y-77990028D02*
X155350819Y-77990028D01*
X155427009Y-78028123D01*
X155465104Y-78104314D01*
X155465104Y-78180504D01*
X154627009Y-79018600D02*
X155655580Y-78332885D01*
X156281771Y-65056695D02*
X157081771Y-65056695D01*
X156319866Y-65056695D02*
X156281771Y-65132885D01*
X156281771Y-65285266D01*
X156319866Y-65361457D01*
X156357961Y-65399552D01*
X156434152Y-65437647D01*
X156662723Y-65437647D01*
X156738914Y-65399552D01*
X156777009Y-65361457D01*
X156815104Y-65285266D01*
X156815104Y-65132885D01*
X156777009Y-65056695D01*
X156815104Y-65780504D02*
X156281771Y-65780504D01*
X156434152Y-65780504D02*
X156357961Y-65818600D01*
X156319866Y-65856695D01*
X156281771Y-65932885D01*
X156281771Y-66009076D01*
X156815104Y-66390028D02*
X156777009Y-66313838D01*
X156738914Y-66275742D01*
X156662723Y-66237647D01*
X156434152Y-66237647D01*
X156357961Y-66275742D01*
X156319866Y-66313838D01*
X156281771Y-66390028D01*
X156281771Y-66504314D01*
X156319866Y-66580504D01*
X156357961Y-66618600D01*
X156434152Y-66656695D01*
X156662723Y-66656695D01*
X156738914Y-66618600D01*
X156777009Y-66580504D01*
X156815104Y-66504314D01*
X156815104Y-66390028D01*
X156281771Y-66999552D02*
X156967485Y-66999552D01*
X157043676Y-66961457D01*
X157081771Y-66885266D01*
X157081771Y-66847171D01*
X156015104Y-66999552D02*
X156053200Y-66961457D01*
X156091295Y-66999552D01*
X156053200Y-67037647D01*
X156015104Y-66999552D01*
X156091295Y-66999552D01*
X156777009Y-67685266D02*
X156815104Y-67609076D01*
X156815104Y-67456695D01*
X156777009Y-67380504D01*
X156700819Y-67342409D01*
X156396057Y-67342409D01*
X156319866Y-67380504D01*
X156281771Y-67456695D01*
X156281771Y-67609076D01*
X156319866Y-67685266D01*
X156396057Y-67723361D01*
X156472247Y-67723361D01*
X156548438Y-67342409D01*
X156777009Y-68409076D02*
X156815104Y-68332885D01*
X156815104Y-68180504D01*
X156777009Y-68104314D01*
X156738914Y-68066219D01*
X156662723Y-68028123D01*
X156434152Y-68028123D01*
X156357961Y-68066219D01*
X156319866Y-68104314D01*
X156281771Y-68180504D01*
X156281771Y-68332885D01*
X156319866Y-68409076D01*
X156281771Y-68637647D02*
X156281771Y-68942409D01*
X156015104Y-68751933D02*
X156700819Y-68751933D01*
X156777009Y-68790028D01*
X156815104Y-68866219D01*
X156815104Y-68942409D01*
X156777009Y-69170980D02*
X156815104Y-69247171D01*
X156815104Y-69399552D01*
X156777009Y-69475742D01*
X156700819Y-69513838D01*
X156662723Y-69513838D01*
X156586533Y-69475742D01*
X156548438Y-69399552D01*
X156548438Y-69285266D01*
X156510342Y-69209076D01*
X156434152Y-69170980D01*
X156396057Y-69170980D01*
X156319866Y-69209076D01*
X156281771Y-69285266D01*
X156281771Y-69399552D01*
X156319866Y-69475742D01*
X155977009Y-70428123D02*
X157005580Y-69742409D01*
X156777009Y-71037647D02*
X156815104Y-70961457D01*
X156815104Y-70809076D01*
X156777009Y-70732885D01*
X156738914Y-70694790D01*
X156662723Y-70656695D01*
X156434152Y-70656695D01*
X156357961Y-70694790D01*
X156319866Y-70732885D01*
X156281771Y-70809076D01*
X156281771Y-70961457D01*
X156319866Y-71037647D01*
X156815104Y-71380504D02*
X156015104Y-71380504D01*
X156815104Y-71723361D02*
X156396057Y-71723361D01*
X156319866Y-71685266D01*
X156281771Y-71609076D01*
X156281771Y-71494790D01*
X156319866Y-71418600D01*
X156357961Y-71380504D01*
X156015104Y-72028123D02*
X156015104Y-72523361D01*
X156319866Y-72256695D01*
X156319866Y-72370980D01*
X156357961Y-72447171D01*
X156396057Y-72485266D01*
X156472247Y-72523361D01*
X156662723Y-72523361D01*
X156738914Y-72485266D01*
X156777009Y-72447171D01*
X156815104Y-72370980D01*
X156815104Y-72142409D01*
X156777009Y-72066219D01*
X156738914Y-72028123D01*
X156281771Y-73209076D02*
X156815104Y-73209076D01*
X155977009Y-73018600D02*
X156548438Y-72828123D01*
X156548438Y-73323361D01*
X156015104Y-73780504D02*
X156015104Y-73856695D01*
X156053200Y-73932885D01*
X156091295Y-73970980D01*
X156167485Y-74009076D01*
X156319866Y-74047171D01*
X156510342Y-74047171D01*
X156662723Y-74009076D01*
X156738914Y-73970980D01*
X156777009Y-73932885D01*
X156815104Y-73856695D01*
X156815104Y-73780504D01*
X156777009Y-73704314D01*
X156738914Y-73666219D01*
X156662723Y-73628123D01*
X156510342Y-73590028D01*
X156319866Y-73590028D01*
X156167485Y-73628123D01*
X156091295Y-73666219D01*
X156053200Y-73704314D01*
X156015104Y-73780504D01*
X156510342Y-74390028D02*
X156510342Y-74999552D01*
X156815104Y-75380504D02*
X156015104Y-75380504D01*
X156319866Y-75380504D02*
X156281771Y-75456695D01*
X156281771Y-75609076D01*
X156319866Y-75685266D01*
X156357961Y-75723361D01*
X156434152Y-75761457D01*
X156662723Y-75761457D01*
X156738914Y-75723361D01*
X156777009Y-75685266D01*
X156815104Y-75609076D01*
X156815104Y-75456695D01*
X156777009Y-75380504D01*
X156815104Y-76104314D02*
X156281771Y-76104314D01*
X156434152Y-76104314D02*
X156357961Y-76142409D01*
X156319866Y-76180504D01*
X156281771Y-76256695D01*
X156281771Y-76332885D01*
X156777009Y-76904314D02*
X156815104Y-76828123D01*
X156815104Y-76675742D01*
X156777009Y-76599552D01*
X156700819Y-76561457D01*
X156396057Y-76561457D01*
X156319866Y-76599552D01*
X156281771Y-76675742D01*
X156281771Y-76828123D01*
X156319866Y-76904314D01*
X156396057Y-76942409D01*
X156472247Y-76942409D01*
X156548438Y-76561457D01*
X156815104Y-77628123D02*
X156396057Y-77628123D01*
X156319866Y-77590028D01*
X156281771Y-77513838D01*
X156281771Y-77361457D01*
X156319866Y-77285266D01*
X156777009Y-77628123D02*
X156815104Y-77551933D01*
X156815104Y-77361457D01*
X156777009Y-77285266D01*
X156700819Y-77247171D01*
X156624628Y-77247171D01*
X156548438Y-77285266D01*
X156510342Y-77361457D01*
X156510342Y-77551933D01*
X156472247Y-77628123D01*
X156815104Y-78009076D02*
X156015104Y-78009076D01*
X156510342Y-78085266D02*
X156815104Y-78313838D01*
X156281771Y-78313838D02*
X156586533Y-78009076D01*
X156815104Y-78770980D02*
X156777009Y-78694790D01*
X156738914Y-78656695D01*
X156662723Y-78618600D01*
X156434152Y-78618600D01*
X156357961Y-78656695D01*
X156319866Y-78694790D01*
X156281771Y-78770980D01*
X156281771Y-78885266D01*
X156319866Y-78961457D01*
X156357961Y-78999552D01*
X156434152Y-79037647D01*
X156662723Y-79037647D01*
X156738914Y-78999552D01*
X156777009Y-78961457D01*
X156815104Y-78885266D01*
X156815104Y-78770980D01*
X156281771Y-79723361D02*
X156815104Y-79723361D01*
X156281771Y-79380504D02*
X156700819Y-79380504D01*
X156777009Y-79418600D01*
X156815104Y-79494790D01*
X156815104Y-79609076D01*
X156777009Y-79685266D01*
X156738914Y-79723361D01*
X156281771Y-79990028D02*
X156281771Y-80294790D01*
X156015104Y-80104314D02*
X156700819Y-80104314D01*
X156777009Y-80142409D01*
X156815104Y-80218600D01*
X156815104Y-80294790D01*
X162139380Y-60632200D02*
X163139380Y-60965533D01*
X162139380Y-61298866D01*
X163091761Y-62013152D02*
X163139380Y-61917914D01*
X163139380Y-61727438D01*
X163091761Y-61632200D01*
X162996523Y-61584580D01*
X162615571Y-61584580D01*
X162520333Y-61632200D01*
X162472714Y-61727438D01*
X162472714Y-61917914D01*
X162520333Y-62013152D01*
X162615571Y-62060771D01*
X162710809Y-62060771D01*
X162806047Y-61584580D01*
X163139380Y-62489342D02*
X162472714Y-62489342D01*
X162663190Y-62489342D02*
X162567952Y-62536961D01*
X162520333Y-62584580D01*
X162472714Y-62679819D01*
X162472714Y-62775057D01*
X163091761Y-63060771D02*
X163139380Y-63156009D01*
X163139380Y-63346485D01*
X163091761Y-63441723D01*
X162996523Y-63489342D01*
X162948904Y-63489342D01*
X162853666Y-63441723D01*
X162806047Y-63346485D01*
X162806047Y-63203628D01*
X162758428Y-63108390D01*
X162663190Y-63060771D01*
X162615571Y-63060771D01*
X162520333Y-63108390D01*
X162472714Y-63203628D01*
X162472714Y-63346485D01*
X162520333Y-63441723D01*
X163139380Y-63917914D02*
X162472714Y-63917914D01*
X162139380Y-63917914D02*
X162187000Y-63870295D01*
X162234619Y-63917914D01*
X162187000Y-63965533D01*
X162139380Y-63917914D01*
X162234619Y-63917914D01*
X163139380Y-64536961D02*
X163091761Y-64441723D01*
X163044142Y-64394104D01*
X162948904Y-64346485D01*
X162663190Y-64346485D01*
X162567952Y-64394104D01*
X162520333Y-64441723D01*
X162472714Y-64536961D01*
X162472714Y-64679819D01*
X162520333Y-64775057D01*
X162567952Y-64822676D01*
X162663190Y-64870295D01*
X162948904Y-64870295D01*
X163044142Y-64822676D01*
X163091761Y-64775057D01*
X163139380Y-64679819D01*
X163139380Y-64536961D01*
X162472714Y-65298866D02*
X163139380Y-65298866D01*
X162567952Y-65298866D02*
X162520333Y-65346485D01*
X162472714Y-65441723D01*
X162472714Y-65584580D01*
X162520333Y-65679819D01*
X162615571Y-65727438D01*
X163139380Y-65727438D01*
X163044142Y-66203628D02*
X163091761Y-66251247D01*
X163139380Y-66203628D01*
X163091761Y-66156009D01*
X163044142Y-66203628D01*
X163139380Y-66203628D01*
X162520333Y-66203628D02*
X162567952Y-66251247D01*
X162615571Y-66203628D01*
X162567952Y-66156009D01*
X162520333Y-66203628D01*
X162615571Y-66203628D01*
X162139380Y-67632200D02*
X162139380Y-67727438D01*
X162187000Y-67822676D01*
X162234619Y-67870295D01*
X162329857Y-67917914D01*
X162520333Y-67965533D01*
X162758428Y-67965533D01*
X162948904Y-67917914D01*
X163044142Y-67870295D01*
X163091761Y-67822676D01*
X163139380Y-67727438D01*
X163139380Y-67632200D01*
X163091761Y-67536961D01*
X163044142Y-67489342D01*
X162948904Y-67441723D01*
X162758428Y-67394104D01*
X162520333Y-67394104D01*
X162329857Y-67441723D01*
X162234619Y-67489342D01*
X162187000Y-67536961D01*
X162139380Y-67632200D01*
X163139380Y-68917914D02*
X163139380Y-68346485D01*
X163139380Y-68632200D02*
X162139380Y-68632200D01*
X162282238Y-68536961D01*
X162377476Y-68441723D01*
X162425095Y-68346485D01*
X162139380Y-69822676D02*
X162139380Y-69346485D01*
X162615571Y-69298866D01*
X162567952Y-69346485D01*
X162520333Y-69441723D01*
X162520333Y-69679819D01*
X162567952Y-69775057D01*
X162615571Y-69822676D01*
X162710809Y-69870295D01*
X162948904Y-69870295D01*
X163044142Y-69822676D01*
X163091761Y-69775057D01*
X163139380Y-69679819D01*
X163139380Y-69441723D01*
X163091761Y-69346485D01*
X163044142Y-69298866D01*
X162139380Y-70489342D02*
X162139380Y-70584580D01*
X162187000Y-70679819D01*
X162234619Y-70727438D01*
X162329857Y-70775057D01*
X162520333Y-70822676D01*
X162758428Y-70822676D01*
X162948904Y-70775057D01*
X163044142Y-70727438D01*
X163091761Y-70679819D01*
X163139380Y-70584580D01*
X163139380Y-70489342D01*
X163091761Y-70394104D01*
X163044142Y-70346485D01*
X162948904Y-70298866D01*
X162758428Y-70251247D01*
X162520333Y-70251247D01*
X162329857Y-70298866D01*
X162234619Y-70346485D01*
X162187000Y-70394104D01*
X162139380Y-70489342D01*
X163091761Y-71632200D02*
X163139380Y-71536961D01*
X163139380Y-71346485D01*
X163091761Y-71251247D01*
X162996523Y-71203628D01*
X162615571Y-71203628D01*
X162520333Y-71251247D01*
X162472714Y-71346485D01*
X162472714Y-71536961D01*
X162520333Y-71632200D01*
X162615571Y-71679819D01*
X162710809Y-71679819D01*
X162806047Y-71203628D01*
X162139380Y-72536961D02*
X162139380Y-72346485D01*
X162187000Y-72251247D01*
X162234619Y-72203628D01*
X162377476Y-72108390D01*
X162567952Y-72060771D01*
X162948904Y-72060771D01*
X163044142Y-72108390D01*
X163091761Y-72156009D01*
X163139380Y-72251247D01*
X163139380Y-72441723D01*
X163091761Y-72536961D01*
X163044142Y-72584580D01*
X162948904Y-72632200D01*
X162710809Y-72632200D01*
X162615571Y-72584580D01*
X162567952Y-72536961D01*
X162520333Y-72441723D01*
X162520333Y-72251247D01*
X162567952Y-72156009D01*
X162615571Y-72108390D01*
X162710809Y-72060771D01*
X163139380Y-73060771D02*
X162139380Y-73060771D01*
X162520333Y-73060771D02*
X162472714Y-73156009D01*
X162472714Y-73346485D01*
X162520333Y-73441723D01*
X162567952Y-73489342D01*
X162663190Y-73536961D01*
X162948904Y-73536961D01*
X163044142Y-73489342D01*
X163091761Y-73441723D01*
X163139380Y-73346485D01*
X163139380Y-73156009D01*
X163091761Y-73060771D01*
D11*
X141418000Y-77199800D02*
X142748000Y-77199800D01*
X141418000Y-75869800D02*
X141418000Y-77199800D01*
X144018000Y-77199800D02*
X146618000Y-77199800D01*
X144018000Y-74599800D02*
X144018000Y-77199800D01*
X141418000Y-74599800D02*
X144018000Y-74599800D01*
X146618000Y-77199800D02*
X146618000Y-64379800D01*
X141418000Y-74599800D02*
X141418000Y-64379800D01*
X141418000Y-64379800D02*
X146618000Y-64379800D01*
X168773800Y-83549800D02*
X170103800Y-83549800D01*
X168773800Y-82219800D02*
X168773800Y-83549800D01*
X168773800Y-80949800D02*
X171433800Y-80949800D01*
X171433800Y-80949800D02*
X171433800Y-63109800D01*
X168773800Y-80949800D02*
X168773800Y-63109800D01*
X168773800Y-63109800D02*
X171433800Y-63109800D01*
D10*
X144351333Y-77652180D02*
X144351333Y-78366466D01*
X144398952Y-78509323D01*
X144494190Y-78604561D01*
X144637047Y-78652180D01*
X144732285Y-78652180D01*
X143970380Y-77652180D02*
X143351333Y-77652180D01*
X143684666Y-78033133D01*
X143541809Y-78033133D01*
X143446571Y-78080752D01*
X143398952Y-78128371D01*
X143351333Y-78223609D01*
X143351333Y-78461704D01*
X143398952Y-78556942D01*
X143446571Y-78604561D01*
X143541809Y-78652180D01*
X143827523Y-78652180D01*
X143922761Y-78604561D01*
X143970380Y-78556942D01*
X170437133Y-84002180D02*
X170437133Y-84716466D01*
X170484752Y-84859323D01*
X170579990Y-84954561D01*
X170722847Y-85002180D01*
X170818085Y-85002180D01*
X170008561Y-84097419D02*
X169960942Y-84049800D01*
X169865704Y-84002180D01*
X169627609Y-84002180D01*
X169532371Y-84049800D01*
X169484752Y-84097419D01*
X169437133Y-84192657D01*
X169437133Y-84287895D01*
X169484752Y-84430752D01*
X170056180Y-85002180D01*
X169437133Y-85002180D01*
M02*
