G04 #@! TF.GenerationSoftware,KiCad,Pcbnew,5.1.5-52549c5~84~ubuntu18.04.1*
G04 #@! TF.CreationDate,2019-12-05T10:19:33+01:00*
G04 #@! TF.ProjectId,ch340-breakout,63683334-302d-4627-9265-616b6f75742e,rev?*
G04 #@! TF.SameCoordinates,Original*
G04 #@! TF.FileFunction,Soldermask,Top*
G04 #@! TF.FilePolarity,Negative*
%FSLAX46Y46*%
G04 Gerber Fmt 4.6, Leading zero omitted, Abs format (unit mm)*
G04 Created by KiCad (PCBNEW 5.1.5-52549c5~84~ubuntu18.04.1) date 2019-12-05 10:19:33*
%MOMM*%
%LPD*%
G04 APERTURE LIST*
%ADD10C,0.150000*%
G04 APERTURE END LIST*
D10*
G36*
X157198400Y-84921800D02*
G01*
X152596400Y-84921800D01*
X152596400Y-82819800D01*
X157198400Y-82819800D01*
X157198400Y-84921800D01*
G37*
G36*
X148698400Y-84921800D02*
G01*
X144096400Y-84921800D01*
X144096400Y-82819800D01*
X148698400Y-82819800D01*
X148698400Y-84921800D01*
G37*
G36*
X171004800Y-83120800D02*
G01*
X169202800Y-83120800D01*
X169202800Y-81318800D01*
X171004800Y-81318800D01*
X171004800Y-83120800D01*
G37*
G36*
X162957368Y-81473365D02*
G01*
X162996038Y-81485096D01*
X163031677Y-81504146D01*
X163062917Y-81529783D01*
X163088554Y-81561023D01*
X163107604Y-81596662D01*
X163119335Y-81635332D01*
X163123900Y-81681688D01*
X163123900Y-82757912D01*
X163119335Y-82804268D01*
X163107604Y-82842938D01*
X163088554Y-82878577D01*
X163062917Y-82909817D01*
X163031677Y-82935454D01*
X162996038Y-82954504D01*
X162957368Y-82966235D01*
X162911012Y-82970800D01*
X162259788Y-82970800D01*
X162213432Y-82966235D01*
X162174762Y-82954504D01*
X162139123Y-82935454D01*
X162107883Y-82909817D01*
X162082246Y-82878577D01*
X162063196Y-82842938D01*
X162051465Y-82804268D01*
X162046900Y-82757912D01*
X162046900Y-81681688D01*
X162051465Y-81635332D01*
X162063196Y-81596662D01*
X162082246Y-81561023D01*
X162107883Y-81529783D01*
X162139123Y-81504146D01*
X162174762Y-81485096D01*
X162213432Y-81473365D01*
X162259788Y-81468800D01*
X162911012Y-81468800D01*
X162957368Y-81473365D01*
G37*
G36*
X166457968Y-81473365D02*
G01*
X166496638Y-81485096D01*
X166532277Y-81504146D01*
X166563517Y-81529783D01*
X166589154Y-81561023D01*
X166608204Y-81596662D01*
X166619935Y-81635332D01*
X166624500Y-81681688D01*
X166624500Y-82757912D01*
X166619935Y-82804268D01*
X166608204Y-82842938D01*
X166589154Y-82878577D01*
X166563517Y-82909817D01*
X166532277Y-82935454D01*
X166496638Y-82954504D01*
X166457968Y-82966235D01*
X166411612Y-82970800D01*
X165760388Y-82970800D01*
X165714032Y-82966235D01*
X165675362Y-82954504D01*
X165639723Y-82935454D01*
X165608483Y-82909817D01*
X165582846Y-82878577D01*
X165563796Y-82842938D01*
X165552065Y-82804268D01*
X165547500Y-82757912D01*
X165547500Y-81681688D01*
X165552065Y-81635332D01*
X165563796Y-81596662D01*
X165582846Y-81561023D01*
X165608483Y-81529783D01*
X165639723Y-81504146D01*
X165675362Y-81485096D01*
X165714032Y-81473365D01*
X165760388Y-81468800D01*
X166411612Y-81468800D01*
X166457968Y-81473365D01*
G37*
G36*
X164582968Y-81473365D02*
G01*
X164621638Y-81485096D01*
X164657277Y-81504146D01*
X164688517Y-81529783D01*
X164714154Y-81561023D01*
X164733204Y-81596662D01*
X164744935Y-81635332D01*
X164749500Y-81681688D01*
X164749500Y-82757912D01*
X164744935Y-82804268D01*
X164733204Y-82842938D01*
X164714154Y-82878577D01*
X164688517Y-82909817D01*
X164657277Y-82935454D01*
X164621638Y-82954504D01*
X164582968Y-82966235D01*
X164536612Y-82970800D01*
X163885388Y-82970800D01*
X163839032Y-82966235D01*
X163800362Y-82954504D01*
X163764723Y-82935454D01*
X163733483Y-82909817D01*
X163707846Y-82878577D01*
X163688796Y-82842938D01*
X163677065Y-82804268D01*
X163672500Y-82757912D01*
X163672500Y-81681688D01*
X163677065Y-81635332D01*
X163688796Y-81596662D01*
X163707846Y-81561023D01*
X163733483Y-81529783D01*
X163764723Y-81504146D01*
X163800362Y-81485096D01*
X163839032Y-81473365D01*
X163885388Y-81468800D01*
X164536612Y-81468800D01*
X164582968Y-81473365D01*
G37*
G36*
X161082368Y-81473365D02*
G01*
X161121038Y-81485096D01*
X161156677Y-81504146D01*
X161187917Y-81529783D01*
X161213554Y-81561023D01*
X161232604Y-81596662D01*
X161244335Y-81635332D01*
X161248900Y-81681688D01*
X161248900Y-82757912D01*
X161244335Y-82804268D01*
X161232604Y-82842938D01*
X161213554Y-82878577D01*
X161187917Y-82909817D01*
X161156677Y-82935454D01*
X161121038Y-82954504D01*
X161082368Y-82966235D01*
X161036012Y-82970800D01*
X160384788Y-82970800D01*
X160338432Y-82966235D01*
X160299762Y-82954504D01*
X160264123Y-82935454D01*
X160232883Y-82909817D01*
X160207246Y-82878577D01*
X160188196Y-82842938D01*
X160176465Y-82804268D01*
X160171900Y-82757912D01*
X160171900Y-81681688D01*
X160176465Y-81635332D01*
X160188196Y-81596662D01*
X160207246Y-81561023D01*
X160232883Y-81529783D01*
X160264123Y-81504146D01*
X160299762Y-81485096D01*
X160338432Y-81473365D01*
X160384788Y-81468800D01*
X161036012Y-81468800D01*
X161082368Y-81473365D01*
G37*
G36*
X153302874Y-79314265D02*
G01*
X153340567Y-79325699D01*
X153375303Y-79344266D01*
X153405748Y-79369252D01*
X153430734Y-79399697D01*
X153449301Y-79434433D01*
X153460735Y-79472126D01*
X153465200Y-79517461D01*
X153465200Y-80604139D01*
X153460735Y-80649474D01*
X153449301Y-80687167D01*
X153430734Y-80721903D01*
X153405748Y-80752348D01*
X153375303Y-80777334D01*
X153340567Y-80795901D01*
X153302874Y-80807335D01*
X153257539Y-80811800D01*
X152420861Y-80811800D01*
X152375526Y-80807335D01*
X152337833Y-80795901D01*
X152303097Y-80777334D01*
X152272652Y-80752348D01*
X152247666Y-80721903D01*
X152229099Y-80687167D01*
X152217665Y-80649474D01*
X152213200Y-80604139D01*
X152213200Y-79517461D01*
X152217665Y-79472126D01*
X152229099Y-79434433D01*
X152247666Y-79399697D01*
X152272652Y-79369252D01*
X152303097Y-79344266D01*
X152337833Y-79325699D01*
X152375526Y-79314265D01*
X152420861Y-79309800D01*
X153257539Y-79309800D01*
X153302874Y-79314265D01*
G37*
G36*
X155352874Y-79314265D02*
G01*
X155390567Y-79325699D01*
X155425303Y-79344266D01*
X155455748Y-79369252D01*
X155480734Y-79399697D01*
X155499301Y-79434433D01*
X155510735Y-79472126D01*
X155515200Y-79517461D01*
X155515200Y-80604139D01*
X155510735Y-80649474D01*
X155499301Y-80687167D01*
X155480734Y-80721903D01*
X155455748Y-80752348D01*
X155425303Y-80777334D01*
X155390567Y-80795901D01*
X155352874Y-80807335D01*
X155307539Y-80811800D01*
X154470861Y-80811800D01*
X154425526Y-80807335D01*
X154387833Y-80795901D01*
X154353097Y-80777334D01*
X154322652Y-80752348D01*
X154297666Y-80721903D01*
X154279099Y-80687167D01*
X154267665Y-80649474D01*
X154263200Y-80604139D01*
X154263200Y-79517461D01*
X154267665Y-79472126D01*
X154279099Y-79434433D01*
X154297666Y-79399697D01*
X154322652Y-79369252D01*
X154353097Y-79344266D01*
X154387833Y-79325699D01*
X154425526Y-79314265D01*
X154470861Y-79309800D01*
X155307539Y-79309800D01*
X155352874Y-79314265D01*
G37*
G36*
X148944674Y-79314265D02*
G01*
X148982367Y-79325699D01*
X149017103Y-79344266D01*
X149047548Y-79369252D01*
X149072534Y-79399697D01*
X149091101Y-79434433D01*
X149102535Y-79472126D01*
X149107000Y-79517461D01*
X149107000Y-80604139D01*
X149102535Y-80649474D01*
X149091101Y-80687167D01*
X149072534Y-80721903D01*
X149047548Y-80752348D01*
X149017103Y-80777334D01*
X148982367Y-80795901D01*
X148944674Y-80807335D01*
X148899339Y-80811800D01*
X148062661Y-80811800D01*
X148017326Y-80807335D01*
X147979633Y-80795901D01*
X147944897Y-80777334D01*
X147914452Y-80752348D01*
X147889466Y-80721903D01*
X147870899Y-80687167D01*
X147859465Y-80649474D01*
X147855000Y-80604139D01*
X147855000Y-79517461D01*
X147859465Y-79472126D01*
X147870899Y-79434433D01*
X147889466Y-79399697D01*
X147914452Y-79369252D01*
X147944897Y-79344266D01*
X147979633Y-79325699D01*
X148017326Y-79314265D01*
X148062661Y-79309800D01*
X148899339Y-79309800D01*
X148944674Y-79314265D01*
G37*
G36*
X146894674Y-79314265D02*
G01*
X146932367Y-79325699D01*
X146967103Y-79344266D01*
X146997548Y-79369252D01*
X147022534Y-79399697D01*
X147041101Y-79434433D01*
X147052535Y-79472126D01*
X147057000Y-79517461D01*
X147057000Y-80604139D01*
X147052535Y-80649474D01*
X147041101Y-80687167D01*
X147022534Y-80721903D01*
X146997548Y-80752348D01*
X146967103Y-80777334D01*
X146932367Y-80795901D01*
X146894674Y-80807335D01*
X146849339Y-80811800D01*
X146012661Y-80811800D01*
X145967326Y-80807335D01*
X145929633Y-80795901D01*
X145894897Y-80777334D01*
X145864452Y-80752348D01*
X145839466Y-80721903D01*
X145820899Y-80687167D01*
X145809465Y-80649474D01*
X145805000Y-80604139D01*
X145805000Y-79517461D01*
X145809465Y-79472126D01*
X145820899Y-79434433D01*
X145839466Y-79399697D01*
X145864452Y-79369252D01*
X145894897Y-79344266D01*
X145929633Y-79325699D01*
X145967326Y-79314265D01*
X146012661Y-79309800D01*
X146849339Y-79309800D01*
X146894674Y-79314265D01*
G37*
G36*
X170217312Y-78783727D02*
G01*
X170366612Y-78813424D01*
X170530584Y-78881344D01*
X170678154Y-78979947D01*
X170803653Y-79105446D01*
X170902256Y-79253016D01*
X170970176Y-79416988D01*
X171004800Y-79591059D01*
X171004800Y-79768541D01*
X170970176Y-79942612D01*
X170902256Y-80106584D01*
X170803653Y-80254154D01*
X170678154Y-80379653D01*
X170530584Y-80478256D01*
X170366612Y-80546176D01*
X170217312Y-80575873D01*
X170192542Y-80580800D01*
X170015058Y-80580800D01*
X169990288Y-80575873D01*
X169840988Y-80546176D01*
X169677016Y-80478256D01*
X169529446Y-80379653D01*
X169403947Y-80254154D01*
X169305344Y-80106584D01*
X169237424Y-79942612D01*
X169202800Y-79768541D01*
X169202800Y-79591059D01*
X169237424Y-79416988D01*
X169305344Y-79253016D01*
X169403947Y-79105446D01*
X169529446Y-78979947D01*
X169677016Y-78881344D01*
X169840988Y-78813424D01*
X169990288Y-78783727D01*
X170015058Y-78778800D01*
X170192542Y-78778800D01*
X170217312Y-78783727D01*
G37*
G36*
X164582968Y-79009565D02*
G01*
X164621638Y-79021296D01*
X164657277Y-79040346D01*
X164688517Y-79065983D01*
X164714154Y-79097223D01*
X164733204Y-79132862D01*
X164744935Y-79171532D01*
X164749500Y-79217888D01*
X164749500Y-80294112D01*
X164744935Y-80340468D01*
X164733204Y-80379138D01*
X164714154Y-80414777D01*
X164688517Y-80446017D01*
X164657277Y-80471654D01*
X164621638Y-80490704D01*
X164582968Y-80502435D01*
X164536612Y-80507000D01*
X163885388Y-80507000D01*
X163839032Y-80502435D01*
X163800362Y-80490704D01*
X163764723Y-80471654D01*
X163733483Y-80446017D01*
X163707846Y-80414777D01*
X163688796Y-80379138D01*
X163677065Y-80340468D01*
X163672500Y-80294112D01*
X163672500Y-79217888D01*
X163677065Y-79171532D01*
X163688796Y-79132862D01*
X163707846Y-79097223D01*
X163733483Y-79065983D01*
X163764723Y-79040346D01*
X163800362Y-79021296D01*
X163839032Y-79009565D01*
X163885388Y-79005000D01*
X164536612Y-79005000D01*
X164582968Y-79009565D01*
G37*
G36*
X161082368Y-79009565D02*
G01*
X161121038Y-79021296D01*
X161156677Y-79040346D01*
X161187917Y-79065983D01*
X161213554Y-79097223D01*
X161232604Y-79132862D01*
X161244335Y-79171532D01*
X161248900Y-79217888D01*
X161248900Y-80294112D01*
X161244335Y-80340468D01*
X161232604Y-80379138D01*
X161213554Y-80414777D01*
X161187917Y-80446017D01*
X161156677Y-80471654D01*
X161121038Y-80490704D01*
X161082368Y-80502435D01*
X161036012Y-80507000D01*
X160384788Y-80507000D01*
X160338432Y-80502435D01*
X160299762Y-80490704D01*
X160264123Y-80471654D01*
X160232883Y-80446017D01*
X160207246Y-80414777D01*
X160188196Y-80379138D01*
X160176465Y-80340468D01*
X160171900Y-80294112D01*
X160171900Y-79217888D01*
X160176465Y-79171532D01*
X160188196Y-79132862D01*
X160207246Y-79097223D01*
X160232883Y-79065983D01*
X160264123Y-79040346D01*
X160299762Y-79021296D01*
X160338432Y-79009565D01*
X160384788Y-79005000D01*
X161036012Y-79005000D01*
X161082368Y-79009565D01*
G37*
G36*
X162957368Y-79009565D02*
G01*
X162996038Y-79021296D01*
X163031677Y-79040346D01*
X163062917Y-79065983D01*
X163088554Y-79097223D01*
X163107604Y-79132862D01*
X163119335Y-79171532D01*
X163123900Y-79217888D01*
X163123900Y-80294112D01*
X163119335Y-80340468D01*
X163107604Y-80379138D01*
X163088554Y-80414777D01*
X163062917Y-80446017D01*
X163031677Y-80471654D01*
X162996038Y-80490704D01*
X162957368Y-80502435D01*
X162911012Y-80507000D01*
X162259788Y-80507000D01*
X162213432Y-80502435D01*
X162174762Y-80490704D01*
X162139123Y-80471654D01*
X162107883Y-80446017D01*
X162082246Y-80414777D01*
X162063196Y-80379138D01*
X162051465Y-80340468D01*
X162046900Y-80294112D01*
X162046900Y-79217888D01*
X162051465Y-79171532D01*
X162063196Y-79132862D01*
X162082246Y-79097223D01*
X162107883Y-79065983D01*
X162139123Y-79040346D01*
X162174762Y-79021296D01*
X162213432Y-79009565D01*
X162259788Y-79005000D01*
X162911012Y-79005000D01*
X162957368Y-79009565D01*
G37*
G36*
X166457968Y-79009565D02*
G01*
X166496638Y-79021296D01*
X166532277Y-79040346D01*
X166563517Y-79065983D01*
X166589154Y-79097223D01*
X166608204Y-79132862D01*
X166619935Y-79171532D01*
X166624500Y-79217888D01*
X166624500Y-80294112D01*
X166619935Y-80340468D01*
X166608204Y-80379138D01*
X166589154Y-80414777D01*
X166563517Y-80446017D01*
X166532277Y-80471654D01*
X166496638Y-80490704D01*
X166457968Y-80502435D01*
X166411612Y-80507000D01*
X165760388Y-80507000D01*
X165714032Y-80502435D01*
X165675362Y-80490704D01*
X165639723Y-80471654D01*
X165608483Y-80446017D01*
X165582846Y-80414777D01*
X165563796Y-80379138D01*
X165552065Y-80340468D01*
X165547500Y-80294112D01*
X165547500Y-79217888D01*
X165552065Y-79171532D01*
X165563796Y-79132862D01*
X165582846Y-79097223D01*
X165608483Y-79065983D01*
X165639723Y-79040346D01*
X165675362Y-79021296D01*
X165714032Y-79009565D01*
X165760388Y-79005000D01*
X166411612Y-79005000D01*
X166457968Y-79009565D01*
G37*
G36*
X170217312Y-76243727D02*
G01*
X170366612Y-76273424D01*
X170530584Y-76341344D01*
X170678154Y-76439947D01*
X170803653Y-76565446D01*
X170902256Y-76713016D01*
X170970176Y-76876988D01*
X170999873Y-77026288D01*
X171004800Y-77051058D01*
X171004800Y-77228542D01*
X171000657Y-77249372D01*
X170970176Y-77402612D01*
X170902256Y-77566584D01*
X170803653Y-77714154D01*
X170678154Y-77839653D01*
X170530584Y-77938256D01*
X170366612Y-78006176D01*
X170217312Y-78035873D01*
X170192542Y-78040800D01*
X170015058Y-78040800D01*
X169990288Y-78035873D01*
X169840988Y-78006176D01*
X169677016Y-77938256D01*
X169529446Y-77839653D01*
X169403947Y-77714154D01*
X169305344Y-77566584D01*
X169237424Y-77402612D01*
X169206943Y-77249372D01*
X169202800Y-77228542D01*
X169202800Y-77051058D01*
X169207727Y-77026288D01*
X169237424Y-76876988D01*
X169305344Y-76713016D01*
X169403947Y-76565446D01*
X169529446Y-76439947D01*
X169677016Y-76341344D01*
X169840988Y-76273424D01*
X169990288Y-76243727D01*
X170015058Y-76238800D01*
X170192542Y-76238800D01*
X170217312Y-76243727D01*
G37*
G36*
X160613528Y-77248764D02*
G01*
X160634609Y-77255160D01*
X160654045Y-77265548D01*
X160671076Y-77279524D01*
X160685052Y-77296555D01*
X160695440Y-77315991D01*
X160701836Y-77337072D01*
X160704600Y-77365140D01*
X160704600Y-77828860D01*
X160701836Y-77856928D01*
X160695440Y-77878009D01*
X160685052Y-77897445D01*
X160671076Y-77914476D01*
X160654045Y-77928452D01*
X160634609Y-77938840D01*
X160613528Y-77945236D01*
X160585460Y-77948000D01*
X158771740Y-77948000D01*
X158743672Y-77945236D01*
X158722591Y-77938840D01*
X158703155Y-77928452D01*
X158686124Y-77914476D01*
X158672148Y-77897445D01*
X158661760Y-77878009D01*
X158655364Y-77856928D01*
X158652600Y-77828860D01*
X158652600Y-77365140D01*
X158655364Y-77337072D01*
X158661760Y-77315991D01*
X158672148Y-77296555D01*
X158686124Y-77279524D01*
X158703155Y-77265548D01*
X158722591Y-77255160D01*
X158743672Y-77248764D01*
X158771740Y-77246000D01*
X160585460Y-77246000D01*
X160613528Y-77248764D01*
G37*
G36*
X165563528Y-77248764D02*
G01*
X165584609Y-77255160D01*
X165604045Y-77265548D01*
X165621076Y-77279524D01*
X165635052Y-77296555D01*
X165645440Y-77315991D01*
X165651836Y-77337072D01*
X165654600Y-77365140D01*
X165654600Y-77828860D01*
X165651836Y-77856928D01*
X165645440Y-77878009D01*
X165635052Y-77897445D01*
X165621076Y-77914476D01*
X165604045Y-77928452D01*
X165584609Y-77938840D01*
X165563528Y-77945236D01*
X165535460Y-77948000D01*
X163721740Y-77948000D01*
X163693672Y-77945236D01*
X163672591Y-77938840D01*
X163653155Y-77928452D01*
X163636124Y-77914476D01*
X163622148Y-77897445D01*
X163611760Y-77878009D01*
X163605364Y-77856928D01*
X163602600Y-77828860D01*
X163602600Y-77365140D01*
X163605364Y-77337072D01*
X163611760Y-77315991D01*
X163622148Y-77296555D01*
X163636124Y-77279524D01*
X163653155Y-77265548D01*
X163672591Y-77255160D01*
X163693672Y-77248764D01*
X163721740Y-77246000D01*
X165535460Y-77246000D01*
X165563528Y-77248764D01*
G37*
G36*
X155724200Y-77231400D02*
G01*
X154562200Y-77231400D01*
X154562200Y-74579400D01*
X155724200Y-74579400D01*
X155724200Y-77231400D01*
G37*
G36*
X153524200Y-77231400D02*
G01*
X152362200Y-77231400D01*
X152362200Y-74579400D01*
X153524200Y-74579400D01*
X153524200Y-77231400D01*
G37*
G36*
X143649000Y-76770800D02*
G01*
X141847000Y-76770800D01*
X141847000Y-74968800D01*
X143649000Y-74968800D01*
X143649000Y-76770800D01*
G37*
G36*
X145401512Y-74973727D02*
G01*
X145550812Y-75003424D01*
X145714784Y-75071344D01*
X145862354Y-75169947D01*
X145987853Y-75295446D01*
X146086456Y-75443016D01*
X146154376Y-75606988D01*
X146178832Y-75729941D01*
X146189000Y-75781058D01*
X146189000Y-75958542D01*
X146184857Y-75979372D01*
X146154376Y-76132612D01*
X146086456Y-76296584D01*
X145987853Y-76444154D01*
X145862354Y-76569653D01*
X145714784Y-76668256D01*
X145550812Y-76736176D01*
X145401512Y-76765873D01*
X145376742Y-76770800D01*
X145199258Y-76770800D01*
X145174488Y-76765873D01*
X145025188Y-76736176D01*
X144861216Y-76668256D01*
X144713646Y-76569653D01*
X144588147Y-76444154D01*
X144489544Y-76296584D01*
X144421624Y-76132612D01*
X144391143Y-75979372D01*
X144387000Y-75958542D01*
X144387000Y-75781058D01*
X144397168Y-75729941D01*
X144421624Y-75606988D01*
X144489544Y-75443016D01*
X144588147Y-75295446D01*
X144713646Y-75169947D01*
X144861216Y-75071344D01*
X145025188Y-75003424D01*
X145174488Y-74973727D01*
X145199258Y-74968800D01*
X145376742Y-74968800D01*
X145401512Y-74973727D01*
G37*
G36*
X165563528Y-75978764D02*
G01*
X165584609Y-75985160D01*
X165604045Y-75995548D01*
X165621076Y-76009524D01*
X165635052Y-76026555D01*
X165645440Y-76045991D01*
X165651836Y-76067072D01*
X165654600Y-76095140D01*
X165654600Y-76558860D01*
X165651836Y-76586928D01*
X165645440Y-76608009D01*
X165635052Y-76627445D01*
X165621076Y-76644476D01*
X165604045Y-76658452D01*
X165584609Y-76668840D01*
X165563528Y-76675236D01*
X165535460Y-76678000D01*
X163721740Y-76678000D01*
X163693672Y-76675236D01*
X163672591Y-76668840D01*
X163653155Y-76658452D01*
X163636124Y-76644476D01*
X163622148Y-76627445D01*
X163611760Y-76608009D01*
X163605364Y-76586928D01*
X163602600Y-76558860D01*
X163602600Y-76095140D01*
X163605364Y-76067072D01*
X163611760Y-76045991D01*
X163622148Y-76026555D01*
X163636124Y-76009524D01*
X163653155Y-75995548D01*
X163672591Y-75985160D01*
X163693672Y-75978764D01*
X163721740Y-75976000D01*
X165535460Y-75976000D01*
X165563528Y-75978764D01*
G37*
G36*
X160613528Y-75978764D02*
G01*
X160634609Y-75985160D01*
X160654045Y-75995548D01*
X160671076Y-76009524D01*
X160685052Y-76026555D01*
X160695440Y-76045991D01*
X160701836Y-76067072D01*
X160704600Y-76095140D01*
X160704600Y-76558860D01*
X160701836Y-76586928D01*
X160695440Y-76608009D01*
X160685052Y-76627445D01*
X160671076Y-76644476D01*
X160654045Y-76658452D01*
X160634609Y-76668840D01*
X160613528Y-76675236D01*
X160585460Y-76678000D01*
X158771740Y-76678000D01*
X158743672Y-76675236D01*
X158722591Y-76668840D01*
X158703155Y-76658452D01*
X158686124Y-76644476D01*
X158672148Y-76627445D01*
X158661760Y-76608009D01*
X158655364Y-76586928D01*
X158652600Y-76558860D01*
X158652600Y-76095140D01*
X158655364Y-76067072D01*
X158661760Y-76045991D01*
X158672148Y-76026555D01*
X158686124Y-76009524D01*
X158703155Y-75995548D01*
X158722591Y-75985160D01*
X158743672Y-75978764D01*
X158771740Y-75976000D01*
X160585460Y-75976000D01*
X160613528Y-75978764D01*
G37*
G36*
X149211512Y-74745127D02*
G01*
X149360812Y-74774824D01*
X149524784Y-74842744D01*
X149672354Y-74941347D01*
X149797853Y-75066846D01*
X149896456Y-75214416D01*
X149964376Y-75378388D01*
X149999000Y-75552459D01*
X149999000Y-75729941D01*
X149964376Y-75904012D01*
X149896456Y-76067984D01*
X149797853Y-76215554D01*
X149672354Y-76341053D01*
X149524784Y-76439656D01*
X149360812Y-76507576D01*
X149214201Y-76536738D01*
X149186742Y-76542200D01*
X149009258Y-76542200D01*
X148981799Y-76536738D01*
X148835188Y-76507576D01*
X148671216Y-76439656D01*
X148523646Y-76341053D01*
X148398147Y-76215554D01*
X148299544Y-76067984D01*
X148231624Y-75904012D01*
X148197000Y-75729941D01*
X148197000Y-75552459D01*
X148231624Y-75378388D01*
X148299544Y-75214416D01*
X148398147Y-75066846D01*
X148523646Y-74941347D01*
X148671216Y-74842744D01*
X148835188Y-74774824D01*
X148984488Y-74745127D01*
X149009258Y-74740200D01*
X149186742Y-74740200D01*
X149211512Y-74745127D01*
G37*
G36*
X170217312Y-73703727D02*
G01*
X170366612Y-73733424D01*
X170530584Y-73801344D01*
X170678154Y-73899947D01*
X170803653Y-74025446D01*
X170902256Y-74173016D01*
X170970176Y-74336988D01*
X170999873Y-74486288D01*
X171004800Y-74511058D01*
X171004800Y-74688542D01*
X171000657Y-74709372D01*
X170970176Y-74862612D01*
X170902256Y-75026584D01*
X170803653Y-75174154D01*
X170678154Y-75299653D01*
X170530584Y-75398256D01*
X170366612Y-75466176D01*
X170217312Y-75495873D01*
X170192542Y-75500800D01*
X170015058Y-75500800D01*
X169990288Y-75495873D01*
X169840988Y-75466176D01*
X169677016Y-75398256D01*
X169529446Y-75299653D01*
X169403947Y-75174154D01*
X169305344Y-75026584D01*
X169237424Y-74862612D01*
X169206943Y-74709372D01*
X169202800Y-74688542D01*
X169202800Y-74511058D01*
X169207727Y-74486288D01*
X169237424Y-74336988D01*
X169305344Y-74173016D01*
X169403947Y-74025446D01*
X169529446Y-73899947D01*
X169677016Y-73801344D01*
X169840988Y-73733424D01*
X169990288Y-73703727D01*
X170015058Y-73698800D01*
X170192542Y-73698800D01*
X170217312Y-73703727D01*
G37*
G36*
X165563528Y-74708764D02*
G01*
X165584609Y-74715160D01*
X165604045Y-74725548D01*
X165621076Y-74739524D01*
X165635052Y-74756555D01*
X165645440Y-74775991D01*
X165651836Y-74797072D01*
X165654600Y-74825140D01*
X165654600Y-75288860D01*
X165651836Y-75316928D01*
X165645440Y-75338009D01*
X165635052Y-75357445D01*
X165621076Y-75374476D01*
X165604045Y-75388452D01*
X165584609Y-75398840D01*
X165563528Y-75405236D01*
X165535460Y-75408000D01*
X163721740Y-75408000D01*
X163693672Y-75405236D01*
X163672591Y-75398840D01*
X163653155Y-75388452D01*
X163636124Y-75374476D01*
X163622148Y-75357445D01*
X163611760Y-75338009D01*
X163605364Y-75316928D01*
X163602600Y-75288860D01*
X163602600Y-74825140D01*
X163605364Y-74797072D01*
X163611760Y-74775991D01*
X163622148Y-74756555D01*
X163636124Y-74739524D01*
X163653155Y-74725548D01*
X163672591Y-74715160D01*
X163693672Y-74708764D01*
X163721740Y-74706000D01*
X165535460Y-74706000D01*
X165563528Y-74708764D01*
G37*
G36*
X160613528Y-74708764D02*
G01*
X160634609Y-74715160D01*
X160654045Y-74725548D01*
X160671076Y-74739524D01*
X160685052Y-74756555D01*
X160695440Y-74775991D01*
X160701836Y-74797072D01*
X160704600Y-74825140D01*
X160704600Y-75288860D01*
X160701836Y-75316928D01*
X160695440Y-75338009D01*
X160685052Y-75357445D01*
X160671076Y-75374476D01*
X160654045Y-75388452D01*
X160634609Y-75398840D01*
X160613528Y-75405236D01*
X160585460Y-75408000D01*
X158771740Y-75408000D01*
X158743672Y-75405236D01*
X158722591Y-75398840D01*
X158703155Y-75388452D01*
X158686124Y-75374476D01*
X158672148Y-75357445D01*
X158661760Y-75338009D01*
X158655364Y-75316928D01*
X158652600Y-75288860D01*
X158652600Y-74825140D01*
X158655364Y-74797072D01*
X158661760Y-74775991D01*
X158672148Y-74756555D01*
X158686124Y-74739524D01*
X158703155Y-74725548D01*
X158722591Y-74715160D01*
X158743672Y-74708764D01*
X158771740Y-74706000D01*
X160585460Y-74706000D01*
X160613528Y-74708764D01*
G37*
G36*
X145401512Y-72433727D02*
G01*
X145550812Y-72463424D01*
X145714784Y-72531344D01*
X145862354Y-72629947D01*
X145987853Y-72755446D01*
X146086456Y-72903016D01*
X146154376Y-73066988D01*
X146178832Y-73189941D01*
X146189000Y-73241058D01*
X146189000Y-73418542D01*
X146184857Y-73439372D01*
X146154376Y-73592612D01*
X146086456Y-73756584D01*
X145987853Y-73904154D01*
X145862354Y-74029653D01*
X145714784Y-74128256D01*
X145550812Y-74196176D01*
X145401512Y-74225873D01*
X145376742Y-74230800D01*
X145199258Y-74230800D01*
X145174488Y-74225873D01*
X145025188Y-74196176D01*
X144861216Y-74128256D01*
X144713646Y-74029653D01*
X144588147Y-73904154D01*
X144489544Y-73756584D01*
X144421624Y-73592612D01*
X144391143Y-73439372D01*
X144387000Y-73418542D01*
X144387000Y-73241058D01*
X144397168Y-73189941D01*
X144421624Y-73066988D01*
X144489544Y-72903016D01*
X144588147Y-72755446D01*
X144713646Y-72629947D01*
X144861216Y-72531344D01*
X145025188Y-72463424D01*
X145174488Y-72433727D01*
X145199258Y-72428800D01*
X145376742Y-72428800D01*
X145401512Y-72433727D01*
G37*
G36*
X142861512Y-72433727D02*
G01*
X143010812Y-72463424D01*
X143174784Y-72531344D01*
X143322354Y-72629947D01*
X143447853Y-72755446D01*
X143546456Y-72903016D01*
X143614376Y-73066988D01*
X143638832Y-73189941D01*
X143649000Y-73241058D01*
X143649000Y-73418542D01*
X143644857Y-73439372D01*
X143614376Y-73592612D01*
X143546456Y-73756584D01*
X143447853Y-73904154D01*
X143322354Y-74029653D01*
X143174784Y-74128256D01*
X143010812Y-74196176D01*
X142861512Y-74225873D01*
X142836742Y-74230800D01*
X142659258Y-74230800D01*
X142634488Y-74225873D01*
X142485188Y-74196176D01*
X142321216Y-74128256D01*
X142173646Y-74029653D01*
X142048147Y-73904154D01*
X141949544Y-73756584D01*
X141881624Y-73592612D01*
X141851143Y-73439372D01*
X141847000Y-73418542D01*
X141847000Y-73241058D01*
X141857168Y-73189941D01*
X141881624Y-73066988D01*
X141949544Y-72903016D01*
X142048147Y-72755446D01*
X142173646Y-72629947D01*
X142321216Y-72531344D01*
X142485188Y-72463424D01*
X142634488Y-72433727D01*
X142659258Y-72428800D01*
X142836742Y-72428800D01*
X142861512Y-72433727D01*
G37*
G36*
X160613528Y-73438764D02*
G01*
X160634609Y-73445160D01*
X160654045Y-73455548D01*
X160671076Y-73469524D01*
X160685052Y-73486555D01*
X160695440Y-73505991D01*
X160701836Y-73527072D01*
X160704600Y-73555140D01*
X160704600Y-74018860D01*
X160701836Y-74046928D01*
X160695440Y-74068009D01*
X160685052Y-74087445D01*
X160671076Y-74104476D01*
X160654045Y-74118452D01*
X160634609Y-74128840D01*
X160613528Y-74135236D01*
X160585460Y-74138000D01*
X158771740Y-74138000D01*
X158743672Y-74135236D01*
X158722591Y-74128840D01*
X158703155Y-74118452D01*
X158686124Y-74104476D01*
X158672148Y-74087445D01*
X158661760Y-74068009D01*
X158655364Y-74046928D01*
X158652600Y-74018860D01*
X158652600Y-73555140D01*
X158655364Y-73527072D01*
X158661760Y-73505991D01*
X158672148Y-73486555D01*
X158686124Y-73469524D01*
X158703155Y-73455548D01*
X158722591Y-73445160D01*
X158743672Y-73438764D01*
X158771740Y-73436000D01*
X160585460Y-73436000D01*
X160613528Y-73438764D01*
G37*
G36*
X165563528Y-73438764D02*
G01*
X165584609Y-73445160D01*
X165604045Y-73455548D01*
X165621076Y-73469524D01*
X165635052Y-73486555D01*
X165645440Y-73505991D01*
X165651836Y-73527072D01*
X165654600Y-73555140D01*
X165654600Y-74018860D01*
X165651836Y-74046928D01*
X165645440Y-74068009D01*
X165635052Y-74087445D01*
X165621076Y-74104476D01*
X165604045Y-74118452D01*
X165584609Y-74128840D01*
X165563528Y-74135236D01*
X165535460Y-74138000D01*
X163721740Y-74138000D01*
X163693672Y-74135236D01*
X163672591Y-74128840D01*
X163653155Y-74118452D01*
X163636124Y-74104476D01*
X163622148Y-74087445D01*
X163611760Y-74068009D01*
X163605364Y-74046928D01*
X163602600Y-74018860D01*
X163602600Y-73555140D01*
X163605364Y-73527072D01*
X163611760Y-73505991D01*
X163622148Y-73486555D01*
X163636124Y-73469524D01*
X163653155Y-73455548D01*
X163672591Y-73445160D01*
X163693672Y-73438764D01*
X163721740Y-73436000D01*
X165535460Y-73436000D01*
X165563528Y-73438764D01*
G37*
G36*
X149196042Y-72202050D02*
G01*
X149360812Y-72234824D01*
X149524784Y-72302744D01*
X149672354Y-72401347D01*
X149797853Y-72526846D01*
X149896456Y-72674416D01*
X149964376Y-72838388D01*
X149999000Y-73012459D01*
X149999000Y-73189941D01*
X149964376Y-73364012D01*
X149896456Y-73527984D01*
X149797853Y-73675554D01*
X149672354Y-73801053D01*
X149524784Y-73899656D01*
X149360812Y-73967576D01*
X149214201Y-73996738D01*
X149186742Y-74002200D01*
X149009258Y-74002200D01*
X148981799Y-73996738D01*
X148835188Y-73967576D01*
X148671216Y-73899656D01*
X148523646Y-73801053D01*
X148398147Y-73675554D01*
X148299544Y-73527984D01*
X148231624Y-73364012D01*
X148197000Y-73189941D01*
X148197000Y-73012459D01*
X148231624Y-72838388D01*
X148299544Y-72674416D01*
X148398147Y-72526846D01*
X148523646Y-72401347D01*
X148671216Y-72302744D01*
X148835188Y-72234824D01*
X148999958Y-72202050D01*
X149009258Y-72200200D01*
X149186742Y-72200200D01*
X149196042Y-72202050D01*
G37*
G36*
X170217312Y-71163727D02*
G01*
X170366612Y-71193424D01*
X170530584Y-71261344D01*
X170678154Y-71359947D01*
X170803653Y-71485446D01*
X170902256Y-71633016D01*
X170970176Y-71796988D01*
X170999873Y-71946288D01*
X171004800Y-71971058D01*
X171004800Y-72148542D01*
X171000657Y-72169372D01*
X170970176Y-72322612D01*
X170902256Y-72486584D01*
X170803653Y-72634154D01*
X170678154Y-72759653D01*
X170530584Y-72858256D01*
X170366612Y-72926176D01*
X170217312Y-72955873D01*
X170192542Y-72960800D01*
X170015058Y-72960800D01*
X169990288Y-72955873D01*
X169840988Y-72926176D01*
X169677016Y-72858256D01*
X169529446Y-72759653D01*
X169403947Y-72634154D01*
X169305344Y-72486584D01*
X169237424Y-72322612D01*
X169206943Y-72169372D01*
X169202800Y-72148542D01*
X169202800Y-71971058D01*
X169207727Y-71946288D01*
X169237424Y-71796988D01*
X169305344Y-71633016D01*
X169403947Y-71485446D01*
X169529446Y-71359947D01*
X169677016Y-71261344D01*
X169840988Y-71193424D01*
X169990288Y-71163727D01*
X170015058Y-71158800D01*
X170192542Y-71158800D01*
X170217312Y-71163727D01*
G37*
G36*
X165563528Y-72168764D02*
G01*
X165584609Y-72175160D01*
X165604045Y-72185548D01*
X165621076Y-72199524D01*
X165635052Y-72216555D01*
X165645440Y-72235991D01*
X165651836Y-72257072D01*
X165654600Y-72285140D01*
X165654600Y-72748860D01*
X165651836Y-72776928D01*
X165645440Y-72798009D01*
X165635052Y-72817445D01*
X165621076Y-72834476D01*
X165604045Y-72848452D01*
X165584609Y-72858840D01*
X165563528Y-72865236D01*
X165535460Y-72868000D01*
X163721740Y-72868000D01*
X163693672Y-72865236D01*
X163672591Y-72858840D01*
X163653155Y-72848452D01*
X163636124Y-72834476D01*
X163622148Y-72817445D01*
X163611760Y-72798009D01*
X163605364Y-72776928D01*
X163602600Y-72748860D01*
X163602600Y-72285140D01*
X163605364Y-72257072D01*
X163611760Y-72235991D01*
X163622148Y-72216555D01*
X163636124Y-72199524D01*
X163653155Y-72185548D01*
X163672591Y-72175160D01*
X163693672Y-72168764D01*
X163721740Y-72166000D01*
X165535460Y-72166000D01*
X165563528Y-72168764D01*
G37*
G36*
X160613528Y-72168764D02*
G01*
X160634609Y-72175160D01*
X160654045Y-72185548D01*
X160671076Y-72199524D01*
X160685052Y-72216555D01*
X160695440Y-72235991D01*
X160701836Y-72257072D01*
X160704600Y-72285140D01*
X160704600Y-72748860D01*
X160701836Y-72776928D01*
X160695440Y-72798009D01*
X160685052Y-72817445D01*
X160671076Y-72834476D01*
X160654045Y-72848452D01*
X160634609Y-72858840D01*
X160613528Y-72865236D01*
X160585460Y-72868000D01*
X158771740Y-72868000D01*
X158743672Y-72865236D01*
X158722591Y-72858840D01*
X158703155Y-72848452D01*
X158686124Y-72834476D01*
X158672148Y-72817445D01*
X158661760Y-72798009D01*
X158655364Y-72776928D01*
X158652600Y-72748860D01*
X158652600Y-72285140D01*
X158655364Y-72257072D01*
X158661760Y-72235991D01*
X158672148Y-72216555D01*
X158686124Y-72199524D01*
X158703155Y-72185548D01*
X158722591Y-72175160D01*
X158743672Y-72168764D01*
X158771740Y-72166000D01*
X160585460Y-72166000D01*
X160613528Y-72168764D01*
G37*
G36*
X157581868Y-71398865D02*
G01*
X157620538Y-71410596D01*
X157656177Y-71429646D01*
X157687417Y-71455283D01*
X157713054Y-71486523D01*
X157732104Y-71522162D01*
X157743835Y-71560832D01*
X157748400Y-71607188D01*
X157748400Y-72258412D01*
X157743835Y-72304768D01*
X157732104Y-72343438D01*
X157713054Y-72379077D01*
X157687417Y-72410317D01*
X157656177Y-72435954D01*
X157620538Y-72455004D01*
X157581868Y-72466735D01*
X157535512Y-72471300D01*
X156459288Y-72471300D01*
X156412932Y-72466735D01*
X156374262Y-72455004D01*
X156338623Y-72435954D01*
X156307383Y-72410317D01*
X156281746Y-72379077D01*
X156262696Y-72343438D01*
X156250965Y-72304768D01*
X156246400Y-72258412D01*
X156246400Y-71607188D01*
X156250965Y-71560832D01*
X156262696Y-71522162D01*
X156281746Y-71486523D01*
X156307383Y-71455283D01*
X156338623Y-71429646D01*
X156374262Y-71410596D01*
X156412932Y-71398865D01*
X156459288Y-71394300D01*
X157535512Y-71394300D01*
X157581868Y-71398865D01*
G37*
G36*
X154965668Y-71368865D02*
G01*
X155004338Y-71380596D01*
X155039977Y-71399646D01*
X155071217Y-71425283D01*
X155096854Y-71456523D01*
X155115904Y-71492162D01*
X155127635Y-71530832D01*
X155132200Y-71577188D01*
X155132200Y-72228412D01*
X155127635Y-72274768D01*
X155115904Y-72313438D01*
X155096854Y-72349077D01*
X155071217Y-72380317D01*
X155039977Y-72405954D01*
X155004338Y-72425004D01*
X154965668Y-72436735D01*
X154919312Y-72441300D01*
X153843088Y-72441300D01*
X153796732Y-72436735D01*
X153758062Y-72425004D01*
X153722423Y-72405954D01*
X153691183Y-72380317D01*
X153665546Y-72349077D01*
X153646496Y-72313438D01*
X153634765Y-72274768D01*
X153630200Y-72228412D01*
X153630200Y-71577188D01*
X153634765Y-71530832D01*
X153646496Y-71492162D01*
X153665546Y-71456523D01*
X153691183Y-71425283D01*
X153722423Y-71399646D01*
X153758062Y-71380596D01*
X153796732Y-71368865D01*
X153843088Y-71364300D01*
X154919312Y-71364300D01*
X154965668Y-71368865D01*
G37*
G36*
X152959068Y-71368865D02*
G01*
X152997738Y-71380596D01*
X153033377Y-71399646D01*
X153064617Y-71425283D01*
X153090254Y-71456523D01*
X153109304Y-71492162D01*
X153121035Y-71530832D01*
X153125600Y-71577188D01*
X153125600Y-72228412D01*
X153121035Y-72274768D01*
X153109304Y-72313438D01*
X153090254Y-72349077D01*
X153064617Y-72380317D01*
X153033377Y-72405954D01*
X152997738Y-72425004D01*
X152959068Y-72436735D01*
X152912712Y-72441300D01*
X151836488Y-72441300D01*
X151790132Y-72436735D01*
X151751462Y-72425004D01*
X151715823Y-72405954D01*
X151684583Y-72380317D01*
X151658946Y-72349077D01*
X151639896Y-72313438D01*
X151628165Y-72274768D01*
X151623600Y-72228412D01*
X151623600Y-71577188D01*
X151628165Y-71530832D01*
X151639896Y-71492162D01*
X151658946Y-71456523D01*
X151684583Y-71425283D01*
X151715823Y-71399646D01*
X151751462Y-71380596D01*
X151790132Y-71368865D01*
X151836488Y-71364300D01*
X152912712Y-71364300D01*
X152959068Y-71368865D01*
G37*
G36*
X142861512Y-69893727D02*
G01*
X143010812Y-69923424D01*
X143174784Y-69991344D01*
X143322354Y-70089947D01*
X143447853Y-70215446D01*
X143546456Y-70363016D01*
X143614376Y-70526988D01*
X143644073Y-70676288D01*
X143649000Y-70701058D01*
X143649000Y-70878542D01*
X143644857Y-70899372D01*
X143614376Y-71052612D01*
X143546456Y-71216584D01*
X143447853Y-71364154D01*
X143322354Y-71489653D01*
X143174784Y-71588256D01*
X143010812Y-71656176D01*
X142861512Y-71685873D01*
X142836742Y-71690800D01*
X142659258Y-71690800D01*
X142634488Y-71685873D01*
X142485188Y-71656176D01*
X142321216Y-71588256D01*
X142173646Y-71489653D01*
X142048147Y-71364154D01*
X141949544Y-71216584D01*
X141881624Y-71052612D01*
X141851143Y-70899372D01*
X141847000Y-70878542D01*
X141847000Y-70701058D01*
X141851927Y-70676288D01*
X141881624Y-70526988D01*
X141949544Y-70363016D01*
X142048147Y-70215446D01*
X142173646Y-70089947D01*
X142321216Y-69991344D01*
X142485188Y-69923424D01*
X142634488Y-69893727D01*
X142659258Y-69888800D01*
X142836742Y-69888800D01*
X142861512Y-69893727D01*
G37*
G36*
X145401512Y-69893727D02*
G01*
X145550812Y-69923424D01*
X145714784Y-69991344D01*
X145862354Y-70089947D01*
X145987853Y-70215446D01*
X146086456Y-70363016D01*
X146154376Y-70526988D01*
X146184073Y-70676288D01*
X146189000Y-70701058D01*
X146189000Y-70878542D01*
X146184857Y-70899372D01*
X146154376Y-71052612D01*
X146086456Y-71216584D01*
X145987853Y-71364154D01*
X145862354Y-71489653D01*
X145714784Y-71588256D01*
X145550812Y-71656176D01*
X145401512Y-71685873D01*
X145376742Y-71690800D01*
X145199258Y-71690800D01*
X145174488Y-71685873D01*
X145025188Y-71656176D01*
X144861216Y-71588256D01*
X144713646Y-71489653D01*
X144588147Y-71364154D01*
X144489544Y-71216584D01*
X144421624Y-71052612D01*
X144391143Y-70899372D01*
X144387000Y-70878542D01*
X144387000Y-70701058D01*
X144391927Y-70676288D01*
X144421624Y-70526988D01*
X144489544Y-70363016D01*
X144588147Y-70215446D01*
X144713646Y-70089947D01*
X144861216Y-69991344D01*
X145025188Y-69923424D01*
X145174488Y-69893727D01*
X145199258Y-69888800D01*
X145376742Y-69888800D01*
X145401512Y-69893727D01*
G37*
G36*
X165563528Y-70898764D02*
G01*
X165584609Y-70905160D01*
X165604045Y-70915548D01*
X165621076Y-70929524D01*
X165635052Y-70946555D01*
X165645440Y-70965991D01*
X165651836Y-70987072D01*
X165654600Y-71015140D01*
X165654600Y-71478860D01*
X165651836Y-71506928D01*
X165645440Y-71528009D01*
X165635052Y-71547445D01*
X165621076Y-71564476D01*
X165604045Y-71578452D01*
X165584609Y-71588840D01*
X165563528Y-71595236D01*
X165535460Y-71598000D01*
X163721740Y-71598000D01*
X163693672Y-71595236D01*
X163672591Y-71588840D01*
X163653155Y-71578452D01*
X163636124Y-71564476D01*
X163622148Y-71547445D01*
X163611760Y-71528009D01*
X163605364Y-71506928D01*
X163602600Y-71478860D01*
X163602600Y-71015140D01*
X163605364Y-70987072D01*
X163611760Y-70965991D01*
X163622148Y-70946555D01*
X163636124Y-70929524D01*
X163653155Y-70915548D01*
X163672591Y-70905160D01*
X163693672Y-70898764D01*
X163721740Y-70896000D01*
X165535460Y-70896000D01*
X165563528Y-70898764D01*
G37*
G36*
X160613528Y-70898764D02*
G01*
X160634609Y-70905160D01*
X160654045Y-70915548D01*
X160671076Y-70929524D01*
X160685052Y-70946555D01*
X160695440Y-70965991D01*
X160701836Y-70987072D01*
X160704600Y-71015140D01*
X160704600Y-71478860D01*
X160701836Y-71506928D01*
X160695440Y-71528009D01*
X160685052Y-71547445D01*
X160671076Y-71564476D01*
X160654045Y-71578452D01*
X160634609Y-71588840D01*
X160613528Y-71595236D01*
X160585460Y-71598000D01*
X158771740Y-71598000D01*
X158743672Y-71595236D01*
X158722591Y-71588840D01*
X158703155Y-71578452D01*
X158686124Y-71564476D01*
X158672148Y-71547445D01*
X158661760Y-71528009D01*
X158655364Y-71506928D01*
X158652600Y-71478860D01*
X158652600Y-71015140D01*
X158655364Y-70987072D01*
X158661760Y-70965991D01*
X158672148Y-70946555D01*
X158686124Y-70929524D01*
X158703155Y-70915548D01*
X158722591Y-70905160D01*
X158743672Y-70898764D01*
X158771740Y-70896000D01*
X160585460Y-70896000D01*
X160613528Y-70898764D01*
G37*
G36*
X149999000Y-71462200D02*
G01*
X148197000Y-71462200D01*
X148197000Y-69660200D01*
X149999000Y-69660200D01*
X149999000Y-71462200D01*
G37*
G36*
X157581868Y-69523865D02*
G01*
X157620538Y-69535596D01*
X157656177Y-69554646D01*
X157687417Y-69580283D01*
X157713054Y-69611523D01*
X157732104Y-69647162D01*
X157743835Y-69685832D01*
X157748400Y-69732188D01*
X157748400Y-70383412D01*
X157743835Y-70429768D01*
X157732104Y-70468438D01*
X157713054Y-70504077D01*
X157687417Y-70535317D01*
X157656177Y-70560954D01*
X157620538Y-70580004D01*
X157581868Y-70591735D01*
X157535512Y-70596300D01*
X156459288Y-70596300D01*
X156412932Y-70591735D01*
X156374262Y-70580004D01*
X156338623Y-70560954D01*
X156307383Y-70535317D01*
X156281746Y-70504077D01*
X156262696Y-70468438D01*
X156250965Y-70429768D01*
X156246400Y-70383412D01*
X156246400Y-69732188D01*
X156250965Y-69685832D01*
X156262696Y-69647162D01*
X156281746Y-69611523D01*
X156307383Y-69580283D01*
X156338623Y-69554646D01*
X156374262Y-69535596D01*
X156412932Y-69523865D01*
X156459288Y-69519300D01*
X157535512Y-69519300D01*
X157581868Y-69523865D01*
G37*
G36*
X154965668Y-69493865D02*
G01*
X155004338Y-69505596D01*
X155039977Y-69524646D01*
X155071217Y-69550283D01*
X155096854Y-69581523D01*
X155115904Y-69617162D01*
X155127635Y-69655832D01*
X155132200Y-69702188D01*
X155132200Y-70353412D01*
X155127635Y-70399768D01*
X155115904Y-70438438D01*
X155096854Y-70474077D01*
X155071217Y-70505317D01*
X155039977Y-70530954D01*
X155004338Y-70550004D01*
X154965668Y-70561735D01*
X154919312Y-70566300D01*
X153843088Y-70566300D01*
X153796732Y-70561735D01*
X153758062Y-70550004D01*
X153722423Y-70530954D01*
X153691183Y-70505317D01*
X153665546Y-70474077D01*
X153646496Y-70438438D01*
X153634765Y-70399768D01*
X153630200Y-70353412D01*
X153630200Y-69702188D01*
X153634765Y-69655832D01*
X153646496Y-69617162D01*
X153665546Y-69581523D01*
X153691183Y-69550283D01*
X153722423Y-69524646D01*
X153758062Y-69505596D01*
X153796732Y-69493865D01*
X153843088Y-69489300D01*
X154919312Y-69489300D01*
X154965668Y-69493865D01*
G37*
G36*
X152959068Y-69493865D02*
G01*
X152997738Y-69505596D01*
X153033377Y-69524646D01*
X153064617Y-69550283D01*
X153090254Y-69581523D01*
X153109304Y-69617162D01*
X153121035Y-69655832D01*
X153125600Y-69702188D01*
X153125600Y-70353412D01*
X153121035Y-70399768D01*
X153109304Y-70438438D01*
X153090254Y-70474077D01*
X153064617Y-70505317D01*
X153033377Y-70530954D01*
X152997738Y-70550004D01*
X152959068Y-70561735D01*
X152912712Y-70566300D01*
X151836488Y-70566300D01*
X151790132Y-70561735D01*
X151751462Y-70550004D01*
X151715823Y-70530954D01*
X151684583Y-70505317D01*
X151658946Y-70474077D01*
X151639896Y-70438438D01*
X151628165Y-70399768D01*
X151623600Y-70353412D01*
X151623600Y-69702188D01*
X151628165Y-69655832D01*
X151639896Y-69617162D01*
X151658946Y-69581523D01*
X151684583Y-69550283D01*
X151715823Y-69524646D01*
X151751462Y-69505596D01*
X151790132Y-69493865D01*
X151836488Y-69489300D01*
X152912712Y-69489300D01*
X152959068Y-69493865D01*
G37*
G36*
X170217312Y-68623727D02*
G01*
X170366612Y-68653424D01*
X170530584Y-68721344D01*
X170678154Y-68819947D01*
X170803653Y-68945446D01*
X170902256Y-69093016D01*
X170970176Y-69256988D01*
X170999873Y-69406288D01*
X171004800Y-69431058D01*
X171004800Y-69608542D01*
X171000657Y-69629372D01*
X170970176Y-69782612D01*
X170902256Y-69946584D01*
X170803653Y-70094154D01*
X170678154Y-70219653D01*
X170530584Y-70318256D01*
X170366612Y-70386176D01*
X170217312Y-70415873D01*
X170192542Y-70420800D01*
X170015058Y-70420800D01*
X169990288Y-70415873D01*
X169840988Y-70386176D01*
X169677016Y-70318256D01*
X169529446Y-70219653D01*
X169403947Y-70094154D01*
X169305344Y-69946584D01*
X169237424Y-69782612D01*
X169206943Y-69629372D01*
X169202800Y-69608542D01*
X169202800Y-69431058D01*
X169207727Y-69406288D01*
X169237424Y-69256988D01*
X169305344Y-69093016D01*
X169403947Y-68945446D01*
X169529446Y-68819947D01*
X169677016Y-68721344D01*
X169840988Y-68653424D01*
X169990288Y-68623727D01*
X170015058Y-68618800D01*
X170192542Y-68618800D01*
X170217312Y-68623727D01*
G37*
G36*
X160613528Y-69628764D02*
G01*
X160634609Y-69635160D01*
X160654045Y-69645548D01*
X160671076Y-69659524D01*
X160685052Y-69676555D01*
X160695440Y-69695991D01*
X160701836Y-69717072D01*
X160704600Y-69745140D01*
X160704600Y-70208860D01*
X160701836Y-70236928D01*
X160695440Y-70258009D01*
X160685052Y-70277445D01*
X160671076Y-70294476D01*
X160654045Y-70308452D01*
X160634609Y-70318840D01*
X160613528Y-70325236D01*
X160585460Y-70328000D01*
X158771740Y-70328000D01*
X158743672Y-70325236D01*
X158722591Y-70318840D01*
X158703155Y-70308452D01*
X158686124Y-70294476D01*
X158672148Y-70277445D01*
X158661760Y-70258009D01*
X158655364Y-70236928D01*
X158652600Y-70208860D01*
X158652600Y-69745140D01*
X158655364Y-69717072D01*
X158661760Y-69695991D01*
X158672148Y-69676555D01*
X158686124Y-69659524D01*
X158703155Y-69645548D01*
X158722591Y-69635160D01*
X158743672Y-69628764D01*
X158771740Y-69626000D01*
X160585460Y-69626000D01*
X160613528Y-69628764D01*
G37*
G36*
X165563528Y-69628764D02*
G01*
X165584609Y-69635160D01*
X165604045Y-69645548D01*
X165621076Y-69659524D01*
X165635052Y-69676555D01*
X165645440Y-69695991D01*
X165651836Y-69717072D01*
X165654600Y-69745140D01*
X165654600Y-70208860D01*
X165651836Y-70236928D01*
X165645440Y-70258009D01*
X165635052Y-70277445D01*
X165621076Y-70294476D01*
X165604045Y-70308452D01*
X165584609Y-70318840D01*
X165563528Y-70325236D01*
X165535460Y-70328000D01*
X163721740Y-70328000D01*
X163693672Y-70325236D01*
X163672591Y-70318840D01*
X163653155Y-70308452D01*
X163636124Y-70294476D01*
X163622148Y-70277445D01*
X163611760Y-70258009D01*
X163605364Y-70236928D01*
X163602600Y-70208860D01*
X163602600Y-69745140D01*
X163605364Y-69717072D01*
X163611760Y-69695991D01*
X163622148Y-69676555D01*
X163636124Y-69659524D01*
X163653155Y-69645548D01*
X163672591Y-69635160D01*
X163693672Y-69628764D01*
X163721740Y-69626000D01*
X165535460Y-69626000D01*
X165563528Y-69628764D01*
G37*
G36*
X142861512Y-67353727D02*
G01*
X143010812Y-67383424D01*
X143174784Y-67451344D01*
X143322354Y-67549947D01*
X143447853Y-67675446D01*
X143546456Y-67823016D01*
X143614376Y-67986988D01*
X143644073Y-68136288D01*
X143649000Y-68161058D01*
X143649000Y-68338542D01*
X143644857Y-68359372D01*
X143614376Y-68512612D01*
X143546456Y-68676584D01*
X143447853Y-68824154D01*
X143322354Y-68949653D01*
X143174784Y-69048256D01*
X143010812Y-69116176D01*
X142861512Y-69145873D01*
X142836742Y-69150800D01*
X142659258Y-69150800D01*
X142634488Y-69145873D01*
X142485188Y-69116176D01*
X142321216Y-69048256D01*
X142173646Y-68949653D01*
X142048147Y-68824154D01*
X141949544Y-68676584D01*
X141881624Y-68512612D01*
X141851143Y-68359372D01*
X141847000Y-68338542D01*
X141847000Y-68161058D01*
X141851927Y-68136288D01*
X141881624Y-67986988D01*
X141949544Y-67823016D01*
X142048147Y-67675446D01*
X142173646Y-67549947D01*
X142321216Y-67451344D01*
X142485188Y-67383424D01*
X142634488Y-67353727D01*
X142659258Y-67348800D01*
X142836742Y-67348800D01*
X142861512Y-67353727D01*
G37*
G36*
X145401512Y-67353727D02*
G01*
X145550812Y-67383424D01*
X145714784Y-67451344D01*
X145862354Y-67549947D01*
X145987853Y-67675446D01*
X146086456Y-67823016D01*
X146154376Y-67986988D01*
X146184073Y-68136288D01*
X146189000Y-68161058D01*
X146189000Y-68338542D01*
X146184857Y-68359372D01*
X146154376Y-68512612D01*
X146086456Y-68676584D01*
X145987853Y-68824154D01*
X145862354Y-68949653D01*
X145714784Y-69048256D01*
X145550812Y-69116176D01*
X145401512Y-69145873D01*
X145376742Y-69150800D01*
X145199258Y-69150800D01*
X145174488Y-69145873D01*
X145025188Y-69116176D01*
X144861216Y-69048256D01*
X144713646Y-68949653D01*
X144588147Y-68824154D01*
X144489544Y-68676584D01*
X144421624Y-68512612D01*
X144391143Y-68359372D01*
X144387000Y-68338542D01*
X144387000Y-68161058D01*
X144391927Y-68136288D01*
X144421624Y-67986988D01*
X144489544Y-67823016D01*
X144588147Y-67675446D01*
X144713646Y-67549947D01*
X144861216Y-67451344D01*
X145025188Y-67383424D01*
X145174488Y-67353727D01*
X145199258Y-67348800D01*
X145376742Y-67348800D01*
X145401512Y-67353727D01*
G37*
G36*
X165563528Y-68358764D02*
G01*
X165584609Y-68365160D01*
X165604045Y-68375548D01*
X165621076Y-68389524D01*
X165635052Y-68406555D01*
X165645440Y-68425991D01*
X165651836Y-68447072D01*
X165654600Y-68475140D01*
X165654600Y-68938860D01*
X165651836Y-68966928D01*
X165645440Y-68988009D01*
X165635052Y-69007445D01*
X165621076Y-69024476D01*
X165604045Y-69038452D01*
X165584609Y-69048840D01*
X165563528Y-69055236D01*
X165535460Y-69058000D01*
X163721740Y-69058000D01*
X163693672Y-69055236D01*
X163672591Y-69048840D01*
X163653155Y-69038452D01*
X163636124Y-69024476D01*
X163622148Y-69007445D01*
X163611760Y-68988009D01*
X163605364Y-68966928D01*
X163602600Y-68938860D01*
X163602600Y-68475140D01*
X163605364Y-68447072D01*
X163611760Y-68425991D01*
X163622148Y-68406555D01*
X163636124Y-68389524D01*
X163653155Y-68375548D01*
X163672591Y-68365160D01*
X163693672Y-68358764D01*
X163721740Y-68356000D01*
X165535460Y-68356000D01*
X165563528Y-68358764D01*
G37*
G36*
X160613528Y-68358764D02*
G01*
X160634609Y-68365160D01*
X160654045Y-68375548D01*
X160671076Y-68389524D01*
X160685052Y-68406555D01*
X160695440Y-68425991D01*
X160701836Y-68447072D01*
X160704600Y-68475140D01*
X160704600Y-68938860D01*
X160701836Y-68966928D01*
X160695440Y-68988009D01*
X160685052Y-69007445D01*
X160671076Y-69024476D01*
X160654045Y-69038452D01*
X160634609Y-69048840D01*
X160613528Y-69055236D01*
X160585460Y-69058000D01*
X158771740Y-69058000D01*
X158743672Y-69055236D01*
X158722591Y-69048840D01*
X158703155Y-69038452D01*
X158686124Y-69024476D01*
X158672148Y-69007445D01*
X158661760Y-68988009D01*
X158655364Y-68966928D01*
X158652600Y-68938860D01*
X158652600Y-68475140D01*
X158655364Y-68447072D01*
X158661760Y-68425991D01*
X158672148Y-68406555D01*
X158686124Y-68389524D01*
X158703155Y-68375548D01*
X158722591Y-68365160D01*
X158743672Y-68358764D01*
X158771740Y-68356000D01*
X160585460Y-68356000D01*
X160613528Y-68358764D01*
G37*
G36*
X170217312Y-66083727D02*
G01*
X170366612Y-66113424D01*
X170530584Y-66181344D01*
X170678154Y-66279947D01*
X170803653Y-66405446D01*
X170902256Y-66553016D01*
X170970176Y-66716988D01*
X171004800Y-66891059D01*
X171004800Y-67068541D01*
X170970176Y-67242612D01*
X170902256Y-67406584D01*
X170803653Y-67554154D01*
X170678154Y-67679653D01*
X170530584Y-67778256D01*
X170366612Y-67846176D01*
X170217312Y-67875873D01*
X170192542Y-67880800D01*
X170015058Y-67880800D01*
X169990288Y-67875873D01*
X169840988Y-67846176D01*
X169677016Y-67778256D01*
X169529446Y-67679653D01*
X169403947Y-67554154D01*
X169305344Y-67406584D01*
X169237424Y-67242612D01*
X169202800Y-67068541D01*
X169202800Y-66891059D01*
X169237424Y-66716988D01*
X169305344Y-66553016D01*
X169403947Y-66405446D01*
X169529446Y-66279947D01*
X169677016Y-66181344D01*
X169840988Y-66113424D01*
X169990288Y-66083727D01*
X170015058Y-66078800D01*
X170192542Y-66078800D01*
X170217312Y-66083727D01*
G37*
G36*
X155317000Y-66971600D02*
G01*
X151515000Y-66971600D01*
X151515000Y-64869600D01*
X155317000Y-64869600D01*
X155317000Y-66971600D01*
G37*
G36*
X162150400Y-66832600D02*
G01*
X160988400Y-66832600D01*
X160988400Y-64180600D01*
X162150400Y-64180600D01*
X162150400Y-66832600D01*
G37*
G36*
X164350400Y-66832600D02*
G01*
X163188400Y-66832600D01*
X163188400Y-66080600D01*
X164350400Y-66080600D01*
X164350400Y-66832600D01*
G37*
G36*
X158917000Y-66721600D02*
G01*
X156815000Y-66721600D01*
X156815000Y-64919600D01*
X158917000Y-64919600D01*
X158917000Y-66721600D01*
G37*
G36*
X150017000Y-66721600D02*
G01*
X147915000Y-66721600D01*
X147915000Y-64919600D01*
X150017000Y-64919600D01*
X150017000Y-66721600D01*
G37*
G36*
X142861512Y-64813727D02*
G01*
X143010812Y-64843424D01*
X143174784Y-64911344D01*
X143322354Y-65009947D01*
X143447853Y-65135446D01*
X143546456Y-65283016D01*
X143614376Y-65446988D01*
X143649000Y-65621059D01*
X143649000Y-65798541D01*
X143614376Y-65972612D01*
X143546456Y-66136584D01*
X143447853Y-66284154D01*
X143322354Y-66409653D01*
X143174784Y-66508256D01*
X143010812Y-66576176D01*
X142861512Y-66605873D01*
X142836742Y-66610800D01*
X142659258Y-66610800D01*
X142634488Y-66605873D01*
X142485188Y-66576176D01*
X142321216Y-66508256D01*
X142173646Y-66409653D01*
X142048147Y-66284154D01*
X141949544Y-66136584D01*
X141881624Y-65972612D01*
X141847000Y-65798541D01*
X141847000Y-65621059D01*
X141881624Y-65446988D01*
X141949544Y-65283016D01*
X142048147Y-65135446D01*
X142173646Y-65009947D01*
X142321216Y-64911344D01*
X142485188Y-64843424D01*
X142634488Y-64813727D01*
X142659258Y-64808800D01*
X142836742Y-64808800D01*
X142861512Y-64813727D01*
G37*
G36*
X145401512Y-64813727D02*
G01*
X145550812Y-64843424D01*
X145714784Y-64911344D01*
X145862354Y-65009947D01*
X145987853Y-65135446D01*
X146086456Y-65283016D01*
X146154376Y-65446988D01*
X146189000Y-65621059D01*
X146189000Y-65798541D01*
X146154376Y-65972612D01*
X146086456Y-66136584D01*
X145987853Y-66284154D01*
X145862354Y-66409653D01*
X145714784Y-66508256D01*
X145550812Y-66576176D01*
X145401512Y-66605873D01*
X145376742Y-66610800D01*
X145199258Y-66610800D01*
X145174488Y-66605873D01*
X145025188Y-66576176D01*
X144861216Y-66508256D01*
X144713646Y-66409653D01*
X144588147Y-66284154D01*
X144489544Y-66136584D01*
X144421624Y-65972612D01*
X144387000Y-65798541D01*
X144387000Y-65621059D01*
X144421624Y-65446988D01*
X144489544Y-65283016D01*
X144588147Y-65135446D01*
X144713646Y-65009947D01*
X144861216Y-64911344D01*
X145025188Y-64843424D01*
X145174488Y-64813727D01*
X145199258Y-64808800D01*
X145376742Y-64808800D01*
X145401512Y-64813727D01*
G37*
G36*
X170217312Y-63543727D02*
G01*
X170366612Y-63573424D01*
X170530584Y-63641344D01*
X170678154Y-63739947D01*
X170803653Y-63865446D01*
X170902256Y-64013016D01*
X170970176Y-64176988D01*
X171004800Y-64351059D01*
X171004800Y-64528541D01*
X170970176Y-64702612D01*
X170902256Y-64866584D01*
X170803653Y-65014154D01*
X170678154Y-65139653D01*
X170530584Y-65238256D01*
X170366612Y-65306176D01*
X170217312Y-65335873D01*
X170192542Y-65340800D01*
X170015058Y-65340800D01*
X169990288Y-65335873D01*
X169840988Y-65306176D01*
X169677016Y-65238256D01*
X169529446Y-65139653D01*
X169403947Y-65014154D01*
X169305344Y-64866584D01*
X169237424Y-64702612D01*
X169202800Y-64528541D01*
X169202800Y-64351059D01*
X169237424Y-64176988D01*
X169305344Y-64013016D01*
X169403947Y-63865446D01*
X169529446Y-63739947D01*
X169677016Y-63641344D01*
X169840988Y-63573424D01*
X169990288Y-63543727D01*
X170015058Y-63538800D01*
X170192542Y-63538800D01*
X170217312Y-63543727D01*
G37*
G36*
X164350400Y-64932600D02*
G01*
X163188400Y-64932600D01*
X163188400Y-64180600D01*
X164350400Y-64180600D01*
X164350400Y-64932600D01*
G37*
G36*
X151376721Y-62690774D02*
G01*
X151476995Y-62732309D01*
X151476996Y-62732310D01*
X151567242Y-62792610D01*
X151643990Y-62869358D01*
X151643991Y-62869360D01*
X151704291Y-62959605D01*
X151745826Y-63059879D01*
X151767000Y-63166330D01*
X151767000Y-63274870D01*
X151745826Y-63381321D01*
X151704291Y-63481595D01*
X151704290Y-63481596D01*
X151643990Y-63571842D01*
X151567242Y-63648590D01*
X151521812Y-63678945D01*
X151476995Y-63708891D01*
X151376721Y-63750426D01*
X151270270Y-63771600D01*
X151161730Y-63771600D01*
X151055279Y-63750426D01*
X150955005Y-63708891D01*
X150910188Y-63678945D01*
X150864758Y-63648590D01*
X150788010Y-63571842D01*
X150727710Y-63481596D01*
X150727709Y-63481595D01*
X150686174Y-63381321D01*
X150665000Y-63274870D01*
X150665000Y-63166330D01*
X150686174Y-63059879D01*
X150727709Y-62959605D01*
X150788009Y-62869360D01*
X150788010Y-62869358D01*
X150864758Y-62792610D01*
X150955004Y-62732310D01*
X150955005Y-62732309D01*
X151055279Y-62690774D01*
X151161730Y-62669600D01*
X151270270Y-62669600D01*
X151376721Y-62690774D01*
G37*
G36*
X155776721Y-62690774D02*
G01*
X155876995Y-62732309D01*
X155876996Y-62732310D01*
X155967242Y-62792610D01*
X156043990Y-62869358D01*
X156043991Y-62869360D01*
X156104291Y-62959605D01*
X156145826Y-63059879D01*
X156167000Y-63166330D01*
X156167000Y-63274870D01*
X156145826Y-63381321D01*
X156104291Y-63481595D01*
X156104290Y-63481596D01*
X156043990Y-63571842D01*
X155967242Y-63648590D01*
X155921812Y-63678945D01*
X155876995Y-63708891D01*
X155776721Y-63750426D01*
X155670270Y-63771600D01*
X155561730Y-63771600D01*
X155455279Y-63750426D01*
X155355005Y-63708891D01*
X155310188Y-63678945D01*
X155264758Y-63648590D01*
X155188010Y-63571842D01*
X155127710Y-63481596D01*
X155127709Y-63481595D01*
X155086174Y-63381321D01*
X155065000Y-63274870D01*
X155065000Y-63166330D01*
X155086174Y-63059879D01*
X155127709Y-62959605D01*
X155188009Y-62869360D01*
X155188010Y-62869358D01*
X155264758Y-62792610D01*
X155355004Y-62732310D01*
X155355005Y-62732309D01*
X155455279Y-62690774D01*
X155561730Y-62669600D01*
X155670270Y-62669600D01*
X155776721Y-62690774D01*
G37*
G36*
X161943668Y-61813765D02*
G01*
X161982338Y-61825496D01*
X162017977Y-61844546D01*
X162049217Y-61870183D01*
X162074854Y-61901423D01*
X162093904Y-61937062D01*
X162105635Y-61975732D01*
X162110200Y-62022088D01*
X162110200Y-63098312D01*
X162105635Y-63144668D01*
X162093904Y-63183338D01*
X162074854Y-63218977D01*
X162049217Y-63250217D01*
X162017977Y-63275854D01*
X161982338Y-63294904D01*
X161943668Y-63306635D01*
X161897312Y-63311200D01*
X161246088Y-63311200D01*
X161199732Y-63306635D01*
X161161062Y-63294904D01*
X161125423Y-63275854D01*
X161094183Y-63250217D01*
X161068546Y-63218977D01*
X161049496Y-63183338D01*
X161037765Y-63144668D01*
X161033200Y-63098312D01*
X161033200Y-62022088D01*
X161037765Y-61975732D01*
X161049496Y-61937062D01*
X161068546Y-61901423D01*
X161094183Y-61870183D01*
X161125423Y-61844546D01*
X161161062Y-61825496D01*
X161199732Y-61813765D01*
X161246088Y-61809200D01*
X161897312Y-61809200D01*
X161943668Y-61813765D01*
G37*
G36*
X163818668Y-61813765D02*
G01*
X163857338Y-61825496D01*
X163892977Y-61844546D01*
X163924217Y-61870183D01*
X163949854Y-61901423D01*
X163968904Y-61937062D01*
X163980635Y-61975732D01*
X163985200Y-62022088D01*
X163985200Y-63098312D01*
X163980635Y-63144668D01*
X163968904Y-63183338D01*
X163949854Y-63218977D01*
X163924217Y-63250217D01*
X163892977Y-63275854D01*
X163857338Y-63294904D01*
X163818668Y-63306635D01*
X163772312Y-63311200D01*
X163121088Y-63311200D01*
X163074732Y-63306635D01*
X163036062Y-63294904D01*
X163000423Y-63275854D01*
X162969183Y-63250217D01*
X162943546Y-63218977D01*
X162924496Y-63183338D01*
X162912765Y-63144668D01*
X162908200Y-63098312D01*
X162908200Y-62022088D01*
X162912765Y-61975732D01*
X162924496Y-61937062D01*
X162943546Y-61901423D01*
X162969183Y-61870183D01*
X163000423Y-61844546D01*
X163036062Y-61825496D01*
X163074732Y-61813765D01*
X163121088Y-61809200D01*
X163772312Y-61809200D01*
X163818668Y-61813765D01*
G37*
G36*
X158917000Y-61271600D02*
G01*
X156815000Y-61271600D01*
X156815000Y-59469600D01*
X158917000Y-59469600D01*
X158917000Y-61271600D01*
G37*
G36*
X150017000Y-61271600D02*
G01*
X147915000Y-61271600D01*
X147915000Y-59469600D01*
X150017000Y-59469600D01*
X150017000Y-61271600D01*
G37*
G36*
X161945968Y-59730965D02*
G01*
X161984638Y-59742696D01*
X162020277Y-59761746D01*
X162051517Y-59787383D01*
X162077154Y-59818623D01*
X162096204Y-59854262D01*
X162107935Y-59892932D01*
X162112500Y-59939288D01*
X162112500Y-61015512D01*
X162107935Y-61061868D01*
X162096204Y-61100538D01*
X162077154Y-61136177D01*
X162051517Y-61167417D01*
X162020277Y-61193054D01*
X161984638Y-61212104D01*
X161945968Y-61223835D01*
X161899612Y-61228400D01*
X161248388Y-61228400D01*
X161202032Y-61223835D01*
X161163362Y-61212104D01*
X161127723Y-61193054D01*
X161096483Y-61167417D01*
X161070846Y-61136177D01*
X161051796Y-61100538D01*
X161040065Y-61061868D01*
X161035500Y-61015512D01*
X161035500Y-59939288D01*
X161040065Y-59892932D01*
X161051796Y-59854262D01*
X161070846Y-59818623D01*
X161096483Y-59787383D01*
X161127723Y-59761746D01*
X161163362Y-59742696D01*
X161202032Y-59730965D01*
X161248388Y-59726400D01*
X161899612Y-59726400D01*
X161945968Y-59730965D01*
G37*
G36*
X163820968Y-59730965D02*
G01*
X163859638Y-59742696D01*
X163895277Y-59761746D01*
X163926517Y-59787383D01*
X163952154Y-59818623D01*
X163971204Y-59854262D01*
X163982935Y-59892932D01*
X163987500Y-59939288D01*
X163987500Y-61015512D01*
X163982935Y-61061868D01*
X163971204Y-61100538D01*
X163952154Y-61136177D01*
X163926517Y-61167417D01*
X163895277Y-61193054D01*
X163859638Y-61212104D01*
X163820968Y-61223835D01*
X163774612Y-61228400D01*
X163123388Y-61228400D01*
X163077032Y-61223835D01*
X163038362Y-61212104D01*
X163002723Y-61193054D01*
X162971483Y-61167417D01*
X162945846Y-61136177D01*
X162926796Y-61100538D01*
X162915065Y-61061868D01*
X162910500Y-61015512D01*
X162910500Y-59939288D01*
X162915065Y-59892932D01*
X162926796Y-59854262D01*
X162945846Y-59818623D01*
X162971483Y-59787383D01*
X163002723Y-59761746D01*
X163038362Y-59742696D01*
X163077032Y-59730965D01*
X163123388Y-59726400D01*
X163774612Y-59726400D01*
X163820968Y-59730965D01*
G37*
M02*
