G04 #@! TF.GenerationSoftware,KiCad,Pcbnew,5.1.5-52549c5~84~ubuntu18.04.1*
G04 #@! TF.CreationDate,2019-12-05T10:19:33+01:00*
G04 #@! TF.ProjectId,ch340-breakout,63683334-302d-4627-9265-616b6f75742e,rev?*
G04 #@! TF.SameCoordinates,Original*
G04 #@! TF.FileFunction,Legend,Top*
G04 #@! TF.FilePolarity,Positive*
%FSLAX46Y46*%
G04 Gerber Fmt 4.6, Leading zero omitted, Abs format (unit mm)*
G04 Created by KiCad (PCBNEW 5.1.5-52549c5~84~ubuntu18.04.1) date 2019-12-05 10:19:33*
%MOMM*%
%LPD*%
G04 APERTURE LIST*
%ADD10C,0.250000*%
%ADD11C,0.120000*%
%ADD12C,0.010000*%
%ADD13C,0.150000*%
G04 APERTURE END LIST*
D10*
X158957095Y-85574142D02*
X158909476Y-85621761D01*
X158766619Y-85669380D01*
X158671380Y-85669380D01*
X158528523Y-85621761D01*
X158433285Y-85526523D01*
X158385666Y-85431285D01*
X158338047Y-85240809D01*
X158338047Y-85097952D01*
X158385666Y-84907476D01*
X158433285Y-84812238D01*
X158528523Y-84717000D01*
X158671380Y-84669380D01*
X158766619Y-84669380D01*
X158909476Y-84717000D01*
X158957095Y-84764619D01*
X159385666Y-85669380D02*
X159385666Y-84669380D01*
X159385666Y-85145571D02*
X159957095Y-85145571D01*
X159957095Y-85669380D02*
X159957095Y-84669380D01*
X160338047Y-84669380D02*
X160957095Y-84669380D01*
X160623761Y-85050333D01*
X160766619Y-85050333D01*
X160861857Y-85097952D01*
X160909476Y-85145571D01*
X160957095Y-85240809D01*
X160957095Y-85478904D01*
X160909476Y-85574142D01*
X160861857Y-85621761D01*
X160766619Y-85669380D01*
X160480904Y-85669380D01*
X160385666Y-85621761D01*
X160338047Y-85574142D01*
X161814238Y-85002714D02*
X161814238Y-85669380D01*
X161576142Y-84621761D02*
X161338047Y-85336047D01*
X161957095Y-85336047D01*
X162528523Y-84669380D02*
X162623761Y-84669380D01*
X162719000Y-84717000D01*
X162766619Y-84764619D01*
X162814238Y-84859857D01*
X162861857Y-85050333D01*
X162861857Y-85288428D01*
X162814238Y-85478904D01*
X162766619Y-85574142D01*
X162719000Y-85621761D01*
X162623761Y-85669380D01*
X162528523Y-85669380D01*
X162433285Y-85621761D01*
X162385666Y-85574142D01*
X162338047Y-85478904D01*
X162290428Y-85288428D01*
X162290428Y-85050333D01*
X162338047Y-84859857D01*
X162385666Y-84764619D01*
X162433285Y-84717000D01*
X162528523Y-84669380D01*
X163814238Y-84717000D02*
X163719000Y-84669380D01*
X163576142Y-84669380D01*
X163433285Y-84717000D01*
X163338047Y-84812238D01*
X163290428Y-84907476D01*
X163242809Y-85097952D01*
X163242809Y-85240809D01*
X163290428Y-85431285D01*
X163338047Y-85526523D01*
X163433285Y-85621761D01*
X163576142Y-85669380D01*
X163671380Y-85669380D01*
X163814238Y-85621761D01*
X163861857Y-85574142D01*
X163861857Y-85240809D01*
X163671380Y-85240809D01*
X165052333Y-85669380D02*
X165052333Y-84669380D01*
X165052333Y-85050333D02*
X165147571Y-85002714D01*
X165338047Y-85002714D01*
X165433285Y-85050333D01*
X165480904Y-85097952D01*
X165528523Y-85193190D01*
X165528523Y-85478904D01*
X165480904Y-85574142D01*
X165433285Y-85621761D01*
X165338047Y-85669380D01*
X165147571Y-85669380D01*
X165052333Y-85621761D01*
X165957095Y-85669380D02*
X165957095Y-85002714D01*
X165957095Y-85193190D02*
X166004714Y-85097952D01*
X166052333Y-85050333D01*
X166147571Y-85002714D01*
X166242809Y-85002714D01*
X166957095Y-85621761D02*
X166861857Y-85669380D01*
X166671380Y-85669380D01*
X166576142Y-85621761D01*
X166528523Y-85526523D01*
X166528523Y-85145571D01*
X166576142Y-85050333D01*
X166671380Y-85002714D01*
X166861857Y-85002714D01*
X166957095Y-85050333D01*
X167004714Y-85145571D01*
X167004714Y-85240809D01*
X166528523Y-85336047D01*
X167861857Y-85669380D02*
X167861857Y-85145571D01*
X167814238Y-85050333D01*
X167719000Y-85002714D01*
X167528523Y-85002714D01*
X167433285Y-85050333D01*
X167861857Y-85621761D02*
X167766619Y-85669380D01*
X167528523Y-85669380D01*
X167433285Y-85621761D01*
X167385666Y-85526523D01*
X167385666Y-85431285D01*
X167433285Y-85336047D01*
X167528523Y-85288428D01*
X167766619Y-85288428D01*
X167861857Y-85240809D01*
X168338047Y-85669380D02*
X168338047Y-84669380D01*
X168433285Y-85288428D02*
X168719000Y-85669380D01*
X168719000Y-85002714D02*
X168338047Y-85383666D01*
X169290428Y-85669380D02*
X169195190Y-85621761D01*
X169147571Y-85574142D01*
X169099952Y-85478904D01*
X169099952Y-85193190D01*
X169147571Y-85097952D01*
X169195190Y-85050333D01*
X169290428Y-85002714D01*
X169433285Y-85002714D01*
X169528523Y-85050333D01*
X169576142Y-85097952D01*
X169623761Y-85193190D01*
X169623761Y-85478904D01*
X169576142Y-85574142D01*
X169528523Y-85621761D01*
X169433285Y-85669380D01*
X169290428Y-85669380D01*
X170480904Y-85002714D02*
X170480904Y-85669380D01*
X170052333Y-85002714D02*
X170052333Y-85526523D01*
X170099952Y-85621761D01*
X170195190Y-85669380D01*
X170338047Y-85669380D01*
X170433285Y-85621761D01*
X170480904Y-85574142D01*
X170814238Y-85002714D02*
X171195190Y-85002714D01*
X170957095Y-84669380D02*
X170957095Y-85526523D01*
X171004714Y-85621761D01*
X171099952Y-85669380D01*
X171195190Y-85669380D01*
X143092419Y-77254266D02*
X142092419Y-77587600D01*
X143092419Y-77920933D01*
X142187657Y-78825695D02*
X142140038Y-78778076D01*
X142092419Y-78635219D01*
X142092419Y-78539980D01*
X142140038Y-78397123D01*
X142235276Y-78301885D01*
X142330514Y-78254266D01*
X142520990Y-78206647D01*
X142663847Y-78206647D01*
X142854323Y-78254266D01*
X142949561Y-78301885D01*
X143044800Y-78397123D01*
X143092419Y-78539980D01*
X143092419Y-78635219D01*
X143044800Y-78778076D01*
X142997180Y-78825695D01*
X142187657Y-79825695D02*
X142140038Y-79778076D01*
X142092419Y-79635219D01*
X142092419Y-79539980D01*
X142140038Y-79397123D01*
X142235276Y-79301885D01*
X142330514Y-79254266D01*
X142520990Y-79206647D01*
X142663847Y-79206647D01*
X142854323Y-79254266D01*
X142949561Y-79301885D01*
X143044800Y-79397123D01*
X143092419Y-79539980D01*
X143092419Y-79635219D01*
X143044800Y-79778076D01*
X142997180Y-79825695D01*
X145661000Y-77825695D02*
X145708619Y-77730457D01*
X145708619Y-77587600D01*
X145661000Y-77444742D01*
X145565761Y-77349504D01*
X145470523Y-77301885D01*
X145280047Y-77254266D01*
X145137190Y-77254266D01*
X144946714Y-77301885D01*
X144851476Y-77349504D01*
X144756238Y-77444742D01*
X144708619Y-77587600D01*
X144708619Y-77682838D01*
X144756238Y-77825695D01*
X144803857Y-77873314D01*
X145137190Y-77873314D01*
X145137190Y-77682838D01*
X144708619Y-78301885D02*
X145708619Y-78301885D01*
X144708619Y-78873314D01*
X145708619Y-78873314D01*
X144708619Y-79349504D02*
X145708619Y-79349504D01*
X145708619Y-79587600D01*
X145661000Y-79730457D01*
X145565761Y-79825695D01*
X145470523Y-79873314D01*
X145280047Y-79920933D01*
X145137190Y-79920933D01*
X144946714Y-79873314D01*
X144851476Y-79825695D01*
X144756238Y-79730457D01*
X144708619Y-79587600D01*
X144708619Y-79349504D01*
X147512019Y-74453904D02*
X147512019Y-75072952D01*
X147131066Y-74739619D01*
X147131066Y-74882476D01*
X147083447Y-74977714D01*
X147035828Y-75025333D01*
X146940590Y-75072952D01*
X146702495Y-75072952D01*
X146607257Y-75025333D01*
X146559638Y-74977714D01*
X146512019Y-74882476D01*
X146512019Y-74596761D01*
X146559638Y-74501523D01*
X146607257Y-74453904D01*
X147512019Y-75358666D02*
X146512019Y-75692000D01*
X147512019Y-76025333D01*
X147512019Y-76263428D02*
X147512019Y-76882476D01*
X147131066Y-76549142D01*
X147131066Y-76692000D01*
X147083447Y-76787238D01*
X147035828Y-76834857D01*
X146940590Y-76882476D01*
X146702495Y-76882476D01*
X146607257Y-76834857D01*
X146559638Y-76787238D01*
X146512019Y-76692000D01*
X146512019Y-76406285D01*
X146559638Y-76311047D01*
X146607257Y-76263428D01*
X147410419Y-70319923D02*
X147410419Y-69843733D01*
X146934228Y-69796114D01*
X146981847Y-69843733D01*
X147029466Y-69938971D01*
X147029466Y-70177066D01*
X146981847Y-70272304D01*
X146934228Y-70319923D01*
X146838990Y-70367542D01*
X146600895Y-70367542D01*
X146505657Y-70319923D01*
X146458038Y-70272304D01*
X146410419Y-70177066D01*
X146410419Y-69938971D01*
X146458038Y-69843733D01*
X146505657Y-69796114D01*
X147410419Y-70653257D02*
X146410419Y-70986590D01*
X147410419Y-71319923D01*
X167905133Y-82672180D02*
X167571800Y-82195990D01*
X167333704Y-82672180D02*
X167333704Y-81672180D01*
X167714657Y-81672180D01*
X167809895Y-81719800D01*
X167857514Y-81767419D01*
X167905133Y-81862657D01*
X167905133Y-82005514D01*
X167857514Y-82100752D01*
X167809895Y-82148371D01*
X167714657Y-82195990D01*
X167333704Y-82195990D01*
X168238466Y-81672180D02*
X168905133Y-82672180D01*
X168905133Y-81672180D02*
X168238466Y-82672180D01*
X167157495Y-79259180D02*
X167728923Y-79259180D01*
X167443209Y-80259180D02*
X167443209Y-79259180D01*
X167967019Y-79259180D02*
X168633685Y-80259180D01*
X168633685Y-79259180D02*
X167967019Y-80259180D01*
X167016180Y-77623942D02*
X166968561Y-77671561D01*
X166825704Y-77719180D01*
X166730466Y-77719180D01*
X166587609Y-77671561D01*
X166492371Y-77576323D01*
X166444752Y-77481085D01*
X166397133Y-77290609D01*
X166397133Y-77147752D01*
X166444752Y-76957276D01*
X166492371Y-76862038D01*
X166587609Y-76766800D01*
X166730466Y-76719180D01*
X166825704Y-76719180D01*
X166968561Y-76766800D01*
X167016180Y-76814419D01*
X167301895Y-76719180D02*
X167873323Y-76719180D01*
X167587609Y-77719180D02*
X167587609Y-76719180D01*
X168159038Y-77671561D02*
X168301895Y-77719180D01*
X168539990Y-77719180D01*
X168635228Y-77671561D01*
X168682847Y-77623942D01*
X168730466Y-77528704D01*
X168730466Y-77433466D01*
X168682847Y-77338228D01*
X168635228Y-77290609D01*
X168539990Y-77242990D01*
X168349514Y-77195371D01*
X168254276Y-77147752D01*
X168206657Y-77100133D01*
X168159038Y-77004895D01*
X168159038Y-76909657D01*
X168206657Y-76814419D01*
X168254276Y-76766800D01*
X168349514Y-76719180D01*
X168587609Y-76719180D01*
X168730466Y-76766800D01*
X166325704Y-75026780D02*
X166325704Y-74026780D01*
X166563800Y-74026780D01*
X166706657Y-74074400D01*
X166801895Y-74169638D01*
X166849514Y-74264876D01*
X166897133Y-74455352D01*
X166897133Y-74598209D01*
X166849514Y-74788685D01*
X166801895Y-74883923D01*
X166706657Y-74979161D01*
X166563800Y-75026780D01*
X166325704Y-75026780D01*
X167278085Y-74979161D02*
X167420942Y-75026780D01*
X167659038Y-75026780D01*
X167754276Y-74979161D01*
X167801895Y-74931542D01*
X167849514Y-74836304D01*
X167849514Y-74741066D01*
X167801895Y-74645828D01*
X167754276Y-74598209D01*
X167659038Y-74550590D01*
X167468561Y-74502971D01*
X167373323Y-74455352D01*
X167325704Y-74407733D01*
X167278085Y-74312495D01*
X167278085Y-74217257D01*
X167325704Y-74122019D01*
X167373323Y-74074400D01*
X167468561Y-74026780D01*
X167706657Y-74026780D01*
X167849514Y-74074400D01*
X168849514Y-75026780D02*
X168516180Y-74550590D01*
X168278085Y-75026780D02*
X168278085Y-74026780D01*
X168659038Y-74026780D01*
X168754276Y-74074400D01*
X168801895Y-74122019D01*
X168849514Y-74217257D01*
X168849514Y-74360114D01*
X168801895Y-74455352D01*
X168754276Y-74502971D01*
X168659038Y-74550590D01*
X168278085Y-74550590D01*
X168346428Y-72613780D02*
X168013095Y-72137590D01*
X167775000Y-72613780D02*
X167775000Y-71613780D01*
X168155952Y-71613780D01*
X168251190Y-71661400D01*
X168298809Y-71709019D01*
X168346428Y-71804257D01*
X168346428Y-71947114D01*
X168298809Y-72042352D01*
X168251190Y-72089971D01*
X168155952Y-72137590D01*
X167775000Y-72137590D01*
X168775000Y-72613780D02*
X168775000Y-71613780D01*
X166225695Y-70022980D02*
X166225695Y-69022980D01*
X166463790Y-69022980D01*
X166606647Y-69070600D01*
X166701885Y-69165838D01*
X166749504Y-69261076D01*
X166797123Y-69451552D01*
X166797123Y-69594409D01*
X166749504Y-69784885D01*
X166701885Y-69880123D01*
X166606647Y-69975361D01*
X166463790Y-70022980D01*
X166225695Y-70022980D01*
X167797123Y-69927742D02*
X167749504Y-69975361D01*
X167606647Y-70022980D01*
X167511409Y-70022980D01*
X167368552Y-69975361D01*
X167273314Y-69880123D01*
X167225695Y-69784885D01*
X167178076Y-69594409D01*
X167178076Y-69451552D01*
X167225695Y-69261076D01*
X167273314Y-69165838D01*
X167368552Y-69070600D01*
X167511409Y-69022980D01*
X167606647Y-69022980D01*
X167749504Y-69070600D01*
X167797123Y-69118219D01*
X168225695Y-70022980D02*
X168225695Y-69022980D01*
X168463790Y-69022980D01*
X168606647Y-69070600D01*
X168701885Y-69165838D01*
X168749504Y-69261076D01*
X168797123Y-69451552D01*
X168797123Y-69594409D01*
X168749504Y-69784885D01*
X168701885Y-69880123D01*
X168606647Y-69975361D01*
X168463790Y-70022980D01*
X168225695Y-70022980D01*
X166293942Y-67508380D02*
X166293942Y-66508380D01*
X166532038Y-66508380D01*
X166674895Y-66556000D01*
X166770133Y-66651238D01*
X166817752Y-66746476D01*
X166865371Y-66936952D01*
X166865371Y-67079809D01*
X166817752Y-67270285D01*
X166770133Y-67365523D01*
X166674895Y-67460761D01*
X166532038Y-67508380D01*
X166293942Y-67508380D01*
X167151085Y-66508380D02*
X167722514Y-66508380D01*
X167436800Y-67508380D02*
X167436800Y-66508380D01*
X168627276Y-67508380D02*
X168293942Y-67032190D01*
X168055847Y-67508380D02*
X168055847Y-66508380D01*
X168436800Y-66508380D01*
X168532038Y-66556000D01*
X168579657Y-66603619D01*
X168627276Y-66698857D01*
X168627276Y-66841714D01*
X168579657Y-66936952D01*
X168532038Y-66984571D01*
X168436800Y-67032190D01*
X168055847Y-67032190D01*
X166939980Y-64942980D02*
X166606647Y-64466790D01*
X166368552Y-64942980D02*
X166368552Y-63942980D01*
X166749504Y-63942980D01*
X166844742Y-63990600D01*
X166892361Y-64038219D01*
X166939980Y-64133457D01*
X166939980Y-64276314D01*
X166892361Y-64371552D01*
X166844742Y-64419171D01*
X166749504Y-64466790D01*
X166368552Y-64466790D01*
X167225695Y-63942980D02*
X167797123Y-63942980D01*
X167511409Y-64942980D02*
X167511409Y-63942980D01*
X168082838Y-64895361D02*
X168225695Y-64942980D01*
X168463790Y-64942980D01*
X168559028Y-64895361D01*
X168606647Y-64847742D01*
X168654266Y-64752504D01*
X168654266Y-64657266D01*
X168606647Y-64562028D01*
X168559028Y-64514409D01*
X168463790Y-64466790D01*
X168273314Y-64419171D01*
X168178076Y-64371552D01*
X168130457Y-64323933D01*
X168082838Y-64228695D01*
X168082838Y-64133457D01*
X168130457Y-64038219D01*
X168178076Y-63990600D01*
X168273314Y-63942980D01*
X168511409Y-63942980D01*
X168654266Y-63990600D01*
D11*
X157707400Y-71253878D02*
X157707400Y-70736722D01*
X156287400Y-71253878D02*
X156287400Y-70736722D01*
X155091200Y-71223878D02*
X155091200Y-70706722D01*
X153671200Y-71223878D02*
X153671200Y-70706722D01*
D12*
G36*
X144655310Y-58938948D02*
G01*
X144733854Y-58939378D01*
X144790698Y-58940542D01*
X144829505Y-58942807D01*
X144853938Y-58946540D01*
X144867662Y-58952106D01*
X144874340Y-58959873D01*
X144877636Y-58970205D01*
X144877956Y-58971543D01*
X144882962Y-58995679D01*
X144892229Y-59043301D01*
X144904792Y-59109341D01*
X144919687Y-59188728D01*
X144935951Y-59276396D01*
X144936519Y-59279475D01*
X144952810Y-59365389D01*
X144968052Y-59441296D01*
X144981261Y-59502645D01*
X144991454Y-59544882D01*
X144997648Y-59563455D01*
X144997943Y-59563784D01*
X145016188Y-59572853D01*
X145053805Y-59587967D01*
X145102671Y-59605862D01*
X145102943Y-59605958D01*
X145164493Y-59629093D01*
X145237057Y-59658565D01*
X145305457Y-59688197D01*
X145308694Y-59689662D01*
X145420102Y-59740226D01*
X145666799Y-59571760D01*
X145742477Y-59520403D01*
X145811031Y-59474489D01*
X145868488Y-59436630D01*
X145910876Y-59409437D01*
X145934225Y-59395521D01*
X145936442Y-59394489D01*
X145953410Y-59399084D01*
X145985101Y-59421255D01*
X146032752Y-59462047D01*
X146097598Y-59522505D01*
X146163797Y-59586827D01*
X146227614Y-59650212D01*
X146284729Y-59708051D01*
X146331705Y-59756775D01*
X146365103Y-59792810D01*
X146381485Y-59812584D01*
X146382094Y-59813602D01*
X146383905Y-59827172D01*
X146377083Y-59849333D01*
X146359940Y-59883078D01*
X146330793Y-59931400D01*
X146287955Y-59997292D01*
X146230848Y-60082117D01*
X146180166Y-60156777D01*
X146134861Y-60223740D01*
X146097550Y-60279116D01*
X146070852Y-60319020D01*
X146057385Y-60339562D01*
X146056537Y-60340956D01*
X146058181Y-60360638D01*
X146070645Y-60398893D01*
X146091448Y-60448489D01*
X146098862Y-60464328D01*
X146131214Y-60534890D01*
X146165728Y-60614953D01*
X146193765Y-60684229D01*
X146213968Y-60735645D01*
X146230015Y-60774719D01*
X146239288Y-60795141D01*
X146240441Y-60796714D01*
X146257496Y-60799321D01*
X146297698Y-60806463D01*
X146355702Y-60817123D01*
X146426163Y-60830285D01*
X146503735Y-60844933D01*
X146583072Y-60860049D01*
X146658831Y-60874618D01*
X146725664Y-60887622D01*
X146778228Y-60898045D01*
X146811176Y-60904870D01*
X146819257Y-60906799D01*
X146827605Y-60911562D01*
X146833906Y-60922318D01*
X146838445Y-60942698D01*
X146841504Y-60976334D01*
X146843367Y-61026855D01*
X146844318Y-61097892D01*
X146844640Y-61193076D01*
X146844657Y-61232092D01*
X146844657Y-61549399D01*
X146768457Y-61564439D01*
X146726063Y-61572595D01*
X146662800Y-61584499D01*
X146586362Y-61598716D01*
X146504443Y-61613810D01*
X146481800Y-61617955D01*
X146406206Y-61632653D01*
X146340353Y-61647105D01*
X146289766Y-61659975D01*
X146259974Y-61669922D01*
X146255012Y-61672887D01*
X146242826Y-61693883D01*
X146225353Y-61734567D01*
X146205977Y-61786922D01*
X146202134Y-61798200D01*
X146176739Y-61868123D01*
X146145217Y-61947018D01*
X146114369Y-62017866D01*
X146114217Y-62018195D01*
X146062847Y-62129333D01*
X146231799Y-62377853D01*
X146400752Y-62626372D01*
X146183829Y-62843658D01*
X146118219Y-62908326D01*
X146058379Y-62965333D01*
X146007667Y-63011633D01*
X145969446Y-63044184D01*
X145947075Y-63059943D01*
X145943866Y-63060943D01*
X145925026Y-63053069D01*
X145886580Y-63031178D01*
X145832730Y-62997867D01*
X145767676Y-62955731D01*
X145697340Y-62908543D01*
X145625955Y-62860410D01*
X145562308Y-62818528D01*
X145510441Y-62785471D01*
X145474395Y-62763818D01*
X145458267Y-62756143D01*
X145438589Y-62762637D01*
X145401275Y-62779750D01*
X145354021Y-62803926D01*
X145349012Y-62806613D01*
X145285377Y-62838527D01*
X145241741Y-62854179D01*
X145214602Y-62854345D01*
X145200457Y-62839804D01*
X145200375Y-62839600D01*
X145193305Y-62822379D01*
X145176442Y-62781499D01*
X145151095Y-62720125D01*
X145118571Y-62641419D01*
X145080178Y-62548547D01*
X145037222Y-62444672D01*
X144995622Y-62344102D01*
X144949904Y-62233116D01*
X144907926Y-62130303D01*
X144870948Y-62038815D01*
X144840227Y-61961801D01*
X144817022Y-61902415D01*
X144802590Y-61863809D01*
X144798143Y-61849400D01*
X144809296Y-61832872D01*
X144838469Y-61806530D01*
X144877371Y-61777487D01*
X144988157Y-61685639D01*
X145074751Y-61580359D01*
X145136116Y-61463866D01*
X145171215Y-61338376D01*
X145179008Y-61206107D01*
X145173343Y-61145057D01*
X145142478Y-61018395D01*
X145089320Y-60906541D01*
X145017167Y-60810601D01*
X144929317Y-60731676D01*
X144829065Y-60670870D01*
X144719710Y-60629287D01*
X144604547Y-60608028D01*
X144486875Y-60608199D01*
X144369990Y-60630901D01*
X144257189Y-60677238D01*
X144151769Y-60748313D01*
X144107768Y-60788511D01*
X144023379Y-60891729D01*
X143964622Y-61004525D01*
X143931104Y-61123610D01*
X143922435Y-61245695D01*
X143938223Y-61367493D01*
X143978078Y-61485716D01*
X144041607Y-61597075D01*
X144128421Y-61698284D01*
X144225429Y-61777487D01*
X144265837Y-61807762D01*
X144294382Y-61833819D01*
X144304657Y-61849425D01*
X144299277Y-61866443D01*
X144283975Y-61907100D01*
X144260012Y-61968242D01*
X144228644Y-62046719D01*
X144191132Y-62139380D01*
X144148733Y-62243072D01*
X144107063Y-62344126D01*
X144061090Y-62455207D01*
X144018507Y-62558141D01*
X143980621Y-62649765D01*
X143948740Y-62726916D01*
X143924171Y-62786431D01*
X143908220Y-62825144D01*
X143902310Y-62839600D01*
X143888348Y-62854285D01*
X143861340Y-62854242D01*
X143817813Y-62838699D01*
X143754290Y-62806884D01*
X143753788Y-62806613D01*
X143705960Y-62781923D01*
X143667297Y-62763938D01*
X143645495Y-62756214D01*
X143644533Y-62756143D01*
X143628121Y-62763978D01*
X143591887Y-62785765D01*
X143539874Y-62818928D01*
X143476125Y-62860891D01*
X143405460Y-62908543D01*
X143333516Y-62956791D01*
X143268674Y-62998751D01*
X143215135Y-63031827D01*
X143177097Y-63053421D01*
X143158933Y-63060943D01*
X143142208Y-63051057D01*
X143108580Y-63023426D01*
X143061410Y-62981095D01*
X143004058Y-62927105D01*
X142939884Y-62864499D01*
X142918897Y-62843583D01*
X142701899Y-62626223D01*
X142867068Y-62383820D01*
X142917264Y-62309381D01*
X142961319Y-62242572D01*
X142996762Y-62187265D01*
X143021119Y-62147329D01*
X143031922Y-62126636D01*
X143032238Y-62125163D01*
X143026543Y-62105658D01*
X143011226Y-62066422D01*
X142988937Y-62014030D01*
X142973293Y-61978955D01*
X142944041Y-61911801D01*
X142916494Y-61843958D01*
X142895137Y-61786634D01*
X142889335Y-61769172D01*
X142872852Y-61722538D01*
X142856740Y-61686505D01*
X142847890Y-61672887D01*
X142828360Y-61664552D01*
X142785734Y-61652737D01*
X142725545Y-61638781D01*
X142653322Y-61624022D01*
X142621000Y-61617955D01*
X142538922Y-61602873D01*
X142460195Y-61588269D01*
X142392509Y-61575580D01*
X142343560Y-61566242D01*
X142334343Y-61564439D01*
X142258143Y-61549399D01*
X142258143Y-61232092D01*
X142258314Y-61127754D01*
X142259016Y-61048813D01*
X142260534Y-60991638D01*
X142263149Y-60952599D01*
X142267146Y-60928065D01*
X142272809Y-60914405D01*
X142280420Y-60907989D01*
X142283543Y-60906799D01*
X142302378Y-60902580D01*
X142343988Y-60894162D01*
X142403030Y-60882561D01*
X142474157Y-60868795D01*
X142552025Y-60853880D01*
X142631287Y-60838832D01*
X142706598Y-60824669D01*
X142772613Y-60812406D01*
X142823987Y-60803061D01*
X142855375Y-60797650D01*
X142862359Y-60796714D01*
X142868685Y-60784196D01*
X142882690Y-60750846D01*
X142901755Y-60702977D01*
X142909034Y-60684229D01*
X142938396Y-60611795D01*
X142972971Y-60531770D01*
X143003937Y-60464328D01*
X143026723Y-60412759D01*
X143041882Y-60370385D01*
X143046942Y-60344434D01*
X143046136Y-60340956D01*
X143035441Y-60324536D01*
X143011020Y-60288017D01*
X142975495Y-60235287D01*
X142931487Y-60170235D01*
X142881617Y-60096751D01*
X142871756Y-60082245D01*
X142813892Y-59996304D01*
X142771356Y-59930861D01*
X142742454Y-59882904D01*
X142725490Y-59849420D01*
X142718767Y-59827395D01*
X142720590Y-59813817D01*
X142720636Y-59813731D01*
X142734986Y-59795897D01*
X142766723Y-59761417D01*
X142812410Y-59713868D01*
X142868604Y-59656822D01*
X142931868Y-59593855D01*
X142939002Y-59586827D01*
X143018730Y-59509620D01*
X143080257Y-59452930D01*
X143124821Y-59415710D01*
X143153657Y-59396915D01*
X143166358Y-59394489D01*
X143184894Y-59405071D01*
X143223361Y-59429516D01*
X143277786Y-59465212D01*
X143344198Y-59509547D01*
X143418625Y-59559911D01*
X143436001Y-59571760D01*
X143682697Y-59740226D01*
X143794106Y-59689662D01*
X143861857Y-59660195D01*
X143934583Y-59630559D01*
X143997103Y-59606930D01*
X143999857Y-59605958D01*
X144048760Y-59588057D01*
X144086457Y-59572920D01*
X144104825Y-59563810D01*
X144104856Y-59563784D01*
X144110685Y-59547317D01*
X144120592Y-59506819D01*
X144133595Y-59446842D01*
X144148709Y-59371940D01*
X144164952Y-59286664D01*
X144166281Y-59279475D01*
X144182575Y-59191614D01*
X144197533Y-59111860D01*
X144210191Y-59045281D01*
X144219586Y-58996947D01*
X144224754Y-58971925D01*
X144224844Y-58971543D01*
X144227989Y-58960899D01*
X144234104Y-58952862D01*
X144246853Y-58947067D01*
X144269900Y-58943147D01*
X144306909Y-58940735D01*
X144361544Y-58939465D01*
X144437467Y-58938971D01*
X144538344Y-58938886D01*
X144551400Y-58938886D01*
X144655310Y-58938948D01*
G37*
X144655310Y-58938948D02*
X144733854Y-58939378D01*
X144790698Y-58940542D01*
X144829505Y-58942807D01*
X144853938Y-58946540D01*
X144867662Y-58952106D01*
X144874340Y-58959873D01*
X144877636Y-58970205D01*
X144877956Y-58971543D01*
X144882962Y-58995679D01*
X144892229Y-59043301D01*
X144904792Y-59109341D01*
X144919687Y-59188728D01*
X144935951Y-59276396D01*
X144936519Y-59279475D01*
X144952810Y-59365389D01*
X144968052Y-59441296D01*
X144981261Y-59502645D01*
X144991454Y-59544882D01*
X144997648Y-59563455D01*
X144997943Y-59563784D01*
X145016188Y-59572853D01*
X145053805Y-59587967D01*
X145102671Y-59605862D01*
X145102943Y-59605958D01*
X145164493Y-59629093D01*
X145237057Y-59658565D01*
X145305457Y-59688197D01*
X145308694Y-59689662D01*
X145420102Y-59740226D01*
X145666799Y-59571760D01*
X145742477Y-59520403D01*
X145811031Y-59474489D01*
X145868488Y-59436630D01*
X145910876Y-59409437D01*
X145934225Y-59395521D01*
X145936442Y-59394489D01*
X145953410Y-59399084D01*
X145985101Y-59421255D01*
X146032752Y-59462047D01*
X146097598Y-59522505D01*
X146163797Y-59586827D01*
X146227614Y-59650212D01*
X146284729Y-59708051D01*
X146331705Y-59756775D01*
X146365103Y-59792810D01*
X146381485Y-59812584D01*
X146382094Y-59813602D01*
X146383905Y-59827172D01*
X146377083Y-59849333D01*
X146359940Y-59883078D01*
X146330793Y-59931400D01*
X146287955Y-59997292D01*
X146230848Y-60082117D01*
X146180166Y-60156777D01*
X146134861Y-60223740D01*
X146097550Y-60279116D01*
X146070852Y-60319020D01*
X146057385Y-60339562D01*
X146056537Y-60340956D01*
X146058181Y-60360638D01*
X146070645Y-60398893D01*
X146091448Y-60448489D01*
X146098862Y-60464328D01*
X146131214Y-60534890D01*
X146165728Y-60614953D01*
X146193765Y-60684229D01*
X146213968Y-60735645D01*
X146230015Y-60774719D01*
X146239288Y-60795141D01*
X146240441Y-60796714D01*
X146257496Y-60799321D01*
X146297698Y-60806463D01*
X146355702Y-60817123D01*
X146426163Y-60830285D01*
X146503735Y-60844933D01*
X146583072Y-60860049D01*
X146658831Y-60874618D01*
X146725664Y-60887622D01*
X146778228Y-60898045D01*
X146811176Y-60904870D01*
X146819257Y-60906799D01*
X146827605Y-60911562D01*
X146833906Y-60922318D01*
X146838445Y-60942698D01*
X146841504Y-60976334D01*
X146843367Y-61026855D01*
X146844318Y-61097892D01*
X146844640Y-61193076D01*
X146844657Y-61232092D01*
X146844657Y-61549399D01*
X146768457Y-61564439D01*
X146726063Y-61572595D01*
X146662800Y-61584499D01*
X146586362Y-61598716D01*
X146504443Y-61613810D01*
X146481800Y-61617955D01*
X146406206Y-61632653D01*
X146340353Y-61647105D01*
X146289766Y-61659975D01*
X146259974Y-61669922D01*
X146255012Y-61672887D01*
X146242826Y-61693883D01*
X146225353Y-61734567D01*
X146205977Y-61786922D01*
X146202134Y-61798200D01*
X146176739Y-61868123D01*
X146145217Y-61947018D01*
X146114369Y-62017866D01*
X146114217Y-62018195D01*
X146062847Y-62129333D01*
X146231799Y-62377853D01*
X146400752Y-62626372D01*
X146183829Y-62843658D01*
X146118219Y-62908326D01*
X146058379Y-62965333D01*
X146007667Y-63011633D01*
X145969446Y-63044184D01*
X145947075Y-63059943D01*
X145943866Y-63060943D01*
X145925026Y-63053069D01*
X145886580Y-63031178D01*
X145832730Y-62997867D01*
X145767676Y-62955731D01*
X145697340Y-62908543D01*
X145625955Y-62860410D01*
X145562308Y-62818528D01*
X145510441Y-62785471D01*
X145474395Y-62763818D01*
X145458267Y-62756143D01*
X145438589Y-62762637D01*
X145401275Y-62779750D01*
X145354021Y-62803926D01*
X145349012Y-62806613D01*
X145285377Y-62838527D01*
X145241741Y-62854179D01*
X145214602Y-62854345D01*
X145200457Y-62839804D01*
X145200375Y-62839600D01*
X145193305Y-62822379D01*
X145176442Y-62781499D01*
X145151095Y-62720125D01*
X145118571Y-62641419D01*
X145080178Y-62548547D01*
X145037222Y-62444672D01*
X144995622Y-62344102D01*
X144949904Y-62233116D01*
X144907926Y-62130303D01*
X144870948Y-62038815D01*
X144840227Y-61961801D01*
X144817022Y-61902415D01*
X144802590Y-61863809D01*
X144798143Y-61849400D01*
X144809296Y-61832872D01*
X144838469Y-61806530D01*
X144877371Y-61777487D01*
X144988157Y-61685639D01*
X145074751Y-61580359D01*
X145136116Y-61463866D01*
X145171215Y-61338376D01*
X145179008Y-61206107D01*
X145173343Y-61145057D01*
X145142478Y-61018395D01*
X145089320Y-60906541D01*
X145017167Y-60810601D01*
X144929317Y-60731676D01*
X144829065Y-60670870D01*
X144719710Y-60629287D01*
X144604547Y-60608028D01*
X144486875Y-60608199D01*
X144369990Y-60630901D01*
X144257189Y-60677238D01*
X144151769Y-60748313D01*
X144107768Y-60788511D01*
X144023379Y-60891729D01*
X143964622Y-61004525D01*
X143931104Y-61123610D01*
X143922435Y-61245695D01*
X143938223Y-61367493D01*
X143978078Y-61485716D01*
X144041607Y-61597075D01*
X144128421Y-61698284D01*
X144225429Y-61777487D01*
X144265837Y-61807762D01*
X144294382Y-61833819D01*
X144304657Y-61849425D01*
X144299277Y-61866443D01*
X144283975Y-61907100D01*
X144260012Y-61968242D01*
X144228644Y-62046719D01*
X144191132Y-62139380D01*
X144148733Y-62243072D01*
X144107063Y-62344126D01*
X144061090Y-62455207D01*
X144018507Y-62558141D01*
X143980621Y-62649765D01*
X143948740Y-62726916D01*
X143924171Y-62786431D01*
X143908220Y-62825144D01*
X143902310Y-62839600D01*
X143888348Y-62854285D01*
X143861340Y-62854242D01*
X143817813Y-62838699D01*
X143754290Y-62806884D01*
X143753788Y-62806613D01*
X143705960Y-62781923D01*
X143667297Y-62763938D01*
X143645495Y-62756214D01*
X143644533Y-62756143D01*
X143628121Y-62763978D01*
X143591887Y-62785765D01*
X143539874Y-62818928D01*
X143476125Y-62860891D01*
X143405460Y-62908543D01*
X143333516Y-62956791D01*
X143268674Y-62998751D01*
X143215135Y-63031827D01*
X143177097Y-63053421D01*
X143158933Y-63060943D01*
X143142208Y-63051057D01*
X143108580Y-63023426D01*
X143061410Y-62981095D01*
X143004058Y-62927105D01*
X142939884Y-62864499D01*
X142918897Y-62843583D01*
X142701899Y-62626223D01*
X142867068Y-62383820D01*
X142917264Y-62309381D01*
X142961319Y-62242572D01*
X142996762Y-62187265D01*
X143021119Y-62147329D01*
X143031922Y-62126636D01*
X143032238Y-62125163D01*
X143026543Y-62105658D01*
X143011226Y-62066422D01*
X142988937Y-62014030D01*
X142973293Y-61978955D01*
X142944041Y-61911801D01*
X142916494Y-61843958D01*
X142895137Y-61786634D01*
X142889335Y-61769172D01*
X142872852Y-61722538D01*
X142856740Y-61686505D01*
X142847890Y-61672887D01*
X142828360Y-61664552D01*
X142785734Y-61652737D01*
X142725545Y-61638781D01*
X142653322Y-61624022D01*
X142621000Y-61617955D01*
X142538922Y-61602873D01*
X142460195Y-61588269D01*
X142392509Y-61575580D01*
X142343560Y-61566242D01*
X142334343Y-61564439D01*
X142258143Y-61549399D01*
X142258143Y-61232092D01*
X142258314Y-61127754D01*
X142259016Y-61048813D01*
X142260534Y-60991638D01*
X142263149Y-60952599D01*
X142267146Y-60928065D01*
X142272809Y-60914405D01*
X142280420Y-60907989D01*
X142283543Y-60906799D01*
X142302378Y-60902580D01*
X142343988Y-60894162D01*
X142403030Y-60882561D01*
X142474157Y-60868795D01*
X142552025Y-60853880D01*
X142631287Y-60838832D01*
X142706598Y-60824669D01*
X142772613Y-60812406D01*
X142823987Y-60803061D01*
X142855375Y-60797650D01*
X142862359Y-60796714D01*
X142868685Y-60784196D01*
X142882690Y-60750846D01*
X142901755Y-60702977D01*
X142909034Y-60684229D01*
X142938396Y-60611795D01*
X142972971Y-60531770D01*
X143003937Y-60464328D01*
X143026723Y-60412759D01*
X143041882Y-60370385D01*
X143046942Y-60344434D01*
X143046136Y-60340956D01*
X143035441Y-60324536D01*
X143011020Y-60288017D01*
X142975495Y-60235287D01*
X142931487Y-60170235D01*
X142881617Y-60096751D01*
X142871756Y-60082245D01*
X142813892Y-59996304D01*
X142771356Y-59930861D01*
X142742454Y-59882904D01*
X142725490Y-59849420D01*
X142718767Y-59827395D01*
X142720590Y-59813817D01*
X142720636Y-59813731D01*
X142734986Y-59795897D01*
X142766723Y-59761417D01*
X142812410Y-59713868D01*
X142868604Y-59656822D01*
X142931868Y-59593855D01*
X142939002Y-59586827D01*
X143018730Y-59509620D01*
X143080257Y-59452930D01*
X143124821Y-59415710D01*
X143153657Y-59396915D01*
X143166358Y-59394489D01*
X143184894Y-59405071D01*
X143223361Y-59429516D01*
X143277786Y-59465212D01*
X143344198Y-59509547D01*
X143418625Y-59559911D01*
X143436001Y-59571760D01*
X143682697Y-59740226D01*
X143794106Y-59689662D01*
X143861857Y-59660195D01*
X143934583Y-59630559D01*
X143997103Y-59606930D01*
X143999857Y-59605958D01*
X144048760Y-59588057D01*
X144086457Y-59572920D01*
X144104825Y-59563810D01*
X144104856Y-59563784D01*
X144110685Y-59547317D01*
X144120592Y-59506819D01*
X144133595Y-59446842D01*
X144148709Y-59371940D01*
X144164952Y-59286664D01*
X144166281Y-59279475D01*
X144182575Y-59191614D01*
X144197533Y-59111860D01*
X144210191Y-59045281D01*
X144219586Y-58996947D01*
X144224754Y-58971925D01*
X144224844Y-58971543D01*
X144227989Y-58960899D01*
X144234104Y-58952862D01*
X144246853Y-58947067D01*
X144269900Y-58943147D01*
X144306909Y-58940735D01*
X144361544Y-58939465D01*
X144437467Y-58938971D01*
X144538344Y-58938886D01*
X144551400Y-58938886D01*
X144655310Y-58938948D01*
G36*
X147704995Y-63663566D02*
G01*
X147762421Y-63701097D01*
X147790119Y-63734696D01*
X147812062Y-63795664D01*
X147813805Y-63843908D01*
X147809857Y-63908416D01*
X147661086Y-63973534D01*
X147588749Y-64006802D01*
X147541484Y-64033564D01*
X147516907Y-64056744D01*
X147512637Y-64079267D01*
X147526289Y-64104055D01*
X147541343Y-64120486D01*
X147585146Y-64146835D01*
X147632789Y-64148681D01*
X147676545Y-64128146D01*
X147708689Y-64087352D01*
X147714438Y-64072947D01*
X147741976Y-64027956D01*
X147773658Y-64008782D01*
X147817114Y-63992379D01*
X147817114Y-64054566D01*
X147813272Y-64096883D01*
X147798223Y-64132569D01*
X147766680Y-64173543D01*
X147761992Y-64178867D01*
X147726906Y-64215320D01*
X147696747Y-64234883D01*
X147659015Y-64243883D01*
X147627735Y-64246830D01*
X147571785Y-64247565D01*
X147531955Y-64238260D01*
X147507108Y-64224446D01*
X147468056Y-64194067D01*
X147441025Y-64161213D01*
X147423917Y-64119894D01*
X147414638Y-64064121D01*
X147411093Y-63987905D01*
X147410810Y-63949222D01*
X147411772Y-63902847D01*
X147499407Y-63902847D01*
X147500423Y-63927726D01*
X147502956Y-63931800D01*
X147519674Y-63926265D01*
X147555649Y-63911617D01*
X147603731Y-63890790D01*
X147613786Y-63886314D01*
X147674552Y-63855414D01*
X147708032Y-63828257D01*
X147715390Y-63802820D01*
X147697791Y-63777081D01*
X147683256Y-63765709D01*
X147630810Y-63742964D01*
X147581722Y-63746722D01*
X147540627Y-63774484D01*
X147512158Y-63823752D01*
X147503031Y-63862857D01*
X147499407Y-63902847D01*
X147411772Y-63902847D01*
X147412685Y-63858849D01*
X147419596Y-63791984D01*
X147433284Y-63743295D01*
X147455496Y-63707449D01*
X147487974Y-63679113D01*
X147502133Y-63669955D01*
X147566453Y-63646107D01*
X147636873Y-63644606D01*
X147704995Y-63663566D01*
G37*
X147704995Y-63663566D02*
X147762421Y-63701097D01*
X147790119Y-63734696D01*
X147812062Y-63795664D01*
X147813805Y-63843908D01*
X147809857Y-63908416D01*
X147661086Y-63973534D01*
X147588749Y-64006802D01*
X147541484Y-64033564D01*
X147516907Y-64056744D01*
X147512637Y-64079267D01*
X147526289Y-64104055D01*
X147541343Y-64120486D01*
X147585146Y-64146835D01*
X147632789Y-64148681D01*
X147676545Y-64128146D01*
X147708689Y-64087352D01*
X147714438Y-64072947D01*
X147741976Y-64027956D01*
X147773658Y-64008782D01*
X147817114Y-63992379D01*
X147817114Y-64054566D01*
X147813272Y-64096883D01*
X147798223Y-64132569D01*
X147766680Y-64173543D01*
X147761992Y-64178867D01*
X147726906Y-64215320D01*
X147696747Y-64234883D01*
X147659015Y-64243883D01*
X147627735Y-64246830D01*
X147571785Y-64247565D01*
X147531955Y-64238260D01*
X147507108Y-64224446D01*
X147468056Y-64194067D01*
X147441025Y-64161213D01*
X147423917Y-64119894D01*
X147414638Y-64064121D01*
X147411093Y-63987905D01*
X147410810Y-63949222D01*
X147411772Y-63902847D01*
X147499407Y-63902847D01*
X147500423Y-63927726D01*
X147502956Y-63931800D01*
X147519674Y-63926265D01*
X147555649Y-63911617D01*
X147603731Y-63890790D01*
X147613786Y-63886314D01*
X147674552Y-63855414D01*
X147708032Y-63828257D01*
X147715390Y-63802820D01*
X147697791Y-63777081D01*
X147683256Y-63765709D01*
X147630810Y-63742964D01*
X147581722Y-63746722D01*
X147540627Y-63774484D01*
X147512158Y-63823752D01*
X147503031Y-63862857D01*
X147499407Y-63902847D01*
X147411772Y-63902847D01*
X147412685Y-63858849D01*
X147419596Y-63791984D01*
X147433284Y-63743295D01*
X147455496Y-63707449D01*
X147487974Y-63679113D01*
X147502133Y-63669955D01*
X147566453Y-63646107D01*
X147636873Y-63644606D01*
X147704995Y-63663566D01*
G36*
X147204000Y-63655352D02*
G01*
X147221348Y-63662934D01*
X147262756Y-63695728D01*
X147298165Y-63743147D01*
X147320064Y-63793751D01*
X147323629Y-63818698D01*
X147311679Y-63853527D01*
X147285467Y-63871957D01*
X147257364Y-63883116D01*
X147244495Y-63885172D01*
X147238229Y-63870249D01*
X147225856Y-63837775D01*
X147220428Y-63823102D01*
X147189990Y-63772344D01*
X147145920Y-63747027D01*
X147089410Y-63747806D01*
X147085225Y-63748803D01*
X147055055Y-63763107D01*
X147032876Y-63790993D01*
X147017727Y-63835887D01*
X147008650Y-63901215D01*
X147004686Y-63990404D01*
X147004314Y-64037861D01*
X147004130Y-64112671D01*
X147002922Y-64163669D01*
X146999709Y-64196071D01*
X146993509Y-64215095D01*
X146983340Y-64225956D01*
X146968219Y-64233872D01*
X146967346Y-64234270D01*
X146938228Y-64246581D01*
X146923803Y-64251114D01*
X146921586Y-64237409D01*
X146919689Y-64199525D01*
X146918247Y-64142315D01*
X146917398Y-64070627D01*
X146917229Y-64018165D01*
X146918092Y-63916647D01*
X146921470Y-63839632D01*
X146928542Y-63782623D01*
X146940488Y-63741126D01*
X146958490Y-63710643D01*
X146983727Y-63686680D01*
X147008647Y-63669955D01*
X147068571Y-63647697D01*
X147138311Y-63642676D01*
X147204000Y-63655352D01*
G37*
X147204000Y-63655352D02*
X147221348Y-63662934D01*
X147262756Y-63695728D01*
X147298165Y-63743147D01*
X147320064Y-63793751D01*
X147323629Y-63818698D01*
X147311679Y-63853527D01*
X147285467Y-63871957D01*
X147257364Y-63883116D01*
X147244495Y-63885172D01*
X147238229Y-63870249D01*
X147225856Y-63837775D01*
X147220428Y-63823102D01*
X147189990Y-63772344D01*
X147145920Y-63747027D01*
X147089410Y-63747806D01*
X147085225Y-63748803D01*
X147055055Y-63763107D01*
X147032876Y-63790993D01*
X147017727Y-63835887D01*
X147008650Y-63901215D01*
X147004686Y-63990404D01*
X147004314Y-64037861D01*
X147004130Y-64112671D01*
X147002922Y-64163669D01*
X146999709Y-64196071D01*
X146993509Y-64215095D01*
X146983340Y-64225956D01*
X146968219Y-64233872D01*
X146967346Y-64234270D01*
X146938228Y-64246581D01*
X146923803Y-64251114D01*
X146921586Y-64237409D01*
X146919689Y-64199525D01*
X146918247Y-64142315D01*
X146917398Y-64070627D01*
X146917229Y-64018165D01*
X146918092Y-63916647D01*
X146921470Y-63839632D01*
X146928542Y-63782623D01*
X146940488Y-63741126D01*
X146958490Y-63710643D01*
X146983727Y-63686680D01*
X147008647Y-63669955D01*
X147068571Y-63647697D01*
X147138311Y-63642676D01*
X147204000Y-63655352D01*
G36*
X146696276Y-63652935D02*
G01*
X146738067Y-63671944D01*
X146770869Y-63694978D01*
X146794903Y-63720733D01*
X146811497Y-63753958D01*
X146821977Y-63799400D01*
X146827671Y-63861807D01*
X146829907Y-63945927D01*
X146830143Y-64001321D01*
X146830143Y-64217426D01*
X146793174Y-64234270D01*
X146764056Y-64246581D01*
X146749631Y-64251114D01*
X146746872Y-64237625D01*
X146744682Y-64201253D01*
X146743342Y-64148142D01*
X146743057Y-64105972D01*
X146741834Y-64045047D01*
X146738536Y-63996715D01*
X146733721Y-63967118D01*
X146729896Y-63960829D01*
X146704183Y-63967252D01*
X146663818Y-63983725D01*
X146617079Y-64006058D01*
X146572245Y-64030057D01*
X146537593Y-64051530D01*
X146521402Y-64066285D01*
X146521338Y-64066445D01*
X146522730Y-64093752D01*
X146535218Y-64119819D01*
X146557143Y-64140992D01*
X146589143Y-64148074D01*
X146616492Y-64147249D01*
X146655226Y-64146642D01*
X146675558Y-64155716D01*
X146687769Y-64179692D01*
X146689309Y-64184213D01*
X146694603Y-64218406D01*
X146680447Y-64239168D01*
X146643548Y-64249062D01*
X146603689Y-64250892D01*
X146531962Y-64237327D01*
X146494832Y-64217955D01*
X146448976Y-64172445D01*
X146424656Y-64116583D01*
X146422473Y-64057557D01*
X146443029Y-64002553D01*
X146473949Y-63968086D01*
X146504820Y-63948789D01*
X146553342Y-63924359D01*
X146609885Y-63899585D01*
X146619310Y-63895799D01*
X146681419Y-63868391D01*
X146717222Y-63844234D01*
X146728737Y-63820219D01*
X146717980Y-63793235D01*
X146699514Y-63772143D01*
X146655869Y-63746172D01*
X146607846Y-63744224D01*
X146563806Y-63764237D01*
X146532109Y-63804151D01*
X146527949Y-63814448D01*
X146503727Y-63852324D01*
X146468365Y-63880442D01*
X146423743Y-63903517D01*
X146423743Y-63838085D01*
X146426369Y-63798106D01*
X146437630Y-63766597D01*
X146462599Y-63732978D01*
X146486569Y-63707084D01*
X146523841Y-63670417D01*
X146552801Y-63650721D01*
X146583905Y-63642820D01*
X146619113Y-63641514D01*
X146696276Y-63652935D01*
G37*
X146696276Y-63652935D02*
X146738067Y-63671944D01*
X146770869Y-63694978D01*
X146794903Y-63720733D01*
X146811497Y-63753958D01*
X146821977Y-63799400D01*
X146827671Y-63861807D01*
X146829907Y-63945927D01*
X146830143Y-64001321D01*
X146830143Y-64217426D01*
X146793174Y-64234270D01*
X146764056Y-64246581D01*
X146749631Y-64251114D01*
X146746872Y-64237625D01*
X146744682Y-64201253D01*
X146743342Y-64148142D01*
X146743057Y-64105972D01*
X146741834Y-64045047D01*
X146738536Y-63996715D01*
X146733721Y-63967118D01*
X146729896Y-63960829D01*
X146704183Y-63967252D01*
X146663818Y-63983725D01*
X146617079Y-64006058D01*
X146572245Y-64030057D01*
X146537593Y-64051530D01*
X146521402Y-64066285D01*
X146521338Y-64066445D01*
X146522730Y-64093752D01*
X146535218Y-64119819D01*
X146557143Y-64140992D01*
X146589143Y-64148074D01*
X146616492Y-64147249D01*
X146655226Y-64146642D01*
X146675558Y-64155716D01*
X146687769Y-64179692D01*
X146689309Y-64184213D01*
X146694603Y-64218406D01*
X146680447Y-64239168D01*
X146643548Y-64249062D01*
X146603689Y-64250892D01*
X146531962Y-64237327D01*
X146494832Y-64217955D01*
X146448976Y-64172445D01*
X146424656Y-64116583D01*
X146422473Y-64057557D01*
X146443029Y-64002553D01*
X146473949Y-63968086D01*
X146504820Y-63948789D01*
X146553342Y-63924359D01*
X146609885Y-63899585D01*
X146619310Y-63895799D01*
X146681419Y-63868391D01*
X146717222Y-63844234D01*
X146728737Y-63820219D01*
X146717980Y-63793235D01*
X146699514Y-63772143D01*
X146655869Y-63746172D01*
X146607846Y-63744224D01*
X146563806Y-63764237D01*
X146532109Y-63804151D01*
X146527949Y-63814448D01*
X146503727Y-63852324D01*
X146468365Y-63880442D01*
X146423743Y-63903517D01*
X146423743Y-63838085D01*
X146426369Y-63798106D01*
X146437630Y-63766597D01*
X146462599Y-63732978D01*
X146486569Y-63707084D01*
X146523841Y-63670417D01*
X146552801Y-63650721D01*
X146583905Y-63642820D01*
X146619113Y-63641514D01*
X146696276Y-63652935D01*
G36*
X146331233Y-63655263D02*
G01*
X146333448Y-63693450D01*
X146335184Y-63751486D01*
X146336299Y-63824780D01*
X146336657Y-63901655D01*
X146336657Y-64161796D01*
X146290726Y-64207727D01*
X146259075Y-64236029D01*
X146231290Y-64247493D01*
X146193315Y-64246768D01*
X146178240Y-64244921D01*
X146131126Y-64239548D01*
X146092156Y-64236469D01*
X146082657Y-64236185D01*
X146050633Y-64238045D01*
X146004832Y-64242714D01*
X145987074Y-64244921D01*
X145943457Y-64248335D01*
X145914145Y-64240920D01*
X145885080Y-64218027D01*
X145874588Y-64207727D01*
X145828657Y-64161796D01*
X145828657Y-63675202D01*
X145865626Y-63658358D01*
X145897459Y-63645882D01*
X145916083Y-63641514D01*
X145920858Y-63655318D01*
X145925321Y-63693886D01*
X145929175Y-63752956D01*
X145932122Y-63828263D01*
X145933543Y-63891886D01*
X145937514Y-64142257D01*
X145972159Y-64147156D01*
X146003668Y-64143731D01*
X146019108Y-64132641D01*
X146023423Y-64111908D01*
X146027108Y-64067745D01*
X146029869Y-64005746D01*
X146031412Y-63931509D01*
X146031635Y-63893306D01*
X146031857Y-63673383D01*
X146077566Y-63657449D01*
X146109918Y-63646615D01*
X146127515Y-63641562D01*
X146128023Y-63641514D01*
X146129788Y-63655248D01*
X146131729Y-63693330D01*
X146133682Y-63751082D01*
X146135484Y-63823827D01*
X146136743Y-63891886D01*
X146140714Y-64142257D01*
X146227800Y-64142257D01*
X146231796Y-63913840D01*
X146235792Y-63685422D01*
X146278247Y-63663468D01*
X146309592Y-63648393D01*
X146328144Y-63641551D01*
X146328679Y-63641514D01*
X146331233Y-63655263D01*
G37*
X146331233Y-63655263D02*
X146333448Y-63693450D01*
X146335184Y-63751486D01*
X146336299Y-63824780D01*
X146336657Y-63901655D01*
X146336657Y-64161796D01*
X146290726Y-64207727D01*
X146259075Y-64236029D01*
X146231290Y-64247493D01*
X146193315Y-64246768D01*
X146178240Y-64244921D01*
X146131126Y-64239548D01*
X146092156Y-64236469D01*
X146082657Y-64236185D01*
X146050633Y-64238045D01*
X146004832Y-64242714D01*
X145987074Y-64244921D01*
X145943457Y-64248335D01*
X145914145Y-64240920D01*
X145885080Y-64218027D01*
X145874588Y-64207727D01*
X145828657Y-64161796D01*
X145828657Y-63675202D01*
X145865626Y-63658358D01*
X145897459Y-63645882D01*
X145916083Y-63641514D01*
X145920858Y-63655318D01*
X145925321Y-63693886D01*
X145929175Y-63752956D01*
X145932122Y-63828263D01*
X145933543Y-63891886D01*
X145937514Y-64142257D01*
X145972159Y-64147156D01*
X146003668Y-64143731D01*
X146019108Y-64132641D01*
X146023423Y-64111908D01*
X146027108Y-64067745D01*
X146029869Y-64005746D01*
X146031412Y-63931509D01*
X146031635Y-63893306D01*
X146031857Y-63673383D01*
X146077566Y-63657449D01*
X146109918Y-63646615D01*
X146127515Y-63641562D01*
X146128023Y-63641514D01*
X146129788Y-63655248D01*
X146131729Y-63693330D01*
X146133682Y-63751082D01*
X146135484Y-63823827D01*
X146136743Y-63891886D01*
X146140714Y-64142257D01*
X146227800Y-64142257D01*
X146231796Y-63913840D01*
X146235792Y-63685422D01*
X146278247Y-63663468D01*
X146309592Y-63648393D01*
X146328144Y-63641551D01*
X146328679Y-63641514D01*
X146331233Y-63655263D01*
G36*
X145741517Y-63761958D02*
G01*
X145741333Y-63870437D01*
X145740619Y-63953887D01*
X145739075Y-64016304D01*
X145736401Y-64061685D01*
X145732294Y-64094029D01*
X145726455Y-64117333D01*
X145718582Y-64135595D01*
X145712621Y-64146018D01*
X145663255Y-64202545D01*
X145600664Y-64237977D01*
X145531413Y-64250690D01*
X145462068Y-64239063D01*
X145420775Y-64218168D01*
X145377425Y-64182022D01*
X145347881Y-64137876D01*
X145330055Y-64080062D01*
X145321863Y-64002913D01*
X145320702Y-63946314D01*
X145320858Y-63942247D01*
X145422257Y-63942247D01*
X145422876Y-64007150D01*
X145425714Y-64050114D01*
X145432240Y-64078222D01*
X145443923Y-64098553D01*
X145457883Y-64113888D01*
X145504765Y-64143490D01*
X145555101Y-64146019D01*
X145602676Y-64121305D01*
X145606379Y-64117956D01*
X145622183Y-64100535D01*
X145632093Y-64079809D01*
X145637458Y-64048962D01*
X145639628Y-64001177D01*
X145639971Y-63948348D01*
X145639227Y-63881981D01*
X145636148Y-63837706D01*
X145629461Y-63808609D01*
X145617896Y-63787773D01*
X145608413Y-63776707D01*
X145564360Y-63748798D01*
X145513624Y-63745443D01*
X145465196Y-63766759D01*
X145455850Y-63774673D01*
X145439940Y-63792247D01*
X145430010Y-63813187D01*
X145424678Y-63844382D01*
X145422563Y-63892722D01*
X145422257Y-63942247D01*
X145320858Y-63942247D01*
X145324210Y-63855168D01*
X145336126Y-63786686D01*
X145358535Y-63735200D01*
X145393524Y-63695043D01*
X145420775Y-63674461D01*
X145470307Y-63652225D01*
X145527716Y-63641904D01*
X145581082Y-63644667D01*
X145610943Y-63655812D01*
X145622661Y-63658983D01*
X145630437Y-63647157D01*
X145635865Y-63615466D01*
X145639971Y-63567193D01*
X145644467Y-63513429D01*
X145650713Y-63481082D01*
X145662076Y-63462585D01*
X145681928Y-63450370D01*
X145694400Y-63444962D01*
X145741571Y-63425201D01*
X145741517Y-63761958D01*
G37*
X145741517Y-63761958D02*
X145741333Y-63870437D01*
X145740619Y-63953887D01*
X145739075Y-64016304D01*
X145736401Y-64061685D01*
X145732294Y-64094029D01*
X145726455Y-64117333D01*
X145718582Y-64135595D01*
X145712621Y-64146018D01*
X145663255Y-64202545D01*
X145600664Y-64237977D01*
X145531413Y-64250690D01*
X145462068Y-64239063D01*
X145420775Y-64218168D01*
X145377425Y-64182022D01*
X145347881Y-64137876D01*
X145330055Y-64080062D01*
X145321863Y-64002913D01*
X145320702Y-63946314D01*
X145320858Y-63942247D01*
X145422257Y-63942247D01*
X145422876Y-64007150D01*
X145425714Y-64050114D01*
X145432240Y-64078222D01*
X145443923Y-64098553D01*
X145457883Y-64113888D01*
X145504765Y-64143490D01*
X145555101Y-64146019D01*
X145602676Y-64121305D01*
X145606379Y-64117956D01*
X145622183Y-64100535D01*
X145632093Y-64079809D01*
X145637458Y-64048962D01*
X145639628Y-64001177D01*
X145639971Y-63948348D01*
X145639227Y-63881981D01*
X145636148Y-63837706D01*
X145629461Y-63808609D01*
X145617896Y-63787773D01*
X145608413Y-63776707D01*
X145564360Y-63748798D01*
X145513624Y-63745443D01*
X145465196Y-63766759D01*
X145455850Y-63774673D01*
X145439940Y-63792247D01*
X145430010Y-63813187D01*
X145424678Y-63844382D01*
X145422563Y-63892722D01*
X145422257Y-63942247D01*
X145320858Y-63942247D01*
X145324210Y-63855168D01*
X145336126Y-63786686D01*
X145358535Y-63735200D01*
X145393524Y-63695043D01*
X145420775Y-63674461D01*
X145470307Y-63652225D01*
X145527716Y-63641904D01*
X145581082Y-63644667D01*
X145610943Y-63655812D01*
X145622661Y-63658983D01*
X145630437Y-63647157D01*
X145635865Y-63615466D01*
X145639971Y-63567193D01*
X145644467Y-63513429D01*
X145650713Y-63481082D01*
X145662076Y-63462585D01*
X145681928Y-63450370D01*
X145694400Y-63444962D01*
X145741571Y-63425201D01*
X145741517Y-63761958D01*
G36*
X145081326Y-63646355D02*
G01*
X145147258Y-63670684D01*
X145200673Y-63713717D01*
X145221564Y-63744009D01*
X145244339Y-63799594D01*
X145243866Y-63839786D01*
X145219962Y-63866817D01*
X145211117Y-63871413D01*
X145172930Y-63885744D01*
X145153428Y-63882072D01*
X145146822Y-63858007D01*
X145146486Y-63844714D01*
X145134392Y-63795810D01*
X145102871Y-63761599D01*
X145059059Y-63745076D01*
X145010095Y-63749234D01*
X144970294Y-63770827D01*
X144956850Y-63783144D01*
X144947321Y-63798087D01*
X144940885Y-63820675D01*
X144936717Y-63855928D01*
X144933997Y-63908866D01*
X144931902Y-63984507D01*
X144931360Y-64008457D01*
X144929381Y-64090390D01*
X144927131Y-64148055D01*
X144923757Y-64186208D01*
X144918406Y-64209604D01*
X144910224Y-64222998D01*
X144898359Y-64231145D01*
X144890762Y-64234744D01*
X144858502Y-64247052D01*
X144839511Y-64251114D01*
X144833236Y-64237548D01*
X144829406Y-64196534D01*
X144828000Y-64127599D01*
X144828998Y-64030269D01*
X144829308Y-64015257D01*
X144831501Y-63926459D01*
X144834093Y-63861619D01*
X144837782Y-63815667D01*
X144843264Y-63783535D01*
X144851235Y-63760153D01*
X144862393Y-63740452D01*
X144868230Y-63732010D01*
X144901696Y-63694657D01*
X144939127Y-63665603D01*
X144943709Y-63663067D01*
X145010826Y-63643043D01*
X145081326Y-63646355D01*
G37*
X145081326Y-63646355D02*
X145147258Y-63670684D01*
X145200673Y-63713717D01*
X145221564Y-63744009D01*
X145244339Y-63799594D01*
X145243866Y-63839786D01*
X145219962Y-63866817D01*
X145211117Y-63871413D01*
X145172930Y-63885744D01*
X145153428Y-63882072D01*
X145146822Y-63858007D01*
X145146486Y-63844714D01*
X145134392Y-63795810D01*
X145102871Y-63761599D01*
X145059059Y-63745076D01*
X145010095Y-63749234D01*
X144970294Y-63770827D01*
X144956850Y-63783144D01*
X144947321Y-63798087D01*
X144940885Y-63820675D01*
X144936717Y-63855928D01*
X144933997Y-63908866D01*
X144931902Y-63984507D01*
X144931360Y-64008457D01*
X144929381Y-64090390D01*
X144927131Y-64148055D01*
X144923757Y-64186208D01*
X144918406Y-64209604D01*
X144910224Y-64222998D01*
X144898359Y-64231145D01*
X144890762Y-64234744D01*
X144858502Y-64247052D01*
X144839511Y-64251114D01*
X144833236Y-64237548D01*
X144829406Y-64196534D01*
X144828000Y-64127599D01*
X144828998Y-64030269D01*
X144829308Y-64015257D01*
X144831501Y-63926459D01*
X144834093Y-63861619D01*
X144837782Y-63815667D01*
X144843264Y-63783535D01*
X144851235Y-63760153D01*
X144862393Y-63740452D01*
X144868230Y-63732010D01*
X144901696Y-63694657D01*
X144939127Y-63665603D01*
X144943709Y-63663067D01*
X145010826Y-63643043D01*
X145081326Y-63646355D01*
G36*
X144591144Y-63647568D02*
G01*
X144648016Y-63668687D01*
X144648667Y-63669093D01*
X144683840Y-63694980D01*
X144709807Y-63725233D01*
X144728070Y-63764658D01*
X144740132Y-63818062D01*
X144747496Y-63890251D01*
X144751664Y-63986032D01*
X144752029Y-63999678D01*
X144757276Y-64205442D01*
X144713116Y-64228278D01*
X144681163Y-64243710D01*
X144661870Y-64251023D01*
X144660978Y-64251114D01*
X144657639Y-64237622D01*
X144654987Y-64201226D01*
X144653356Y-64148052D01*
X144653000Y-64104993D01*
X144652992Y-64035241D01*
X144649803Y-63991437D01*
X144638688Y-63970544D01*
X144614901Y-63969525D01*
X144573696Y-63985341D01*
X144511486Y-64014415D01*
X144465741Y-64038563D01*
X144442213Y-64059513D01*
X144435296Y-64082347D01*
X144435286Y-64083477D01*
X144446699Y-64122812D01*
X144480492Y-64144062D01*
X144532209Y-64147139D01*
X144569461Y-64146606D01*
X144589103Y-64157335D01*
X144601352Y-64183105D01*
X144608402Y-64215937D01*
X144598242Y-64234566D01*
X144594417Y-64237232D01*
X144558401Y-64247940D01*
X144507966Y-64249456D01*
X144456026Y-64242359D01*
X144419222Y-64229388D01*
X144368338Y-64186185D01*
X144339414Y-64126046D01*
X144333686Y-64079062D01*
X144338057Y-64036682D01*
X144353875Y-64002088D01*
X144385197Y-63971363D01*
X144436078Y-63940590D01*
X144510576Y-63905852D01*
X144515114Y-63903888D01*
X144582221Y-63872887D01*
X144623632Y-63847462D01*
X144641381Y-63824614D01*
X144637507Y-63801345D01*
X144614043Y-63774656D01*
X144607027Y-63768514D01*
X144560030Y-63744700D01*
X144511333Y-63745703D01*
X144468922Y-63769051D01*
X144440784Y-63812275D01*
X144438169Y-63820760D01*
X144412708Y-63861908D01*
X144380401Y-63881728D01*
X144333686Y-63901370D01*
X144333686Y-63850550D01*
X144347896Y-63776682D01*
X144390075Y-63708927D01*
X144412024Y-63686261D01*
X144461917Y-63657169D01*
X144525367Y-63644000D01*
X144591144Y-63647568D01*
G37*
X144591144Y-63647568D02*
X144648016Y-63668687D01*
X144648667Y-63669093D01*
X144683840Y-63694980D01*
X144709807Y-63725233D01*
X144728070Y-63764658D01*
X144740132Y-63818062D01*
X144747496Y-63890251D01*
X144751664Y-63986032D01*
X144752029Y-63999678D01*
X144757276Y-64205442D01*
X144713116Y-64228278D01*
X144681163Y-64243710D01*
X144661870Y-64251023D01*
X144660978Y-64251114D01*
X144657639Y-64237622D01*
X144654987Y-64201226D01*
X144653356Y-64148052D01*
X144653000Y-64104993D01*
X144652992Y-64035241D01*
X144649803Y-63991437D01*
X144638688Y-63970544D01*
X144614901Y-63969525D01*
X144573696Y-63985341D01*
X144511486Y-64014415D01*
X144465741Y-64038563D01*
X144442213Y-64059513D01*
X144435296Y-64082347D01*
X144435286Y-64083477D01*
X144446699Y-64122812D01*
X144480492Y-64144062D01*
X144532209Y-64147139D01*
X144569461Y-64146606D01*
X144589103Y-64157335D01*
X144601352Y-64183105D01*
X144608402Y-64215937D01*
X144598242Y-64234566D01*
X144594417Y-64237232D01*
X144558401Y-64247940D01*
X144507966Y-64249456D01*
X144456026Y-64242359D01*
X144419222Y-64229388D01*
X144368338Y-64186185D01*
X144339414Y-64126046D01*
X144333686Y-64079062D01*
X144338057Y-64036682D01*
X144353875Y-64002088D01*
X144385197Y-63971363D01*
X144436078Y-63940590D01*
X144510576Y-63905852D01*
X144515114Y-63903888D01*
X144582221Y-63872887D01*
X144623632Y-63847462D01*
X144641381Y-63824614D01*
X144637507Y-63801345D01*
X144614043Y-63774656D01*
X144607027Y-63768514D01*
X144560030Y-63744700D01*
X144511333Y-63745703D01*
X144468922Y-63769051D01*
X144440784Y-63812275D01*
X144438169Y-63820760D01*
X144412708Y-63861908D01*
X144380401Y-63881728D01*
X144333686Y-63901370D01*
X144333686Y-63850550D01*
X144347896Y-63776682D01*
X144390075Y-63708927D01*
X144412024Y-63686261D01*
X144461917Y-63657169D01*
X144525367Y-63644000D01*
X144591144Y-63647568D01*
G36*
X143927286Y-63547889D02*
G01*
X143931539Y-63607213D01*
X143936425Y-63642172D01*
X143943195Y-63657420D01*
X143953102Y-63657615D01*
X143956314Y-63655795D01*
X143999044Y-63642615D01*
X144054627Y-63643385D01*
X144111137Y-63656933D01*
X144146482Y-63674461D01*
X144182721Y-63702461D01*
X144209213Y-63734149D01*
X144227399Y-63774413D01*
X144238722Y-63828143D01*
X144244622Y-63900226D01*
X144246543Y-63995551D01*
X144246577Y-64013837D01*
X144246600Y-64219246D01*
X144200891Y-64235180D01*
X144168427Y-64246020D01*
X144150615Y-64251068D01*
X144150091Y-64251114D01*
X144148337Y-64237428D01*
X144146844Y-64199676D01*
X144145726Y-64142824D01*
X144145097Y-64071834D01*
X144145000Y-64028673D01*
X144144798Y-63943573D01*
X144143758Y-63882581D01*
X144141231Y-63840777D01*
X144136564Y-63813242D01*
X144129107Y-63795056D01*
X144118211Y-63781298D01*
X144111407Y-63774673D01*
X144064672Y-63747975D01*
X144013672Y-63745975D01*
X143967401Y-63768555D01*
X143958844Y-63776707D01*
X143946293Y-63792036D01*
X143937588Y-63810218D01*
X143932031Y-63836509D01*
X143928926Y-63876162D01*
X143927576Y-63934432D01*
X143927286Y-64014773D01*
X143927286Y-64219246D01*
X143881577Y-64235180D01*
X143849113Y-64246020D01*
X143831301Y-64251068D01*
X143830777Y-64251114D01*
X143829437Y-64237223D01*
X143828228Y-64198039D01*
X143827201Y-64137300D01*
X143826402Y-64058741D01*
X143825881Y-63966098D01*
X143825686Y-63863109D01*
X143825686Y-63465942D01*
X143872857Y-63446044D01*
X143920029Y-63426147D01*
X143927286Y-63547889D01*
G37*
X143927286Y-63547889D02*
X143931539Y-63607213D01*
X143936425Y-63642172D01*
X143943195Y-63657420D01*
X143953102Y-63657615D01*
X143956314Y-63655795D01*
X143999044Y-63642615D01*
X144054627Y-63643385D01*
X144111137Y-63656933D01*
X144146482Y-63674461D01*
X144182721Y-63702461D01*
X144209213Y-63734149D01*
X144227399Y-63774413D01*
X144238722Y-63828143D01*
X144244622Y-63900226D01*
X144246543Y-63995551D01*
X144246577Y-64013837D01*
X144246600Y-64219246D01*
X144200891Y-64235180D01*
X144168427Y-64246020D01*
X144150615Y-64251068D01*
X144150091Y-64251114D01*
X144148337Y-64237428D01*
X144146844Y-64199676D01*
X144145726Y-64142824D01*
X144145097Y-64071834D01*
X144145000Y-64028673D01*
X144144798Y-63943573D01*
X144143758Y-63882581D01*
X144141231Y-63840777D01*
X144136564Y-63813242D01*
X144129107Y-63795056D01*
X144118211Y-63781298D01*
X144111407Y-63774673D01*
X144064672Y-63747975D01*
X144013672Y-63745975D01*
X143967401Y-63768555D01*
X143958844Y-63776707D01*
X143946293Y-63792036D01*
X143937588Y-63810218D01*
X143932031Y-63836509D01*
X143928926Y-63876162D01*
X143927576Y-63934432D01*
X143927286Y-64014773D01*
X143927286Y-64219246D01*
X143881577Y-64235180D01*
X143849113Y-64246020D01*
X143831301Y-64251068D01*
X143830777Y-64251114D01*
X143829437Y-64237223D01*
X143828228Y-64198039D01*
X143827201Y-64137300D01*
X143826402Y-64058741D01*
X143825881Y-63966098D01*
X143825686Y-63863109D01*
X143825686Y-63465942D01*
X143872857Y-63446044D01*
X143920029Y-63426147D01*
X143927286Y-63547889D01*
G36*
X142719703Y-63627839D02*
G01*
X142776927Y-63666335D01*
X142821149Y-63721935D01*
X142847567Y-63792686D01*
X142852910Y-63844762D01*
X142852303Y-63866493D01*
X142847222Y-63883131D01*
X142833255Y-63898037D01*
X142805989Y-63914573D01*
X142761012Y-63936098D01*
X142693911Y-63965974D01*
X142693571Y-63966124D01*
X142631807Y-63994413D01*
X142581159Y-64019533D01*
X142546804Y-64038779D01*
X142533918Y-64049448D01*
X142533914Y-64049534D01*
X142545272Y-64072766D01*
X142571831Y-64098374D01*
X142602323Y-64116821D01*
X142617770Y-64120486D01*
X142659915Y-64107812D01*
X142696208Y-64076071D01*
X142713917Y-64041172D01*
X142730952Y-64015445D01*
X142764322Y-63986146D01*
X142803549Y-63960835D01*
X142838156Y-63947071D01*
X142845393Y-63946314D01*
X142853539Y-63958760D01*
X142854030Y-63990572D01*
X142848043Y-64033466D01*
X142836757Y-64079158D01*
X142821350Y-64119361D01*
X142820571Y-64120922D01*
X142774204Y-64185662D01*
X142714111Y-64229697D01*
X142645865Y-64251311D01*
X142575038Y-64248785D01*
X142507204Y-64220404D01*
X142504188Y-64218408D01*
X142450827Y-64170048D01*
X142415740Y-64106952D01*
X142396322Y-64023987D01*
X142393716Y-64000678D01*
X142389101Y-63890655D01*
X142394633Y-63839348D01*
X142533914Y-63839348D01*
X142535724Y-63871353D01*
X142545622Y-63880693D01*
X142570298Y-63873705D01*
X142609195Y-63857187D01*
X142652675Y-63836481D01*
X142653756Y-63835933D01*
X142690609Y-63816549D01*
X142705400Y-63803613D01*
X142701753Y-63790051D01*
X142686395Y-63772232D01*
X142647323Y-63746445D01*
X142605246Y-63744550D01*
X142567503Y-63763317D01*
X142541434Y-63799515D01*
X142533914Y-63839348D01*
X142394633Y-63839348D01*
X142398594Y-63802627D01*
X142422950Y-63732812D01*
X142456856Y-63683902D01*
X142518053Y-63634478D01*
X142585463Y-63609959D01*
X142654280Y-63608397D01*
X142719703Y-63627839D01*
G37*
X142719703Y-63627839D02*
X142776927Y-63666335D01*
X142821149Y-63721935D01*
X142847567Y-63792686D01*
X142852910Y-63844762D01*
X142852303Y-63866493D01*
X142847222Y-63883131D01*
X142833255Y-63898037D01*
X142805989Y-63914573D01*
X142761012Y-63936098D01*
X142693911Y-63965974D01*
X142693571Y-63966124D01*
X142631807Y-63994413D01*
X142581159Y-64019533D01*
X142546804Y-64038779D01*
X142533918Y-64049448D01*
X142533914Y-64049534D01*
X142545272Y-64072766D01*
X142571831Y-64098374D01*
X142602323Y-64116821D01*
X142617770Y-64120486D01*
X142659915Y-64107812D01*
X142696208Y-64076071D01*
X142713917Y-64041172D01*
X142730952Y-64015445D01*
X142764322Y-63986146D01*
X142803549Y-63960835D01*
X142838156Y-63947071D01*
X142845393Y-63946314D01*
X142853539Y-63958760D01*
X142854030Y-63990572D01*
X142848043Y-64033466D01*
X142836757Y-64079158D01*
X142821350Y-64119361D01*
X142820571Y-64120922D01*
X142774204Y-64185662D01*
X142714111Y-64229697D01*
X142645865Y-64251311D01*
X142575038Y-64248785D01*
X142507204Y-64220404D01*
X142504188Y-64218408D01*
X142450827Y-64170048D01*
X142415740Y-64106952D01*
X142396322Y-64023987D01*
X142393716Y-64000678D01*
X142389101Y-63890655D01*
X142394633Y-63839348D01*
X142533914Y-63839348D01*
X142535724Y-63871353D01*
X142545622Y-63880693D01*
X142570298Y-63873705D01*
X142609195Y-63857187D01*
X142652675Y-63836481D01*
X142653756Y-63835933D01*
X142690609Y-63816549D01*
X142705400Y-63803613D01*
X142701753Y-63790051D01*
X142686395Y-63772232D01*
X142647323Y-63746445D01*
X142605246Y-63744550D01*
X142567503Y-63763317D01*
X142541434Y-63799515D01*
X142533914Y-63839348D01*
X142394633Y-63839348D01*
X142398594Y-63802627D01*
X142422950Y-63732812D01*
X142456856Y-63683902D01*
X142518053Y-63634478D01*
X142585463Y-63609959D01*
X142654280Y-63608397D01*
X142719703Y-63627839D01*
G36*
X141592515Y-63618562D02*
G01*
X141660545Y-63654333D01*
X141710751Y-63711901D01*
X141728585Y-63748912D01*
X141742463Y-63804482D01*
X141749567Y-63874696D01*
X141750240Y-63951327D01*
X141744827Y-64026152D01*
X141733670Y-64090942D01*
X141717114Y-64137473D01*
X141712026Y-64145487D01*
X141651755Y-64205307D01*
X141580169Y-64241135D01*
X141502492Y-64251620D01*
X141423948Y-64235410D01*
X141402089Y-64225692D01*
X141359522Y-64195743D01*
X141322163Y-64156033D01*
X141318632Y-64150997D01*
X141304281Y-64126724D01*
X141294794Y-64100778D01*
X141289190Y-64066622D01*
X141286486Y-64017719D01*
X141285699Y-63947535D01*
X141285686Y-63931800D01*
X141285722Y-63926792D01*
X141430829Y-63926792D01*
X141431673Y-63993030D01*
X141434996Y-64036986D01*
X141441983Y-64065379D01*
X141453816Y-64084925D01*
X141459857Y-64091457D01*
X141494586Y-64116280D01*
X141528303Y-64115148D01*
X141562395Y-64093616D01*
X141582729Y-64070629D01*
X141594771Y-64037078D01*
X141601534Y-63984169D01*
X141601998Y-63977999D01*
X141603152Y-63882113D01*
X141591088Y-63810899D01*
X141565970Y-63764794D01*
X141527960Y-63744235D01*
X141514392Y-63743114D01*
X141478764Y-63748752D01*
X141454394Y-63768286D01*
X141439493Y-63805642D01*
X141432275Y-63864750D01*
X141430829Y-63926792D01*
X141285722Y-63926792D01*
X141286226Y-63857013D01*
X141288496Y-63804759D01*
X141293468Y-63768549D01*
X141302113Y-63741899D01*
X141315405Y-63718322D01*
X141318343Y-63713938D01*
X141367713Y-63654849D01*
X141421509Y-63620547D01*
X141487002Y-63606931D01*
X141509242Y-63606265D01*
X141592515Y-63618562D01*
G37*
X141592515Y-63618562D02*
X141660545Y-63654333D01*
X141710751Y-63711901D01*
X141728585Y-63748912D01*
X141742463Y-63804482D01*
X141749567Y-63874696D01*
X141750240Y-63951327D01*
X141744827Y-64026152D01*
X141733670Y-64090942D01*
X141717114Y-64137473D01*
X141712026Y-64145487D01*
X141651755Y-64205307D01*
X141580169Y-64241135D01*
X141502492Y-64251620D01*
X141423948Y-64235410D01*
X141402089Y-64225692D01*
X141359522Y-64195743D01*
X141322163Y-64156033D01*
X141318632Y-64150997D01*
X141304281Y-64126724D01*
X141294794Y-64100778D01*
X141289190Y-64066622D01*
X141286486Y-64017719D01*
X141285699Y-63947535D01*
X141285686Y-63931800D01*
X141285722Y-63926792D01*
X141430829Y-63926792D01*
X141431673Y-63993030D01*
X141434996Y-64036986D01*
X141441983Y-64065379D01*
X141453816Y-64084925D01*
X141459857Y-64091457D01*
X141494586Y-64116280D01*
X141528303Y-64115148D01*
X141562395Y-64093616D01*
X141582729Y-64070629D01*
X141594771Y-64037078D01*
X141601534Y-63984169D01*
X141601998Y-63977999D01*
X141603152Y-63882113D01*
X141591088Y-63810899D01*
X141565970Y-63764794D01*
X141527960Y-63744235D01*
X141514392Y-63743114D01*
X141478764Y-63748752D01*
X141454394Y-63768286D01*
X141439493Y-63805642D01*
X141432275Y-63864750D01*
X141430829Y-63926792D01*
X141285722Y-63926792D01*
X141286226Y-63857013D01*
X141288496Y-63804759D01*
X141293468Y-63768549D01*
X141302113Y-63741899D01*
X141315405Y-63718322D01*
X141318343Y-63713938D01*
X141367713Y-63654849D01*
X141421509Y-63620547D01*
X141487002Y-63606931D01*
X141509242Y-63606265D01*
X141592515Y-63618562D01*
G36*
X143267493Y-63624380D02*
G01*
X143314072Y-63651323D01*
X143346457Y-63678066D01*
X143370142Y-63706084D01*
X143386459Y-63740348D01*
X143396739Y-63785827D01*
X143402314Y-63847492D01*
X143404516Y-63930311D01*
X143404771Y-63989846D01*
X143404771Y-64208991D01*
X143343086Y-64236644D01*
X143281400Y-64264297D01*
X143274143Y-64024270D01*
X143271144Y-63934628D01*
X143267998Y-63869562D01*
X143264101Y-63824626D01*
X143258847Y-63795370D01*
X143251631Y-63777348D01*
X143241850Y-63766111D01*
X143238712Y-63763679D01*
X143191161Y-63744683D01*
X143143097Y-63752200D01*
X143114486Y-63772143D01*
X143102847Y-63786275D01*
X143094791Y-63804820D01*
X143089671Y-63832934D01*
X143086841Y-63875773D01*
X143085656Y-63938495D01*
X143085457Y-64003861D01*
X143085418Y-64085868D01*
X143084014Y-64143916D01*
X143079314Y-64183065D01*
X143069387Y-64208380D01*
X143052303Y-64224923D01*
X143026132Y-64237756D01*
X142991175Y-64251091D01*
X142952996Y-64265607D01*
X142957541Y-64007989D01*
X142959371Y-63915119D01*
X142961512Y-63846489D01*
X142964581Y-63797311D01*
X142969194Y-63762798D01*
X142975968Y-63738162D01*
X142985519Y-63718616D01*
X142997034Y-63701370D01*
X143052590Y-63646280D01*
X143120380Y-63614422D01*
X143194113Y-63606791D01*
X143267493Y-63624380D01*
G37*
X143267493Y-63624380D02*
X143314072Y-63651323D01*
X143346457Y-63678066D01*
X143370142Y-63706084D01*
X143386459Y-63740348D01*
X143396739Y-63785827D01*
X143402314Y-63847492D01*
X143404516Y-63930311D01*
X143404771Y-63989846D01*
X143404771Y-64208991D01*
X143343086Y-64236644D01*
X143281400Y-64264297D01*
X143274143Y-64024270D01*
X143271144Y-63934628D01*
X143267998Y-63869562D01*
X143264101Y-63824626D01*
X143258847Y-63795370D01*
X143251631Y-63777348D01*
X143241850Y-63766111D01*
X143238712Y-63763679D01*
X143191161Y-63744683D01*
X143143097Y-63752200D01*
X143114486Y-63772143D01*
X143102847Y-63786275D01*
X143094791Y-63804820D01*
X143089671Y-63832934D01*
X143086841Y-63875773D01*
X143085656Y-63938495D01*
X143085457Y-64003861D01*
X143085418Y-64085868D01*
X143084014Y-64143916D01*
X143079314Y-64183065D01*
X143069387Y-64208380D01*
X143052303Y-64224923D01*
X143026132Y-64237756D01*
X142991175Y-64251091D01*
X142952996Y-64265607D01*
X142957541Y-64007989D01*
X142959371Y-63915119D01*
X142961512Y-63846489D01*
X142964581Y-63797311D01*
X142969194Y-63762798D01*
X142975968Y-63738162D01*
X142985519Y-63718616D01*
X142997034Y-63701370D01*
X143052590Y-63646280D01*
X143120380Y-63614422D01*
X143194113Y-63606791D01*
X143267493Y-63624380D01*
G36*
X142151144Y-63616518D02*
G01*
X142206601Y-63644168D01*
X142255548Y-63695080D01*
X142269029Y-63713938D01*
X142283714Y-63738615D01*
X142293242Y-63765416D01*
X142298693Y-63801187D01*
X142301147Y-63852769D01*
X142301686Y-63920867D01*
X142299252Y-64014188D01*
X142290794Y-64084257D01*
X142274574Y-64136531D01*
X142248854Y-64176469D01*
X142211897Y-64209529D01*
X142209182Y-64211486D01*
X142172760Y-64231508D01*
X142128902Y-64241415D01*
X142073124Y-64243857D01*
X141982448Y-64243857D01*
X141982410Y-64331883D01*
X141981566Y-64380908D01*
X141976424Y-64409665D01*
X141962987Y-64426911D01*
X141937258Y-64441408D01*
X141931079Y-64444369D01*
X141902164Y-64458248D01*
X141879776Y-64467014D01*
X141863129Y-64467771D01*
X141851436Y-64457623D01*
X141843910Y-64433673D01*
X141839766Y-64393026D01*
X141838215Y-64332786D01*
X141838471Y-64250055D01*
X141839749Y-64141939D01*
X141840148Y-64109600D01*
X141841585Y-63998124D01*
X141842872Y-63925203D01*
X141982371Y-63925203D01*
X141983155Y-63987099D01*
X141986640Y-64027597D01*
X141994524Y-64054308D01*
X142008505Y-64074844D01*
X142017997Y-64084860D01*
X142056804Y-64114167D01*
X142091163Y-64116552D01*
X142126616Y-64092350D01*
X142127514Y-64091457D01*
X142141939Y-64072753D01*
X142150713Y-64047332D01*
X142155139Y-64008184D01*
X142156518Y-63948297D01*
X142156543Y-63935030D01*
X142153212Y-63852501D01*
X142142369Y-63795291D01*
X142122740Y-63760366D01*
X142093050Y-63744694D01*
X142075891Y-63743114D01*
X142035166Y-63750526D01*
X142007232Y-63774930D01*
X141990417Y-63819580D01*
X141983050Y-63887730D01*
X141982371Y-63925203D01*
X141842872Y-63925203D01*
X141843108Y-63911845D01*
X141845077Y-63846933D01*
X141847850Y-63799558D01*
X141851788Y-63765890D01*
X141857249Y-63742098D01*
X141864592Y-63724353D01*
X141874177Y-63708824D01*
X141878287Y-63702981D01*
X141932805Y-63647785D01*
X142001736Y-63616490D01*
X142081472Y-63607765D01*
X142151144Y-63616518D01*
G37*
X142151144Y-63616518D02*
X142206601Y-63644168D01*
X142255548Y-63695080D01*
X142269029Y-63713938D01*
X142283714Y-63738615D01*
X142293242Y-63765416D01*
X142298693Y-63801187D01*
X142301147Y-63852769D01*
X142301686Y-63920867D01*
X142299252Y-64014188D01*
X142290794Y-64084257D01*
X142274574Y-64136531D01*
X142248854Y-64176469D01*
X142211897Y-64209529D01*
X142209182Y-64211486D01*
X142172760Y-64231508D01*
X142128902Y-64241415D01*
X142073124Y-64243857D01*
X141982448Y-64243857D01*
X141982410Y-64331883D01*
X141981566Y-64380908D01*
X141976424Y-64409665D01*
X141962987Y-64426911D01*
X141937258Y-64441408D01*
X141931079Y-64444369D01*
X141902164Y-64458248D01*
X141879776Y-64467014D01*
X141863129Y-64467771D01*
X141851436Y-64457623D01*
X141843910Y-64433673D01*
X141839766Y-64393026D01*
X141838215Y-64332786D01*
X141838471Y-64250055D01*
X141839749Y-64141939D01*
X141840148Y-64109600D01*
X141841585Y-63998124D01*
X141842872Y-63925203D01*
X141982371Y-63925203D01*
X141983155Y-63987099D01*
X141986640Y-64027597D01*
X141994524Y-64054308D01*
X142008505Y-64074844D01*
X142017997Y-64084860D01*
X142056804Y-64114167D01*
X142091163Y-64116552D01*
X142126616Y-64092350D01*
X142127514Y-64091457D01*
X142141939Y-64072753D01*
X142150713Y-64047332D01*
X142155139Y-64008184D01*
X142156518Y-63948297D01*
X142156543Y-63935030D01*
X142153212Y-63852501D01*
X142142369Y-63795291D01*
X142122740Y-63760366D01*
X142093050Y-63744694D01*
X142075891Y-63743114D01*
X142035166Y-63750526D01*
X142007232Y-63774930D01*
X141990417Y-63819580D01*
X141983050Y-63887730D01*
X141982371Y-63925203D01*
X141842872Y-63925203D01*
X141843108Y-63911845D01*
X141845077Y-63846933D01*
X141847850Y-63799558D01*
X141851788Y-63765890D01*
X141857249Y-63742098D01*
X141864592Y-63724353D01*
X141874177Y-63708824D01*
X141878287Y-63702981D01*
X141932805Y-63647785D01*
X142001736Y-63616490D01*
X142081472Y-63607765D01*
X142151144Y-63616518D01*
D11*
X163569400Y-63896600D02*
X161119400Y-63896600D01*
X161769400Y-67116600D02*
X163569400Y-67116600D01*
X162767778Y-61850200D02*
X162250622Y-61850200D01*
X162767778Y-63270200D02*
X162250622Y-63270200D01*
X162770078Y-59767400D02*
X162252922Y-59767400D01*
X162770078Y-61187400D02*
X162252922Y-61187400D01*
X153084600Y-71223878D02*
X153084600Y-70706722D01*
X151664600Y-71223878D02*
X151664600Y-70706722D01*
X161389322Y-82929800D02*
X161906478Y-82929800D01*
X161389322Y-81509800D02*
X161906478Y-81509800D01*
X161389322Y-80466000D02*
X161906478Y-80466000D01*
X161389322Y-79046000D02*
X161906478Y-79046000D01*
X147768000Y-69231200D02*
X149098000Y-69231200D01*
X147768000Y-70561200D02*
X147768000Y-69231200D01*
X147768000Y-71831200D02*
X150428000Y-71831200D01*
X150428000Y-71831200D02*
X150428000Y-76971200D01*
X147768000Y-71831200D02*
X147768000Y-76971200D01*
X147768000Y-76971200D02*
X150428000Y-76971200D01*
X143947400Y-86420800D02*
X156547400Y-86420800D01*
X143947400Y-81320800D02*
X143947400Y-86420800D01*
X156547400Y-81320800D02*
X143947400Y-81320800D01*
X162153600Y-68092000D02*
X158703600Y-68092000D01*
X162153600Y-68092000D02*
X164103600Y-68092000D01*
X162153600Y-78212000D02*
X160203600Y-78212000D01*
X162153600Y-78212000D02*
X164103600Y-78212000D01*
X154943200Y-74295400D02*
X152493200Y-74295400D01*
X153143200Y-77515400D02*
X154943200Y-77515400D01*
X157326000Y-57310600D02*
X157326000Y-59260600D01*
X157326000Y-61480600D02*
X157326000Y-64710600D01*
X156606000Y-66630600D02*
X155526000Y-66630600D01*
X151306000Y-66630600D02*
X150226000Y-66630600D01*
X149506000Y-61480600D02*
X149506000Y-64710600D01*
X149506000Y-57310600D02*
X149506000Y-59260600D01*
X155526000Y-66630600D02*
X155526000Y-67060600D01*
X149506000Y-57310600D02*
X157326000Y-57310600D01*
X166833500Y-78796000D02*
X164148500Y-78796000D01*
X166833500Y-80716000D02*
X166833500Y-78796000D01*
X164148500Y-80716000D02*
X166833500Y-80716000D01*
X166833500Y-81259800D02*
X164148500Y-81259800D01*
X166833500Y-83179800D02*
X166833500Y-81259800D01*
X164148500Y-83179800D02*
X166833500Y-83179800D01*
X154125452Y-79350800D02*
X153602948Y-79350800D01*
X154125452Y-80770800D02*
X153602948Y-80770800D01*
X147194748Y-80770800D02*
X147717252Y-80770800D01*
X147194748Y-79350800D02*
X147717252Y-79350800D01*
D13*
X156830733Y-68962542D02*
X156783114Y-69010161D01*
X156640257Y-69057780D01*
X156545019Y-69057780D01*
X156402161Y-69010161D01*
X156306923Y-68914923D01*
X156259304Y-68819685D01*
X156211685Y-68629209D01*
X156211685Y-68486352D01*
X156259304Y-68295876D01*
X156306923Y-68200638D01*
X156402161Y-68105400D01*
X156545019Y-68057780D01*
X156640257Y-68057780D01*
X156783114Y-68105400D01*
X156830733Y-68153019D01*
X157735495Y-68057780D02*
X157259304Y-68057780D01*
X157211685Y-68533971D01*
X157259304Y-68486352D01*
X157354542Y-68438733D01*
X157592638Y-68438733D01*
X157687876Y-68486352D01*
X157735495Y-68533971D01*
X157783114Y-68629209D01*
X157783114Y-68867304D01*
X157735495Y-68962542D01*
X157687876Y-69010161D01*
X157592638Y-69057780D01*
X157354542Y-69057780D01*
X157259304Y-69010161D01*
X157211685Y-68962542D01*
X153946266Y-73283771D02*
X153612933Y-73283771D01*
X153612933Y-73807580D02*
X153612933Y-72807580D01*
X154089123Y-72807580D01*
X154993885Y-73807580D02*
X154422457Y-73807580D01*
X154708171Y-73807580D02*
X154708171Y-72807580D01*
X154612933Y-72950438D01*
X154517695Y-73045676D01*
X154422457Y-73093295D01*
X161907495Y-62058980D02*
X161907495Y-62868504D01*
X161955114Y-62963742D01*
X162002733Y-63011361D01*
X162097971Y-63058980D01*
X162288447Y-63058980D01*
X162383685Y-63011361D01*
X162431304Y-62963742D01*
X162478923Y-62868504D01*
X162478923Y-62058980D01*
X163478923Y-63058980D02*
X162907495Y-63058980D01*
X163193209Y-63058980D02*
X163193209Y-62058980D01*
X163097971Y-62201838D01*
X163002733Y-62297076D01*
X162907495Y-62344695D01*
X165111133Y-62942742D02*
X165063514Y-62990361D01*
X164920657Y-63037980D01*
X164825419Y-63037980D01*
X164682561Y-62990361D01*
X164587323Y-62895123D01*
X164539704Y-62799885D01*
X164492085Y-62609409D01*
X164492085Y-62466552D01*
X164539704Y-62276076D01*
X164587323Y-62180838D01*
X164682561Y-62085600D01*
X164825419Y-62037980D01*
X164920657Y-62037980D01*
X165063514Y-62085600D01*
X165111133Y-62133219D01*
X165444466Y-62037980D02*
X166063514Y-62037980D01*
X165730180Y-62418933D01*
X165873038Y-62418933D01*
X165968276Y-62466552D01*
X166015895Y-62514171D01*
X166063514Y-62609409D01*
X166063514Y-62847504D01*
X166015895Y-62942742D01*
X165968276Y-62990361D01*
X165873038Y-63037980D01*
X165587323Y-63037980D01*
X165492085Y-62990361D01*
X165444466Y-62942742D01*
X165136533Y-60783742D02*
X165088914Y-60831361D01*
X164946057Y-60878980D01*
X164850819Y-60878980D01*
X164707961Y-60831361D01*
X164612723Y-60736123D01*
X164565104Y-60640885D01*
X164517485Y-60450409D01*
X164517485Y-60307552D01*
X164565104Y-60117076D01*
X164612723Y-60021838D01*
X164707961Y-59926600D01*
X164850819Y-59878980D01*
X164946057Y-59878980D01*
X165088914Y-59926600D01*
X165136533Y-59974219D01*
X165517485Y-59974219D02*
X165565104Y-59926600D01*
X165660342Y-59878980D01*
X165898438Y-59878980D01*
X165993676Y-59926600D01*
X166041295Y-59974219D01*
X166088914Y-60069457D01*
X166088914Y-60164695D01*
X166041295Y-60307552D01*
X165469866Y-60878980D01*
X166088914Y-60878980D01*
X152385733Y-68911742D02*
X152338114Y-68959361D01*
X152195257Y-69006980D01*
X152100019Y-69006980D01*
X151957161Y-68959361D01*
X151861923Y-68864123D01*
X151814304Y-68768885D01*
X151766685Y-68578409D01*
X151766685Y-68435552D01*
X151814304Y-68245076D01*
X151861923Y-68149838D01*
X151957161Y-68054600D01*
X152100019Y-68006980D01*
X152195257Y-68006980D01*
X152338114Y-68054600D01*
X152385733Y-68102219D01*
X153338114Y-69006980D02*
X152766685Y-69006980D01*
X153052400Y-69006980D02*
X153052400Y-68006980D01*
X152957161Y-68149838D01*
X152861923Y-68245076D01*
X152766685Y-68292695D01*
X158763433Y-82621380D02*
X158430100Y-82145190D01*
X158192004Y-82621380D02*
X158192004Y-81621380D01*
X158572957Y-81621380D01*
X158668195Y-81669000D01*
X158715814Y-81716619D01*
X158763433Y-81811857D01*
X158763433Y-81954714D01*
X158715814Y-82049952D01*
X158668195Y-82097571D01*
X158572957Y-82145190D01*
X158192004Y-82145190D01*
X159715814Y-82621380D02*
X159144385Y-82621380D01*
X159430100Y-82621380D02*
X159430100Y-81621380D01*
X159334861Y-81764238D01*
X159239623Y-81859476D01*
X159144385Y-81907095D01*
X158892733Y-80132180D02*
X158559400Y-79655990D01*
X158321304Y-80132180D02*
X158321304Y-79132180D01*
X158702257Y-79132180D01*
X158797495Y-79179800D01*
X158845114Y-79227419D01*
X158892733Y-79322657D01*
X158892733Y-79465514D01*
X158845114Y-79560752D01*
X158797495Y-79608371D01*
X158702257Y-79655990D01*
X158321304Y-79655990D01*
X159273685Y-79227419D02*
X159321304Y-79179800D01*
X159416542Y-79132180D01*
X159654638Y-79132180D01*
X159749876Y-79179800D01*
X159797495Y-79227419D01*
X159845114Y-79322657D01*
X159845114Y-79417895D01*
X159797495Y-79560752D01*
X159226066Y-80132180D01*
X159845114Y-80132180D01*
X148264666Y-67683580D02*
X148264666Y-68397866D01*
X148217047Y-68540723D01*
X148121809Y-68635961D01*
X147978952Y-68683580D01*
X147883714Y-68683580D01*
X148740857Y-68683580D02*
X148740857Y-67683580D01*
X149121809Y-67683580D01*
X149217047Y-67731200D01*
X149264666Y-67778819D01*
X149312285Y-67874057D01*
X149312285Y-68016914D01*
X149264666Y-68112152D01*
X149217047Y-68159771D01*
X149121809Y-68207390D01*
X148740857Y-68207390D01*
X150264666Y-68683580D02*
X149693238Y-68683580D01*
X149978952Y-68683580D02*
X149978952Y-67683580D01*
X149883714Y-67826438D01*
X149788476Y-67921676D01*
X149693238Y-67969295D01*
X150171209Y-80296990D02*
X150171209Y-80773180D01*
X149837876Y-79773180D02*
X150171209Y-80296990D01*
X150504542Y-79773180D01*
X151361685Y-80773180D02*
X150790257Y-80773180D01*
X151075971Y-80773180D02*
X151075971Y-79773180D01*
X150980733Y-79916038D01*
X150885495Y-80011276D01*
X150790257Y-80058895D01*
X161086895Y-69327780D02*
X161086895Y-70137304D01*
X161134514Y-70232542D01*
X161182133Y-70280161D01*
X161277371Y-70327780D01*
X161467847Y-70327780D01*
X161563085Y-70280161D01*
X161610704Y-70232542D01*
X161658323Y-70137304D01*
X161658323Y-69327780D01*
X162039276Y-69327780D02*
X162658323Y-69327780D01*
X162324990Y-69708733D01*
X162467847Y-69708733D01*
X162563085Y-69756352D01*
X162610704Y-69803971D01*
X162658323Y-69899209D01*
X162658323Y-70137304D01*
X162610704Y-70232542D01*
X162563085Y-70280161D01*
X162467847Y-70327780D01*
X162182133Y-70327780D01*
X162086895Y-70280161D01*
X162039276Y-70232542D01*
X156311695Y-75296780D02*
X156311695Y-76106304D01*
X156359314Y-76201542D01*
X156406933Y-76249161D01*
X156502171Y-76296780D01*
X156692647Y-76296780D01*
X156787885Y-76249161D01*
X156835504Y-76201542D01*
X156883123Y-76106304D01*
X156883123Y-75296780D01*
X157311695Y-75392019D02*
X157359314Y-75344400D01*
X157454552Y-75296780D01*
X157692647Y-75296780D01*
X157787885Y-75344400D01*
X157835504Y-75392019D01*
X157883123Y-75487257D01*
X157883123Y-75582495D01*
X157835504Y-75725352D01*
X157264076Y-76296780D01*
X157883123Y-76296780D01*
X158670666Y-62647580D02*
X158670666Y-63361866D01*
X158623047Y-63504723D01*
X158527809Y-63599961D01*
X158384952Y-63647580D01*
X158289714Y-63647580D01*
X159670666Y-63647580D02*
X159099238Y-63647580D01*
X159384952Y-63647580D02*
X159384952Y-62647580D01*
X159289714Y-62790438D01*
X159194476Y-62885676D01*
X159099238Y-62933295D01*
X161337004Y-80132180D02*
X161337004Y-79132180D01*
X161575100Y-79132180D01*
X161717957Y-79179800D01*
X161813195Y-79275038D01*
X161860814Y-79370276D01*
X161908433Y-79560752D01*
X161908433Y-79703609D01*
X161860814Y-79894085D01*
X161813195Y-79989323D01*
X161717957Y-80084561D01*
X161575100Y-80132180D01*
X161337004Y-80132180D01*
X162289385Y-79227419D02*
X162337004Y-79179800D01*
X162432242Y-79132180D01*
X162670338Y-79132180D01*
X162765576Y-79179800D01*
X162813195Y-79227419D01*
X162860814Y-79322657D01*
X162860814Y-79417895D01*
X162813195Y-79560752D01*
X162241766Y-80132180D01*
X162860814Y-80132180D01*
X161715704Y-82494380D02*
X161715704Y-81494380D01*
X161953800Y-81494380D01*
X162096657Y-81542000D01*
X162191895Y-81637238D01*
X162239514Y-81732476D01*
X162287133Y-81922952D01*
X162287133Y-82065809D01*
X162239514Y-82256285D01*
X162191895Y-82351523D01*
X162096657Y-82446761D01*
X161953800Y-82494380D01*
X161715704Y-82494380D01*
X163239514Y-82494380D02*
X162668085Y-82494380D01*
X162953800Y-82494380D02*
X162953800Y-81494380D01*
X162858561Y-81637238D01*
X162763323Y-81732476D01*
X162668085Y-81780095D01*
X156525933Y-80392542D02*
X156478314Y-80440161D01*
X156335457Y-80487780D01*
X156240219Y-80487780D01*
X156097361Y-80440161D01*
X156002123Y-80344923D01*
X155954504Y-80249685D01*
X155906885Y-80059209D01*
X155906885Y-79916352D01*
X155954504Y-79725876D01*
X156002123Y-79630638D01*
X156097361Y-79535400D01*
X156240219Y-79487780D01*
X156335457Y-79487780D01*
X156478314Y-79535400D01*
X156525933Y-79583019D01*
X157383076Y-79487780D02*
X157192600Y-79487780D01*
X157097361Y-79535400D01*
X157049742Y-79583019D01*
X156954504Y-79725876D01*
X156906885Y-79916352D01*
X156906885Y-80297304D01*
X156954504Y-80392542D01*
X157002123Y-80440161D01*
X157097361Y-80487780D01*
X157287838Y-80487780D01*
X157383076Y-80440161D01*
X157430695Y-80392542D01*
X157478314Y-80297304D01*
X157478314Y-80059209D01*
X157430695Y-79963971D01*
X157383076Y-79916352D01*
X157287838Y-79868733D01*
X157097361Y-79868733D01*
X157002123Y-79916352D01*
X156954504Y-79963971D01*
X156906885Y-80059209D01*
X147458133Y-78563742D02*
X147410514Y-78611361D01*
X147267657Y-78658980D01*
X147172419Y-78658980D01*
X147029561Y-78611361D01*
X146934323Y-78516123D01*
X146886704Y-78420885D01*
X146839085Y-78230409D01*
X146839085Y-78087552D01*
X146886704Y-77897076D01*
X146934323Y-77801838D01*
X147029561Y-77706600D01*
X147172419Y-77658980D01*
X147267657Y-77658980D01*
X147410514Y-77706600D01*
X147458133Y-77754219D01*
X148315276Y-77992314D02*
X148315276Y-78658980D01*
X148077180Y-77611361D02*
X147839085Y-78325647D01*
X148458133Y-78325647D01*
M02*
