G04 #@! TF.GenerationSoftware,KiCad,Pcbnew,5.1.5-52549c5~84~ubuntu18.04.1*
G04 #@! TF.CreationDate,2019-12-26T11:26:19+01:00*
G04 #@! TF.ProjectId,ch340-breakout,63683334-302d-4627-9265-616b6f75742e,rev?*
G04 #@! TF.SameCoordinates,Original*
G04 #@! TF.FileFunction,Copper,L2,Bot*
G04 #@! TF.FilePolarity,Positive*
%FSLAX46Y46*%
G04 Gerber Fmt 4.6, Leading zero omitted, Abs format (unit mm)*
G04 Created by KiCad (PCBNEW 5.1.5-52549c5~84~ubuntu18.04.1) date 2019-12-26 11:26:19*
%MOMM*%
%LPD*%
G04 APERTURE LIST*
%ADD10O,1.700000X1.700000*%
%ADD11R,1.700000X1.700000*%
%ADD12C,0.800000*%
%ADD13C,0.400000*%
%ADD14C,0.300000*%
%ADD15C,0.254000*%
%ADD16C,0.350000*%
G04 APERTURE END LIST*
D10*
X145288000Y-65709800D03*
X142748000Y-65709800D03*
X145288000Y-68249800D03*
X142748000Y-68249800D03*
X145288000Y-70789800D03*
X142748000Y-70789800D03*
X145288000Y-73329800D03*
X142748000Y-73329800D03*
X145288000Y-75869800D03*
D11*
X142748000Y-75869800D03*
D10*
X149098000Y-75641200D03*
X149098000Y-73101200D03*
D11*
X149098000Y-70561200D03*
D10*
X170103800Y-64439800D03*
X170103800Y-66979800D03*
X170103800Y-69519800D03*
X170103800Y-72059800D03*
X170103800Y-74599800D03*
X170103800Y-77139800D03*
X170103800Y-79679800D03*
D11*
X170103800Y-82219800D03*
D12*
X151181380Y-75760109D03*
X152374600Y-68859400D03*
X158470600Y-82092800D03*
X165252400Y-64516000D03*
X153606590Y-67953168D03*
X151155398Y-76885800D03*
X162458400Y-68732402D03*
D13*
X158470600Y-82092800D02*
X153339800Y-82092800D01*
X153339800Y-82092800D02*
X149098000Y-77851000D01*
X149098000Y-77851000D02*
X149098000Y-75107800D01*
X165252400Y-65081685D02*
X165252400Y-64516000D01*
X165252400Y-75311000D02*
X165252400Y-65081685D01*
X158470600Y-82092800D02*
X165252400Y-75311000D01*
D14*
X153606590Y-68518853D02*
X153606590Y-67953168D01*
X151155398Y-76885800D02*
X152679400Y-76885800D01*
X153606590Y-75958610D02*
X153606590Y-68518853D01*
X152679400Y-76885800D02*
X153606590Y-75958610D01*
D13*
X149936200Y-73126600D02*
X150368000Y-73126600D01*
X149796500Y-73266300D02*
X149936200Y-73126600D01*
X150825200Y-72694800D02*
X150825200Y-67335400D01*
X150393400Y-73126600D02*
X150825200Y-72694800D01*
X162458400Y-67792600D02*
X162458400Y-68021200D01*
X150825200Y-67335400D02*
X152247600Y-65913000D01*
X162458400Y-68021200D02*
X162458400Y-68732402D01*
X160578800Y-65913000D02*
X162458400Y-67792600D01*
X152247600Y-65913000D02*
X160578800Y-65913000D01*
D15*
G36*
X172094001Y-86960600D02*
G01*
X141074000Y-86960600D01*
X141074000Y-75019800D01*
X141515157Y-75019800D01*
X141515157Y-76719800D01*
X141522513Y-76794489D01*
X141544299Y-76866308D01*
X141579678Y-76932496D01*
X141627289Y-76990511D01*
X141685304Y-77038122D01*
X141751492Y-77073501D01*
X141823311Y-77095287D01*
X141898000Y-77102643D01*
X143598000Y-77102643D01*
X143672689Y-77095287D01*
X143744508Y-77073501D01*
X143810696Y-77038122D01*
X143868711Y-76990511D01*
X143916322Y-76932496D01*
X143951701Y-76866308D01*
X143973487Y-76794489D01*
X143980843Y-76719800D01*
X143980843Y-76562155D01*
X144016359Y-76636720D01*
X144190412Y-76870069D01*
X144406645Y-77064978D01*
X144656748Y-77213957D01*
X144931109Y-77311281D01*
X145161000Y-77190614D01*
X145161000Y-75996800D01*
X145415000Y-75996800D01*
X145415000Y-77190614D01*
X145644891Y-77311281D01*
X145919252Y-77213957D01*
X146169355Y-77064978D01*
X146385588Y-76870069D01*
X146559641Y-76636720D01*
X146684825Y-76373899D01*
X146729476Y-76226690D01*
X146608155Y-75996800D01*
X145415000Y-75996800D01*
X145161000Y-75996800D01*
X145141000Y-75996800D01*
X145141000Y-75742800D01*
X145161000Y-75742800D01*
X145161000Y-73456800D01*
X145415000Y-73456800D01*
X145415000Y-75742800D01*
X146608155Y-75742800D01*
X146725757Y-75519957D01*
X147867000Y-75519957D01*
X147867000Y-75762443D01*
X147914307Y-76000269D01*
X148007102Y-76224297D01*
X148141820Y-76425917D01*
X148313283Y-76597380D01*
X148514903Y-76732098D01*
X148517000Y-76732967D01*
X148517000Y-77822460D01*
X148514189Y-77851000D01*
X148517000Y-77879539D01*
X148525407Y-77964895D01*
X148558629Y-78074414D01*
X148612579Y-78175347D01*
X148685183Y-78263817D01*
X148707360Y-78282017D01*
X152908787Y-82483445D01*
X152926983Y-82505617D01*
X153015452Y-82578221D01*
X153116385Y-82632171D01*
X153225904Y-82665393D01*
X153339799Y-82676611D01*
X153368339Y-82673800D01*
X157947099Y-82673800D01*
X157972741Y-82699442D01*
X158100658Y-82784913D01*
X158242791Y-82843787D01*
X158393678Y-82873800D01*
X158547522Y-82873800D01*
X158698409Y-82843787D01*
X158840542Y-82784913D01*
X158968459Y-82699442D01*
X159077242Y-82590659D01*
X159162713Y-82462742D01*
X159221587Y-82320609D01*
X159251600Y-82169722D01*
X159251600Y-82133457D01*
X160015257Y-81369800D01*
X168870957Y-81369800D01*
X168870957Y-83069800D01*
X168878313Y-83144489D01*
X168900099Y-83216308D01*
X168935478Y-83282496D01*
X168983089Y-83340511D01*
X169041104Y-83388122D01*
X169107292Y-83423501D01*
X169179111Y-83445287D01*
X169253800Y-83452643D01*
X170953800Y-83452643D01*
X171028489Y-83445287D01*
X171100308Y-83423501D01*
X171166496Y-83388122D01*
X171224511Y-83340511D01*
X171272122Y-83282496D01*
X171307501Y-83216308D01*
X171329287Y-83144489D01*
X171336643Y-83069800D01*
X171336643Y-81369800D01*
X171329287Y-81295111D01*
X171307501Y-81223292D01*
X171272122Y-81157104D01*
X171224511Y-81099089D01*
X171166496Y-81051478D01*
X171100308Y-81016099D01*
X171028489Y-80994313D01*
X170953800Y-80986957D01*
X169253800Y-80986957D01*
X169179111Y-80994313D01*
X169107292Y-81016099D01*
X169041104Y-81051478D01*
X168983089Y-81099089D01*
X168935478Y-81157104D01*
X168900099Y-81223292D01*
X168878313Y-81295111D01*
X168870957Y-81369800D01*
X160015257Y-81369800D01*
X161826500Y-79558557D01*
X168872800Y-79558557D01*
X168872800Y-79801043D01*
X168920107Y-80038869D01*
X169012902Y-80262897D01*
X169147620Y-80464517D01*
X169319083Y-80635980D01*
X169520703Y-80770698D01*
X169744731Y-80863493D01*
X169982557Y-80910800D01*
X170225043Y-80910800D01*
X170462869Y-80863493D01*
X170686897Y-80770698D01*
X170888517Y-80635980D01*
X171059980Y-80464517D01*
X171194698Y-80262897D01*
X171287493Y-80038869D01*
X171334800Y-79801043D01*
X171334800Y-79558557D01*
X171287493Y-79320731D01*
X171194698Y-79096703D01*
X171059980Y-78895083D01*
X170888517Y-78723620D01*
X170686897Y-78588902D01*
X170462869Y-78496107D01*
X170225043Y-78448800D01*
X169982557Y-78448800D01*
X169744731Y-78496107D01*
X169520703Y-78588902D01*
X169319083Y-78723620D01*
X169147620Y-78895083D01*
X169012902Y-79096703D01*
X168920107Y-79320731D01*
X168872800Y-79558557D01*
X161826500Y-79558557D01*
X164366500Y-77018557D01*
X168872800Y-77018557D01*
X168872800Y-77261043D01*
X168920107Y-77498869D01*
X169012902Y-77722897D01*
X169147620Y-77924517D01*
X169319083Y-78095980D01*
X169520703Y-78230698D01*
X169744731Y-78323493D01*
X169982557Y-78370800D01*
X170225043Y-78370800D01*
X170462869Y-78323493D01*
X170686897Y-78230698D01*
X170888517Y-78095980D01*
X171059980Y-77924517D01*
X171194698Y-77722897D01*
X171287493Y-77498869D01*
X171334800Y-77261043D01*
X171334800Y-77018557D01*
X171287493Y-76780731D01*
X171194698Y-76556703D01*
X171059980Y-76355083D01*
X170888517Y-76183620D01*
X170686897Y-76048902D01*
X170462869Y-75956107D01*
X170225043Y-75908800D01*
X169982557Y-75908800D01*
X169744731Y-75956107D01*
X169520703Y-76048902D01*
X169319083Y-76183620D01*
X169147620Y-76355083D01*
X169012902Y-76556703D01*
X168920107Y-76780731D01*
X168872800Y-77018557D01*
X164366500Y-77018557D01*
X165643046Y-75742011D01*
X165665217Y-75723817D01*
X165737821Y-75635348D01*
X165791771Y-75534415D01*
X165824993Y-75424896D01*
X165833400Y-75339540D01*
X165833400Y-75339539D01*
X165836211Y-75311000D01*
X165833400Y-75282460D01*
X165833400Y-74478557D01*
X168872800Y-74478557D01*
X168872800Y-74721043D01*
X168920107Y-74958869D01*
X169012902Y-75182897D01*
X169147620Y-75384517D01*
X169319083Y-75555980D01*
X169520703Y-75690698D01*
X169744731Y-75783493D01*
X169982557Y-75830800D01*
X170225043Y-75830800D01*
X170462869Y-75783493D01*
X170686897Y-75690698D01*
X170888517Y-75555980D01*
X171059980Y-75384517D01*
X171194698Y-75182897D01*
X171287493Y-74958869D01*
X171334800Y-74721043D01*
X171334800Y-74478557D01*
X171287493Y-74240731D01*
X171194698Y-74016703D01*
X171059980Y-73815083D01*
X170888517Y-73643620D01*
X170686897Y-73508902D01*
X170462869Y-73416107D01*
X170225043Y-73368800D01*
X169982557Y-73368800D01*
X169744731Y-73416107D01*
X169520703Y-73508902D01*
X169319083Y-73643620D01*
X169147620Y-73815083D01*
X169012902Y-74016703D01*
X168920107Y-74240731D01*
X168872800Y-74478557D01*
X165833400Y-74478557D01*
X165833400Y-71938557D01*
X168872800Y-71938557D01*
X168872800Y-72181043D01*
X168920107Y-72418869D01*
X169012902Y-72642897D01*
X169147620Y-72844517D01*
X169319083Y-73015980D01*
X169520703Y-73150698D01*
X169744731Y-73243493D01*
X169982557Y-73290800D01*
X170225043Y-73290800D01*
X170462869Y-73243493D01*
X170686897Y-73150698D01*
X170888517Y-73015980D01*
X171059980Y-72844517D01*
X171194698Y-72642897D01*
X171287493Y-72418869D01*
X171334800Y-72181043D01*
X171334800Y-71938557D01*
X171287493Y-71700731D01*
X171194698Y-71476703D01*
X171059980Y-71275083D01*
X170888517Y-71103620D01*
X170686897Y-70968902D01*
X170462869Y-70876107D01*
X170225043Y-70828800D01*
X169982557Y-70828800D01*
X169744731Y-70876107D01*
X169520703Y-70968902D01*
X169319083Y-71103620D01*
X169147620Y-71275083D01*
X169012902Y-71476703D01*
X168920107Y-71700731D01*
X168872800Y-71938557D01*
X165833400Y-71938557D01*
X165833400Y-69398557D01*
X168872800Y-69398557D01*
X168872800Y-69641043D01*
X168920107Y-69878869D01*
X169012902Y-70102897D01*
X169147620Y-70304517D01*
X169319083Y-70475980D01*
X169520703Y-70610698D01*
X169744731Y-70703493D01*
X169982557Y-70750800D01*
X170225043Y-70750800D01*
X170462869Y-70703493D01*
X170686897Y-70610698D01*
X170888517Y-70475980D01*
X171059980Y-70304517D01*
X171194698Y-70102897D01*
X171287493Y-69878869D01*
X171334800Y-69641043D01*
X171334800Y-69398557D01*
X171287493Y-69160731D01*
X171194698Y-68936703D01*
X171059980Y-68735083D01*
X170888517Y-68563620D01*
X170686897Y-68428902D01*
X170462869Y-68336107D01*
X170225043Y-68288800D01*
X169982557Y-68288800D01*
X169744731Y-68336107D01*
X169520703Y-68428902D01*
X169319083Y-68563620D01*
X169147620Y-68735083D01*
X169012902Y-68936703D01*
X168920107Y-69160731D01*
X168872800Y-69398557D01*
X165833400Y-69398557D01*
X165833400Y-66858557D01*
X168872800Y-66858557D01*
X168872800Y-67101043D01*
X168920107Y-67338869D01*
X169012902Y-67562897D01*
X169147620Y-67764517D01*
X169319083Y-67935980D01*
X169520703Y-68070698D01*
X169744731Y-68163493D01*
X169982557Y-68210800D01*
X170225043Y-68210800D01*
X170462869Y-68163493D01*
X170686897Y-68070698D01*
X170888517Y-67935980D01*
X171059980Y-67764517D01*
X171194698Y-67562897D01*
X171287493Y-67338869D01*
X171334800Y-67101043D01*
X171334800Y-66858557D01*
X171287493Y-66620731D01*
X171194698Y-66396703D01*
X171059980Y-66195083D01*
X170888517Y-66023620D01*
X170686897Y-65888902D01*
X170462869Y-65796107D01*
X170225043Y-65748800D01*
X169982557Y-65748800D01*
X169744731Y-65796107D01*
X169520703Y-65888902D01*
X169319083Y-66023620D01*
X169147620Y-66195083D01*
X169012902Y-66396703D01*
X168920107Y-66620731D01*
X168872800Y-66858557D01*
X165833400Y-66858557D01*
X165833400Y-65039501D01*
X165859042Y-65013859D01*
X165944513Y-64885942D01*
X166003387Y-64743809D01*
X166033400Y-64592922D01*
X166033400Y-64439078D01*
X166009428Y-64318557D01*
X168872800Y-64318557D01*
X168872800Y-64561043D01*
X168920107Y-64798869D01*
X169012902Y-65022897D01*
X169147620Y-65224517D01*
X169319083Y-65395980D01*
X169520703Y-65530698D01*
X169744731Y-65623493D01*
X169982557Y-65670800D01*
X170225043Y-65670800D01*
X170462869Y-65623493D01*
X170686897Y-65530698D01*
X170888517Y-65395980D01*
X171059980Y-65224517D01*
X171194698Y-65022897D01*
X171287493Y-64798869D01*
X171334800Y-64561043D01*
X171334800Y-64318557D01*
X171287493Y-64080731D01*
X171194698Y-63856703D01*
X171059980Y-63655083D01*
X170888517Y-63483620D01*
X170686897Y-63348902D01*
X170462869Y-63256107D01*
X170225043Y-63208800D01*
X169982557Y-63208800D01*
X169744731Y-63256107D01*
X169520703Y-63348902D01*
X169319083Y-63483620D01*
X169147620Y-63655083D01*
X169012902Y-63856703D01*
X168920107Y-64080731D01*
X168872800Y-64318557D01*
X166009428Y-64318557D01*
X166003387Y-64288191D01*
X165944513Y-64146058D01*
X165859042Y-64018141D01*
X165750259Y-63909358D01*
X165622342Y-63823887D01*
X165480209Y-63765013D01*
X165329322Y-63735000D01*
X165175478Y-63735000D01*
X165024591Y-63765013D01*
X164882458Y-63823887D01*
X164754541Y-63909358D01*
X164645758Y-64018141D01*
X164560287Y-64146058D01*
X164501413Y-64288191D01*
X164471400Y-64439078D01*
X164471400Y-64592922D01*
X164501413Y-64743809D01*
X164560287Y-64885942D01*
X164645758Y-65013859D01*
X164671400Y-65039501D01*
X164671400Y-65110224D01*
X164671401Y-65110234D01*
X164671400Y-75070342D01*
X158429943Y-81311800D01*
X158393678Y-81311800D01*
X158242791Y-81341813D01*
X158100658Y-81400687D01*
X157972741Y-81486158D01*
X157947099Y-81511800D01*
X153580458Y-81511800D01*
X149679000Y-77610343D01*
X149679000Y-76808878D01*
X150374398Y-76808878D01*
X150374398Y-76962722D01*
X150404411Y-77113609D01*
X150463285Y-77255742D01*
X150548756Y-77383659D01*
X150657539Y-77492442D01*
X150785456Y-77577913D01*
X150927589Y-77636787D01*
X151078476Y-77666800D01*
X151232320Y-77666800D01*
X151383207Y-77636787D01*
X151525340Y-77577913D01*
X151653257Y-77492442D01*
X151728899Y-77416800D01*
X152653326Y-77416800D01*
X152679400Y-77419368D01*
X152705474Y-77416800D01*
X152705484Y-77416800D01*
X152783494Y-77409117D01*
X152883588Y-77378753D01*
X152975835Y-77329446D01*
X153056690Y-77263090D01*
X153073321Y-77242825D01*
X153963625Y-76352523D01*
X153983880Y-76335900D01*
X154000502Y-76315646D01*
X154000508Y-76315640D01*
X154050236Y-76255046D01*
X154099543Y-76162798D01*
X154108032Y-76134813D01*
X154129907Y-76062704D01*
X154137590Y-75984694D01*
X154137590Y-75984684D01*
X154140158Y-75958610D01*
X154137590Y-75932536D01*
X154137590Y-68526669D01*
X154213232Y-68451027D01*
X154298703Y-68323110D01*
X154357577Y-68180977D01*
X154387590Y-68030090D01*
X154387590Y-67876246D01*
X154357577Y-67725359D01*
X154298703Y-67583226D01*
X154213232Y-67455309D01*
X154104449Y-67346526D01*
X153976532Y-67261055D01*
X153834399Y-67202181D01*
X153683512Y-67172168D01*
X153529668Y-67172168D01*
X153378781Y-67202181D01*
X153236648Y-67261055D01*
X153108731Y-67346526D01*
X152999948Y-67455309D01*
X152914477Y-67583226D01*
X152855603Y-67725359D01*
X152825590Y-67876246D01*
X152825590Y-68030090D01*
X152855603Y-68180977D01*
X152914477Y-68323110D01*
X152999948Y-68451027D01*
X153075590Y-68526669D01*
X153075590Y-68544936D01*
X153075591Y-68544946D01*
X153075590Y-75738662D01*
X152459454Y-76354800D01*
X151728899Y-76354800D01*
X151653257Y-76279158D01*
X151525340Y-76193687D01*
X151383207Y-76134813D01*
X151232320Y-76104800D01*
X151078476Y-76104800D01*
X150927589Y-76134813D01*
X150785456Y-76193687D01*
X150657539Y-76279158D01*
X150548756Y-76387941D01*
X150463285Y-76515858D01*
X150404411Y-76657991D01*
X150374398Y-76808878D01*
X149679000Y-76808878D01*
X149679000Y-76732967D01*
X149681097Y-76732098D01*
X149882717Y-76597380D01*
X150054180Y-76425917D01*
X150188898Y-76224297D01*
X150281693Y-76000269D01*
X150329000Y-75762443D01*
X150329000Y-75519957D01*
X150281693Y-75282131D01*
X150188898Y-75058103D01*
X150054180Y-74856483D01*
X149882717Y-74685020D01*
X149681097Y-74550302D01*
X149457069Y-74457507D01*
X149219243Y-74410200D01*
X148976757Y-74410200D01*
X148738931Y-74457507D01*
X148514903Y-74550302D01*
X148313283Y-74685020D01*
X148141820Y-74856483D01*
X148007102Y-75058103D01*
X147914307Y-75282131D01*
X147867000Y-75519957D01*
X146725757Y-75519957D01*
X146729476Y-75512910D01*
X146684825Y-75365701D01*
X146559641Y-75102880D01*
X146385588Y-74869531D01*
X146169355Y-74674622D01*
X146043745Y-74599800D01*
X146169355Y-74524978D01*
X146385588Y-74330069D01*
X146559641Y-74096720D01*
X146684825Y-73833899D01*
X146729476Y-73686690D01*
X146608155Y-73456800D01*
X145415000Y-73456800D01*
X145161000Y-73456800D01*
X145141000Y-73456800D01*
X145141000Y-73202800D01*
X145161000Y-73202800D01*
X145161000Y-70916800D01*
X145415000Y-70916800D01*
X145415000Y-73202800D01*
X146608155Y-73202800D01*
X146729476Y-72972910D01*
X146684825Y-72825701D01*
X146559641Y-72562880D01*
X146385588Y-72329531D01*
X146169355Y-72134622D01*
X146043745Y-72059800D01*
X146169355Y-71984978D01*
X146385588Y-71790069D01*
X146559641Y-71556720D01*
X146684825Y-71293899D01*
X146729476Y-71146690D01*
X146608155Y-70916800D01*
X145415000Y-70916800D01*
X145161000Y-70916800D01*
X145141000Y-70916800D01*
X145141000Y-70662800D01*
X145161000Y-70662800D01*
X145161000Y-68376800D01*
X145415000Y-68376800D01*
X145415000Y-70662800D01*
X146608155Y-70662800D01*
X146729476Y-70432910D01*
X146684825Y-70285701D01*
X146559641Y-70022880D01*
X146385588Y-69789531D01*
X146298688Y-69711200D01*
X147865157Y-69711200D01*
X147865157Y-71411200D01*
X147872513Y-71485889D01*
X147894299Y-71557708D01*
X147929678Y-71623896D01*
X147977289Y-71681911D01*
X148035304Y-71729522D01*
X148101492Y-71764901D01*
X148173311Y-71786687D01*
X148248000Y-71794043D01*
X149948000Y-71794043D01*
X150022689Y-71786687D01*
X150094508Y-71764901D01*
X150160696Y-71729522D01*
X150218711Y-71681911D01*
X150244200Y-71650852D01*
X150244200Y-72454142D01*
X150185430Y-72512913D01*
X150054180Y-72316483D01*
X149882717Y-72145020D01*
X149681097Y-72010302D01*
X149457069Y-71917507D01*
X149219243Y-71870200D01*
X148976757Y-71870200D01*
X148738931Y-71917507D01*
X148514903Y-72010302D01*
X148313283Y-72145020D01*
X148141820Y-72316483D01*
X148007102Y-72518103D01*
X147914307Y-72742131D01*
X147867000Y-72979957D01*
X147867000Y-73222443D01*
X147914307Y-73460269D01*
X148007102Y-73684297D01*
X148141820Y-73885917D01*
X148313283Y-74057380D01*
X148514903Y-74192098D01*
X148738931Y-74284893D01*
X148976757Y-74332200D01*
X149219243Y-74332200D01*
X149457069Y-74284893D01*
X149681097Y-74192098D01*
X149882717Y-74057380D01*
X150054180Y-73885917D01*
X150171772Y-73709928D01*
X150174608Y-73707600D01*
X150364860Y-73707600D01*
X150393400Y-73710411D01*
X150507295Y-73699193D01*
X150616814Y-73665971D01*
X150717747Y-73612021D01*
X150784048Y-73557609D01*
X151215846Y-73125812D01*
X151238017Y-73107617D01*
X151310621Y-73019148D01*
X151364571Y-72918215D01*
X151397793Y-72808696D01*
X151406200Y-72723340D01*
X151406200Y-72723338D01*
X151409011Y-72694801D01*
X151406200Y-72666264D01*
X151406200Y-67576057D01*
X152488258Y-66494000D01*
X160338143Y-66494000D01*
X161877400Y-68033259D01*
X161877400Y-68208901D01*
X161851758Y-68234543D01*
X161766287Y-68362460D01*
X161707413Y-68504593D01*
X161677400Y-68655480D01*
X161677400Y-68809324D01*
X161707413Y-68960211D01*
X161766287Y-69102344D01*
X161851758Y-69230261D01*
X161960541Y-69339044D01*
X162088458Y-69424515D01*
X162230591Y-69483389D01*
X162381478Y-69513402D01*
X162535322Y-69513402D01*
X162686209Y-69483389D01*
X162828342Y-69424515D01*
X162956259Y-69339044D01*
X163065042Y-69230261D01*
X163150513Y-69102344D01*
X163209387Y-68960211D01*
X163239400Y-68809324D01*
X163239400Y-68655480D01*
X163209387Y-68504593D01*
X163150513Y-68362460D01*
X163065042Y-68234543D01*
X163039400Y-68208901D01*
X163039400Y-67821140D01*
X163042211Y-67792600D01*
X163030993Y-67678704D01*
X162997771Y-67569185D01*
X162943821Y-67468252D01*
X162889410Y-67401951D01*
X162889408Y-67401949D01*
X162871217Y-67379783D01*
X162849052Y-67361593D01*
X161009817Y-65522360D01*
X160991617Y-65500183D01*
X160903148Y-65427579D01*
X160802215Y-65373629D01*
X160692696Y-65340407D01*
X160607340Y-65332000D01*
X160578800Y-65329189D01*
X160550260Y-65332000D01*
X152276136Y-65332000D01*
X152247599Y-65329189D01*
X152219062Y-65332000D01*
X152219060Y-65332000D01*
X152133704Y-65340407D01*
X152024185Y-65373629D01*
X151923252Y-65427579D01*
X151834783Y-65500183D01*
X151816587Y-65522355D01*
X150434555Y-66904388D01*
X150412384Y-66922583D01*
X150394191Y-66944752D01*
X150339779Y-67011053D01*
X150285829Y-67111986D01*
X150252607Y-67221505D01*
X150241389Y-67335400D01*
X150244201Y-67363950D01*
X150244201Y-69471549D01*
X150218711Y-69440489D01*
X150160696Y-69392878D01*
X150094508Y-69357499D01*
X150022689Y-69335713D01*
X149948000Y-69328357D01*
X148248000Y-69328357D01*
X148173311Y-69335713D01*
X148101492Y-69357499D01*
X148035304Y-69392878D01*
X147977289Y-69440489D01*
X147929678Y-69498504D01*
X147894299Y-69564692D01*
X147872513Y-69636511D01*
X147865157Y-69711200D01*
X146298688Y-69711200D01*
X146169355Y-69594622D01*
X146043745Y-69519800D01*
X146169355Y-69444978D01*
X146385588Y-69250069D01*
X146559641Y-69016720D01*
X146684825Y-68753899D01*
X146729476Y-68606690D01*
X146608155Y-68376800D01*
X145415000Y-68376800D01*
X145161000Y-68376800D01*
X145141000Y-68376800D01*
X145141000Y-68122800D01*
X145161000Y-68122800D01*
X145161000Y-65836800D01*
X145415000Y-65836800D01*
X145415000Y-68122800D01*
X146608155Y-68122800D01*
X146729476Y-67892910D01*
X146684825Y-67745701D01*
X146559641Y-67482880D01*
X146385588Y-67249531D01*
X146169355Y-67054622D01*
X146043745Y-66979800D01*
X146169355Y-66904978D01*
X146385588Y-66710069D01*
X146559641Y-66476720D01*
X146684825Y-66213899D01*
X146729476Y-66066690D01*
X146608155Y-65836800D01*
X145415000Y-65836800D01*
X145161000Y-65836800D01*
X145141000Y-65836800D01*
X145141000Y-65582800D01*
X145161000Y-65582800D01*
X145161000Y-64388986D01*
X145415000Y-64388986D01*
X145415000Y-65582800D01*
X146608155Y-65582800D01*
X146729476Y-65352910D01*
X146684825Y-65205701D01*
X146559641Y-64942880D01*
X146385588Y-64709531D01*
X146169355Y-64514622D01*
X145919252Y-64365643D01*
X145644891Y-64268319D01*
X145415000Y-64388986D01*
X145161000Y-64388986D01*
X144931109Y-64268319D01*
X144656748Y-64365643D01*
X144406645Y-64514622D01*
X144190412Y-64709531D01*
X144016359Y-64942880D01*
X143891175Y-65205701D01*
X143882909Y-65232954D01*
X143838898Y-65126703D01*
X143704180Y-64925083D01*
X143532717Y-64753620D01*
X143331097Y-64618902D01*
X143107069Y-64526107D01*
X142869243Y-64478800D01*
X142626757Y-64478800D01*
X142388931Y-64526107D01*
X142164903Y-64618902D01*
X141963283Y-64753620D01*
X141791820Y-64925083D01*
X141657102Y-65126703D01*
X141564307Y-65350731D01*
X141517000Y-65588557D01*
X141517000Y-65831043D01*
X141564307Y-66068869D01*
X141657102Y-66292897D01*
X141791820Y-66494517D01*
X141963283Y-66665980D01*
X142164903Y-66800698D01*
X142388931Y-66893493D01*
X142626757Y-66940800D01*
X142869243Y-66940800D01*
X143107069Y-66893493D01*
X143331097Y-66800698D01*
X143532717Y-66665980D01*
X143704180Y-66494517D01*
X143838898Y-66292897D01*
X143882909Y-66186646D01*
X143891175Y-66213899D01*
X144016359Y-66476720D01*
X144190412Y-66710069D01*
X144406645Y-66904978D01*
X144532255Y-66979800D01*
X144406645Y-67054622D01*
X144190412Y-67249531D01*
X144016359Y-67482880D01*
X143891175Y-67745701D01*
X143882909Y-67772954D01*
X143838898Y-67666703D01*
X143704180Y-67465083D01*
X143532717Y-67293620D01*
X143331097Y-67158902D01*
X143107069Y-67066107D01*
X142869243Y-67018800D01*
X142626757Y-67018800D01*
X142388931Y-67066107D01*
X142164903Y-67158902D01*
X141963283Y-67293620D01*
X141791820Y-67465083D01*
X141657102Y-67666703D01*
X141564307Y-67890731D01*
X141517000Y-68128557D01*
X141517000Y-68371043D01*
X141564307Y-68608869D01*
X141657102Y-68832897D01*
X141791820Y-69034517D01*
X141963283Y-69205980D01*
X142164903Y-69340698D01*
X142388931Y-69433493D01*
X142626757Y-69480800D01*
X142869243Y-69480800D01*
X143107069Y-69433493D01*
X143331097Y-69340698D01*
X143532717Y-69205980D01*
X143704180Y-69034517D01*
X143838898Y-68832897D01*
X143882909Y-68726646D01*
X143891175Y-68753899D01*
X144016359Y-69016720D01*
X144190412Y-69250069D01*
X144406645Y-69444978D01*
X144532255Y-69519800D01*
X144406645Y-69594622D01*
X144190412Y-69789531D01*
X144016359Y-70022880D01*
X143891175Y-70285701D01*
X143882909Y-70312954D01*
X143838898Y-70206703D01*
X143704180Y-70005083D01*
X143532717Y-69833620D01*
X143331097Y-69698902D01*
X143107069Y-69606107D01*
X142869243Y-69558800D01*
X142626757Y-69558800D01*
X142388931Y-69606107D01*
X142164903Y-69698902D01*
X141963283Y-69833620D01*
X141791820Y-70005083D01*
X141657102Y-70206703D01*
X141564307Y-70430731D01*
X141517000Y-70668557D01*
X141517000Y-70911043D01*
X141564307Y-71148869D01*
X141657102Y-71372897D01*
X141791820Y-71574517D01*
X141963283Y-71745980D01*
X142164903Y-71880698D01*
X142388931Y-71973493D01*
X142626757Y-72020800D01*
X142869243Y-72020800D01*
X143107069Y-71973493D01*
X143331097Y-71880698D01*
X143532717Y-71745980D01*
X143704180Y-71574517D01*
X143838898Y-71372897D01*
X143882909Y-71266646D01*
X143891175Y-71293899D01*
X144016359Y-71556720D01*
X144190412Y-71790069D01*
X144406645Y-71984978D01*
X144532255Y-72059800D01*
X144406645Y-72134622D01*
X144190412Y-72329531D01*
X144016359Y-72562880D01*
X143891175Y-72825701D01*
X143882909Y-72852954D01*
X143838898Y-72746703D01*
X143704180Y-72545083D01*
X143532717Y-72373620D01*
X143331097Y-72238902D01*
X143107069Y-72146107D01*
X142869243Y-72098800D01*
X142626757Y-72098800D01*
X142388931Y-72146107D01*
X142164903Y-72238902D01*
X141963283Y-72373620D01*
X141791820Y-72545083D01*
X141657102Y-72746703D01*
X141564307Y-72970731D01*
X141517000Y-73208557D01*
X141517000Y-73451043D01*
X141564307Y-73688869D01*
X141657102Y-73912897D01*
X141791820Y-74114517D01*
X141963283Y-74285980D01*
X142164903Y-74420698D01*
X142388931Y-74513493D01*
X142626757Y-74560800D01*
X142869243Y-74560800D01*
X143107069Y-74513493D01*
X143331097Y-74420698D01*
X143532717Y-74285980D01*
X143704180Y-74114517D01*
X143838898Y-73912897D01*
X143882909Y-73806646D01*
X143891175Y-73833899D01*
X144016359Y-74096720D01*
X144190412Y-74330069D01*
X144406645Y-74524978D01*
X144532255Y-74599800D01*
X144406645Y-74674622D01*
X144190412Y-74869531D01*
X144016359Y-75102880D01*
X143980843Y-75177445D01*
X143980843Y-75019800D01*
X143973487Y-74945111D01*
X143951701Y-74873292D01*
X143916322Y-74807104D01*
X143868711Y-74749089D01*
X143810696Y-74701478D01*
X143744508Y-74666099D01*
X143672689Y-74644313D01*
X143598000Y-74636957D01*
X141898000Y-74636957D01*
X141823311Y-74644313D01*
X141751492Y-74666099D01*
X141685304Y-74701478D01*
X141627289Y-74749089D01*
X141579678Y-74807104D01*
X141544299Y-74873292D01*
X141522513Y-74945111D01*
X141515157Y-75019800D01*
X141074000Y-75019800D01*
X141074000Y-63133829D01*
X150335000Y-63133829D01*
X150335000Y-63307371D01*
X150368856Y-63477578D01*
X150435268Y-63637910D01*
X150531682Y-63782205D01*
X150654395Y-63904918D01*
X150798690Y-64001332D01*
X150959022Y-64067744D01*
X151129229Y-64101600D01*
X151302771Y-64101600D01*
X151472978Y-64067744D01*
X151633310Y-64001332D01*
X151777605Y-63904918D01*
X151900318Y-63782205D01*
X151996732Y-63637910D01*
X152063144Y-63477578D01*
X152097000Y-63307371D01*
X152097000Y-63133829D01*
X154735000Y-63133829D01*
X154735000Y-63307371D01*
X154768856Y-63477578D01*
X154835268Y-63637910D01*
X154931682Y-63782205D01*
X155054395Y-63904918D01*
X155198690Y-64001332D01*
X155359022Y-64067744D01*
X155529229Y-64101600D01*
X155702771Y-64101600D01*
X155872978Y-64067744D01*
X156033310Y-64001332D01*
X156177605Y-63904918D01*
X156300318Y-63782205D01*
X156396732Y-63637910D01*
X156463144Y-63477578D01*
X156497000Y-63307371D01*
X156497000Y-63133829D01*
X156463144Y-62963622D01*
X156396732Y-62803290D01*
X156300318Y-62658995D01*
X156177605Y-62536282D01*
X156033310Y-62439868D01*
X155872978Y-62373456D01*
X155702771Y-62339600D01*
X155529229Y-62339600D01*
X155359022Y-62373456D01*
X155198690Y-62439868D01*
X155054395Y-62536282D01*
X154931682Y-62658995D01*
X154835268Y-62803290D01*
X154768856Y-62963622D01*
X154735000Y-63133829D01*
X152097000Y-63133829D01*
X152063144Y-62963622D01*
X151996732Y-62803290D01*
X151900318Y-62658995D01*
X151777605Y-62536282D01*
X151633310Y-62439868D01*
X151472978Y-62373456D01*
X151302771Y-62339600D01*
X151129229Y-62339600D01*
X150959022Y-62373456D01*
X150798690Y-62439868D01*
X150654395Y-62536282D01*
X150531682Y-62658995D01*
X150435268Y-62803290D01*
X150368856Y-62963622D01*
X150335000Y-63133829D01*
X141074000Y-63133829D01*
X141074000Y-58826000D01*
X172094000Y-58826000D01*
X172094001Y-86960600D01*
G37*
X172094001Y-86960600D02*
X141074000Y-86960600D01*
X141074000Y-75019800D01*
X141515157Y-75019800D01*
X141515157Y-76719800D01*
X141522513Y-76794489D01*
X141544299Y-76866308D01*
X141579678Y-76932496D01*
X141627289Y-76990511D01*
X141685304Y-77038122D01*
X141751492Y-77073501D01*
X141823311Y-77095287D01*
X141898000Y-77102643D01*
X143598000Y-77102643D01*
X143672689Y-77095287D01*
X143744508Y-77073501D01*
X143810696Y-77038122D01*
X143868711Y-76990511D01*
X143916322Y-76932496D01*
X143951701Y-76866308D01*
X143973487Y-76794489D01*
X143980843Y-76719800D01*
X143980843Y-76562155D01*
X144016359Y-76636720D01*
X144190412Y-76870069D01*
X144406645Y-77064978D01*
X144656748Y-77213957D01*
X144931109Y-77311281D01*
X145161000Y-77190614D01*
X145161000Y-75996800D01*
X145415000Y-75996800D01*
X145415000Y-77190614D01*
X145644891Y-77311281D01*
X145919252Y-77213957D01*
X146169355Y-77064978D01*
X146385588Y-76870069D01*
X146559641Y-76636720D01*
X146684825Y-76373899D01*
X146729476Y-76226690D01*
X146608155Y-75996800D01*
X145415000Y-75996800D01*
X145161000Y-75996800D01*
X145141000Y-75996800D01*
X145141000Y-75742800D01*
X145161000Y-75742800D01*
X145161000Y-73456800D01*
X145415000Y-73456800D01*
X145415000Y-75742800D01*
X146608155Y-75742800D01*
X146725757Y-75519957D01*
X147867000Y-75519957D01*
X147867000Y-75762443D01*
X147914307Y-76000269D01*
X148007102Y-76224297D01*
X148141820Y-76425917D01*
X148313283Y-76597380D01*
X148514903Y-76732098D01*
X148517000Y-76732967D01*
X148517000Y-77822460D01*
X148514189Y-77851000D01*
X148517000Y-77879539D01*
X148525407Y-77964895D01*
X148558629Y-78074414D01*
X148612579Y-78175347D01*
X148685183Y-78263817D01*
X148707360Y-78282017D01*
X152908787Y-82483445D01*
X152926983Y-82505617D01*
X153015452Y-82578221D01*
X153116385Y-82632171D01*
X153225904Y-82665393D01*
X153339799Y-82676611D01*
X153368339Y-82673800D01*
X157947099Y-82673800D01*
X157972741Y-82699442D01*
X158100658Y-82784913D01*
X158242791Y-82843787D01*
X158393678Y-82873800D01*
X158547522Y-82873800D01*
X158698409Y-82843787D01*
X158840542Y-82784913D01*
X158968459Y-82699442D01*
X159077242Y-82590659D01*
X159162713Y-82462742D01*
X159221587Y-82320609D01*
X159251600Y-82169722D01*
X159251600Y-82133457D01*
X160015257Y-81369800D01*
X168870957Y-81369800D01*
X168870957Y-83069800D01*
X168878313Y-83144489D01*
X168900099Y-83216308D01*
X168935478Y-83282496D01*
X168983089Y-83340511D01*
X169041104Y-83388122D01*
X169107292Y-83423501D01*
X169179111Y-83445287D01*
X169253800Y-83452643D01*
X170953800Y-83452643D01*
X171028489Y-83445287D01*
X171100308Y-83423501D01*
X171166496Y-83388122D01*
X171224511Y-83340511D01*
X171272122Y-83282496D01*
X171307501Y-83216308D01*
X171329287Y-83144489D01*
X171336643Y-83069800D01*
X171336643Y-81369800D01*
X171329287Y-81295111D01*
X171307501Y-81223292D01*
X171272122Y-81157104D01*
X171224511Y-81099089D01*
X171166496Y-81051478D01*
X171100308Y-81016099D01*
X171028489Y-80994313D01*
X170953800Y-80986957D01*
X169253800Y-80986957D01*
X169179111Y-80994313D01*
X169107292Y-81016099D01*
X169041104Y-81051478D01*
X168983089Y-81099089D01*
X168935478Y-81157104D01*
X168900099Y-81223292D01*
X168878313Y-81295111D01*
X168870957Y-81369800D01*
X160015257Y-81369800D01*
X161826500Y-79558557D01*
X168872800Y-79558557D01*
X168872800Y-79801043D01*
X168920107Y-80038869D01*
X169012902Y-80262897D01*
X169147620Y-80464517D01*
X169319083Y-80635980D01*
X169520703Y-80770698D01*
X169744731Y-80863493D01*
X169982557Y-80910800D01*
X170225043Y-80910800D01*
X170462869Y-80863493D01*
X170686897Y-80770698D01*
X170888517Y-80635980D01*
X171059980Y-80464517D01*
X171194698Y-80262897D01*
X171287493Y-80038869D01*
X171334800Y-79801043D01*
X171334800Y-79558557D01*
X171287493Y-79320731D01*
X171194698Y-79096703D01*
X171059980Y-78895083D01*
X170888517Y-78723620D01*
X170686897Y-78588902D01*
X170462869Y-78496107D01*
X170225043Y-78448800D01*
X169982557Y-78448800D01*
X169744731Y-78496107D01*
X169520703Y-78588902D01*
X169319083Y-78723620D01*
X169147620Y-78895083D01*
X169012902Y-79096703D01*
X168920107Y-79320731D01*
X168872800Y-79558557D01*
X161826500Y-79558557D01*
X164366500Y-77018557D01*
X168872800Y-77018557D01*
X168872800Y-77261043D01*
X168920107Y-77498869D01*
X169012902Y-77722897D01*
X169147620Y-77924517D01*
X169319083Y-78095980D01*
X169520703Y-78230698D01*
X169744731Y-78323493D01*
X169982557Y-78370800D01*
X170225043Y-78370800D01*
X170462869Y-78323493D01*
X170686897Y-78230698D01*
X170888517Y-78095980D01*
X171059980Y-77924517D01*
X171194698Y-77722897D01*
X171287493Y-77498869D01*
X171334800Y-77261043D01*
X171334800Y-77018557D01*
X171287493Y-76780731D01*
X171194698Y-76556703D01*
X171059980Y-76355083D01*
X170888517Y-76183620D01*
X170686897Y-76048902D01*
X170462869Y-75956107D01*
X170225043Y-75908800D01*
X169982557Y-75908800D01*
X169744731Y-75956107D01*
X169520703Y-76048902D01*
X169319083Y-76183620D01*
X169147620Y-76355083D01*
X169012902Y-76556703D01*
X168920107Y-76780731D01*
X168872800Y-77018557D01*
X164366500Y-77018557D01*
X165643046Y-75742011D01*
X165665217Y-75723817D01*
X165737821Y-75635348D01*
X165791771Y-75534415D01*
X165824993Y-75424896D01*
X165833400Y-75339540D01*
X165833400Y-75339539D01*
X165836211Y-75311000D01*
X165833400Y-75282460D01*
X165833400Y-74478557D01*
X168872800Y-74478557D01*
X168872800Y-74721043D01*
X168920107Y-74958869D01*
X169012902Y-75182897D01*
X169147620Y-75384517D01*
X169319083Y-75555980D01*
X169520703Y-75690698D01*
X169744731Y-75783493D01*
X169982557Y-75830800D01*
X170225043Y-75830800D01*
X170462869Y-75783493D01*
X170686897Y-75690698D01*
X170888517Y-75555980D01*
X171059980Y-75384517D01*
X171194698Y-75182897D01*
X171287493Y-74958869D01*
X171334800Y-74721043D01*
X171334800Y-74478557D01*
X171287493Y-74240731D01*
X171194698Y-74016703D01*
X171059980Y-73815083D01*
X170888517Y-73643620D01*
X170686897Y-73508902D01*
X170462869Y-73416107D01*
X170225043Y-73368800D01*
X169982557Y-73368800D01*
X169744731Y-73416107D01*
X169520703Y-73508902D01*
X169319083Y-73643620D01*
X169147620Y-73815083D01*
X169012902Y-74016703D01*
X168920107Y-74240731D01*
X168872800Y-74478557D01*
X165833400Y-74478557D01*
X165833400Y-71938557D01*
X168872800Y-71938557D01*
X168872800Y-72181043D01*
X168920107Y-72418869D01*
X169012902Y-72642897D01*
X169147620Y-72844517D01*
X169319083Y-73015980D01*
X169520703Y-73150698D01*
X169744731Y-73243493D01*
X169982557Y-73290800D01*
X170225043Y-73290800D01*
X170462869Y-73243493D01*
X170686897Y-73150698D01*
X170888517Y-73015980D01*
X171059980Y-72844517D01*
X171194698Y-72642897D01*
X171287493Y-72418869D01*
X171334800Y-72181043D01*
X171334800Y-71938557D01*
X171287493Y-71700731D01*
X171194698Y-71476703D01*
X171059980Y-71275083D01*
X170888517Y-71103620D01*
X170686897Y-70968902D01*
X170462869Y-70876107D01*
X170225043Y-70828800D01*
X169982557Y-70828800D01*
X169744731Y-70876107D01*
X169520703Y-70968902D01*
X169319083Y-71103620D01*
X169147620Y-71275083D01*
X169012902Y-71476703D01*
X168920107Y-71700731D01*
X168872800Y-71938557D01*
X165833400Y-71938557D01*
X165833400Y-69398557D01*
X168872800Y-69398557D01*
X168872800Y-69641043D01*
X168920107Y-69878869D01*
X169012902Y-70102897D01*
X169147620Y-70304517D01*
X169319083Y-70475980D01*
X169520703Y-70610698D01*
X169744731Y-70703493D01*
X169982557Y-70750800D01*
X170225043Y-70750800D01*
X170462869Y-70703493D01*
X170686897Y-70610698D01*
X170888517Y-70475980D01*
X171059980Y-70304517D01*
X171194698Y-70102897D01*
X171287493Y-69878869D01*
X171334800Y-69641043D01*
X171334800Y-69398557D01*
X171287493Y-69160731D01*
X171194698Y-68936703D01*
X171059980Y-68735083D01*
X170888517Y-68563620D01*
X170686897Y-68428902D01*
X170462869Y-68336107D01*
X170225043Y-68288800D01*
X169982557Y-68288800D01*
X169744731Y-68336107D01*
X169520703Y-68428902D01*
X169319083Y-68563620D01*
X169147620Y-68735083D01*
X169012902Y-68936703D01*
X168920107Y-69160731D01*
X168872800Y-69398557D01*
X165833400Y-69398557D01*
X165833400Y-66858557D01*
X168872800Y-66858557D01*
X168872800Y-67101043D01*
X168920107Y-67338869D01*
X169012902Y-67562897D01*
X169147620Y-67764517D01*
X169319083Y-67935980D01*
X169520703Y-68070698D01*
X169744731Y-68163493D01*
X169982557Y-68210800D01*
X170225043Y-68210800D01*
X170462869Y-68163493D01*
X170686897Y-68070698D01*
X170888517Y-67935980D01*
X171059980Y-67764517D01*
X171194698Y-67562897D01*
X171287493Y-67338869D01*
X171334800Y-67101043D01*
X171334800Y-66858557D01*
X171287493Y-66620731D01*
X171194698Y-66396703D01*
X171059980Y-66195083D01*
X170888517Y-66023620D01*
X170686897Y-65888902D01*
X170462869Y-65796107D01*
X170225043Y-65748800D01*
X169982557Y-65748800D01*
X169744731Y-65796107D01*
X169520703Y-65888902D01*
X169319083Y-66023620D01*
X169147620Y-66195083D01*
X169012902Y-66396703D01*
X168920107Y-66620731D01*
X168872800Y-66858557D01*
X165833400Y-66858557D01*
X165833400Y-65039501D01*
X165859042Y-65013859D01*
X165944513Y-64885942D01*
X166003387Y-64743809D01*
X166033400Y-64592922D01*
X166033400Y-64439078D01*
X166009428Y-64318557D01*
X168872800Y-64318557D01*
X168872800Y-64561043D01*
X168920107Y-64798869D01*
X169012902Y-65022897D01*
X169147620Y-65224517D01*
X169319083Y-65395980D01*
X169520703Y-65530698D01*
X169744731Y-65623493D01*
X169982557Y-65670800D01*
X170225043Y-65670800D01*
X170462869Y-65623493D01*
X170686897Y-65530698D01*
X170888517Y-65395980D01*
X171059980Y-65224517D01*
X171194698Y-65022897D01*
X171287493Y-64798869D01*
X171334800Y-64561043D01*
X171334800Y-64318557D01*
X171287493Y-64080731D01*
X171194698Y-63856703D01*
X171059980Y-63655083D01*
X170888517Y-63483620D01*
X170686897Y-63348902D01*
X170462869Y-63256107D01*
X170225043Y-63208800D01*
X169982557Y-63208800D01*
X169744731Y-63256107D01*
X169520703Y-63348902D01*
X169319083Y-63483620D01*
X169147620Y-63655083D01*
X169012902Y-63856703D01*
X168920107Y-64080731D01*
X168872800Y-64318557D01*
X166009428Y-64318557D01*
X166003387Y-64288191D01*
X165944513Y-64146058D01*
X165859042Y-64018141D01*
X165750259Y-63909358D01*
X165622342Y-63823887D01*
X165480209Y-63765013D01*
X165329322Y-63735000D01*
X165175478Y-63735000D01*
X165024591Y-63765013D01*
X164882458Y-63823887D01*
X164754541Y-63909358D01*
X164645758Y-64018141D01*
X164560287Y-64146058D01*
X164501413Y-64288191D01*
X164471400Y-64439078D01*
X164471400Y-64592922D01*
X164501413Y-64743809D01*
X164560287Y-64885942D01*
X164645758Y-65013859D01*
X164671400Y-65039501D01*
X164671400Y-65110224D01*
X164671401Y-65110234D01*
X164671400Y-75070342D01*
X158429943Y-81311800D01*
X158393678Y-81311800D01*
X158242791Y-81341813D01*
X158100658Y-81400687D01*
X157972741Y-81486158D01*
X157947099Y-81511800D01*
X153580458Y-81511800D01*
X149679000Y-77610343D01*
X149679000Y-76808878D01*
X150374398Y-76808878D01*
X150374398Y-76962722D01*
X150404411Y-77113609D01*
X150463285Y-77255742D01*
X150548756Y-77383659D01*
X150657539Y-77492442D01*
X150785456Y-77577913D01*
X150927589Y-77636787D01*
X151078476Y-77666800D01*
X151232320Y-77666800D01*
X151383207Y-77636787D01*
X151525340Y-77577913D01*
X151653257Y-77492442D01*
X151728899Y-77416800D01*
X152653326Y-77416800D01*
X152679400Y-77419368D01*
X152705474Y-77416800D01*
X152705484Y-77416800D01*
X152783494Y-77409117D01*
X152883588Y-77378753D01*
X152975835Y-77329446D01*
X153056690Y-77263090D01*
X153073321Y-77242825D01*
X153963625Y-76352523D01*
X153983880Y-76335900D01*
X154000502Y-76315646D01*
X154000508Y-76315640D01*
X154050236Y-76255046D01*
X154099543Y-76162798D01*
X154108032Y-76134813D01*
X154129907Y-76062704D01*
X154137590Y-75984694D01*
X154137590Y-75984684D01*
X154140158Y-75958610D01*
X154137590Y-75932536D01*
X154137590Y-68526669D01*
X154213232Y-68451027D01*
X154298703Y-68323110D01*
X154357577Y-68180977D01*
X154387590Y-68030090D01*
X154387590Y-67876246D01*
X154357577Y-67725359D01*
X154298703Y-67583226D01*
X154213232Y-67455309D01*
X154104449Y-67346526D01*
X153976532Y-67261055D01*
X153834399Y-67202181D01*
X153683512Y-67172168D01*
X153529668Y-67172168D01*
X153378781Y-67202181D01*
X153236648Y-67261055D01*
X153108731Y-67346526D01*
X152999948Y-67455309D01*
X152914477Y-67583226D01*
X152855603Y-67725359D01*
X152825590Y-67876246D01*
X152825590Y-68030090D01*
X152855603Y-68180977D01*
X152914477Y-68323110D01*
X152999948Y-68451027D01*
X153075590Y-68526669D01*
X153075590Y-68544936D01*
X153075591Y-68544946D01*
X153075590Y-75738662D01*
X152459454Y-76354800D01*
X151728899Y-76354800D01*
X151653257Y-76279158D01*
X151525340Y-76193687D01*
X151383207Y-76134813D01*
X151232320Y-76104800D01*
X151078476Y-76104800D01*
X150927589Y-76134813D01*
X150785456Y-76193687D01*
X150657539Y-76279158D01*
X150548756Y-76387941D01*
X150463285Y-76515858D01*
X150404411Y-76657991D01*
X150374398Y-76808878D01*
X149679000Y-76808878D01*
X149679000Y-76732967D01*
X149681097Y-76732098D01*
X149882717Y-76597380D01*
X150054180Y-76425917D01*
X150188898Y-76224297D01*
X150281693Y-76000269D01*
X150329000Y-75762443D01*
X150329000Y-75519957D01*
X150281693Y-75282131D01*
X150188898Y-75058103D01*
X150054180Y-74856483D01*
X149882717Y-74685020D01*
X149681097Y-74550302D01*
X149457069Y-74457507D01*
X149219243Y-74410200D01*
X148976757Y-74410200D01*
X148738931Y-74457507D01*
X148514903Y-74550302D01*
X148313283Y-74685020D01*
X148141820Y-74856483D01*
X148007102Y-75058103D01*
X147914307Y-75282131D01*
X147867000Y-75519957D01*
X146725757Y-75519957D01*
X146729476Y-75512910D01*
X146684825Y-75365701D01*
X146559641Y-75102880D01*
X146385588Y-74869531D01*
X146169355Y-74674622D01*
X146043745Y-74599800D01*
X146169355Y-74524978D01*
X146385588Y-74330069D01*
X146559641Y-74096720D01*
X146684825Y-73833899D01*
X146729476Y-73686690D01*
X146608155Y-73456800D01*
X145415000Y-73456800D01*
X145161000Y-73456800D01*
X145141000Y-73456800D01*
X145141000Y-73202800D01*
X145161000Y-73202800D01*
X145161000Y-70916800D01*
X145415000Y-70916800D01*
X145415000Y-73202800D01*
X146608155Y-73202800D01*
X146729476Y-72972910D01*
X146684825Y-72825701D01*
X146559641Y-72562880D01*
X146385588Y-72329531D01*
X146169355Y-72134622D01*
X146043745Y-72059800D01*
X146169355Y-71984978D01*
X146385588Y-71790069D01*
X146559641Y-71556720D01*
X146684825Y-71293899D01*
X146729476Y-71146690D01*
X146608155Y-70916800D01*
X145415000Y-70916800D01*
X145161000Y-70916800D01*
X145141000Y-70916800D01*
X145141000Y-70662800D01*
X145161000Y-70662800D01*
X145161000Y-68376800D01*
X145415000Y-68376800D01*
X145415000Y-70662800D01*
X146608155Y-70662800D01*
X146729476Y-70432910D01*
X146684825Y-70285701D01*
X146559641Y-70022880D01*
X146385588Y-69789531D01*
X146298688Y-69711200D01*
X147865157Y-69711200D01*
X147865157Y-71411200D01*
X147872513Y-71485889D01*
X147894299Y-71557708D01*
X147929678Y-71623896D01*
X147977289Y-71681911D01*
X148035304Y-71729522D01*
X148101492Y-71764901D01*
X148173311Y-71786687D01*
X148248000Y-71794043D01*
X149948000Y-71794043D01*
X150022689Y-71786687D01*
X150094508Y-71764901D01*
X150160696Y-71729522D01*
X150218711Y-71681911D01*
X150244200Y-71650852D01*
X150244200Y-72454142D01*
X150185430Y-72512913D01*
X150054180Y-72316483D01*
X149882717Y-72145020D01*
X149681097Y-72010302D01*
X149457069Y-71917507D01*
X149219243Y-71870200D01*
X148976757Y-71870200D01*
X148738931Y-71917507D01*
X148514903Y-72010302D01*
X148313283Y-72145020D01*
X148141820Y-72316483D01*
X148007102Y-72518103D01*
X147914307Y-72742131D01*
X147867000Y-72979957D01*
X147867000Y-73222443D01*
X147914307Y-73460269D01*
X148007102Y-73684297D01*
X148141820Y-73885917D01*
X148313283Y-74057380D01*
X148514903Y-74192098D01*
X148738931Y-74284893D01*
X148976757Y-74332200D01*
X149219243Y-74332200D01*
X149457069Y-74284893D01*
X149681097Y-74192098D01*
X149882717Y-74057380D01*
X150054180Y-73885917D01*
X150171772Y-73709928D01*
X150174608Y-73707600D01*
X150364860Y-73707600D01*
X150393400Y-73710411D01*
X150507295Y-73699193D01*
X150616814Y-73665971D01*
X150717747Y-73612021D01*
X150784048Y-73557609D01*
X151215846Y-73125812D01*
X151238017Y-73107617D01*
X151310621Y-73019148D01*
X151364571Y-72918215D01*
X151397793Y-72808696D01*
X151406200Y-72723340D01*
X151406200Y-72723338D01*
X151409011Y-72694801D01*
X151406200Y-72666264D01*
X151406200Y-67576057D01*
X152488258Y-66494000D01*
X160338143Y-66494000D01*
X161877400Y-68033259D01*
X161877400Y-68208901D01*
X161851758Y-68234543D01*
X161766287Y-68362460D01*
X161707413Y-68504593D01*
X161677400Y-68655480D01*
X161677400Y-68809324D01*
X161707413Y-68960211D01*
X161766287Y-69102344D01*
X161851758Y-69230261D01*
X161960541Y-69339044D01*
X162088458Y-69424515D01*
X162230591Y-69483389D01*
X162381478Y-69513402D01*
X162535322Y-69513402D01*
X162686209Y-69483389D01*
X162828342Y-69424515D01*
X162956259Y-69339044D01*
X163065042Y-69230261D01*
X163150513Y-69102344D01*
X163209387Y-68960211D01*
X163239400Y-68809324D01*
X163239400Y-68655480D01*
X163209387Y-68504593D01*
X163150513Y-68362460D01*
X163065042Y-68234543D01*
X163039400Y-68208901D01*
X163039400Y-67821140D01*
X163042211Y-67792600D01*
X163030993Y-67678704D01*
X162997771Y-67569185D01*
X162943821Y-67468252D01*
X162889410Y-67401951D01*
X162889408Y-67401949D01*
X162871217Y-67379783D01*
X162849052Y-67361593D01*
X161009817Y-65522360D01*
X160991617Y-65500183D01*
X160903148Y-65427579D01*
X160802215Y-65373629D01*
X160692696Y-65340407D01*
X160607340Y-65332000D01*
X160578800Y-65329189D01*
X160550260Y-65332000D01*
X152276136Y-65332000D01*
X152247599Y-65329189D01*
X152219062Y-65332000D01*
X152219060Y-65332000D01*
X152133704Y-65340407D01*
X152024185Y-65373629D01*
X151923252Y-65427579D01*
X151834783Y-65500183D01*
X151816587Y-65522355D01*
X150434555Y-66904388D01*
X150412384Y-66922583D01*
X150394191Y-66944752D01*
X150339779Y-67011053D01*
X150285829Y-67111986D01*
X150252607Y-67221505D01*
X150241389Y-67335400D01*
X150244201Y-67363950D01*
X150244201Y-69471549D01*
X150218711Y-69440489D01*
X150160696Y-69392878D01*
X150094508Y-69357499D01*
X150022689Y-69335713D01*
X149948000Y-69328357D01*
X148248000Y-69328357D01*
X148173311Y-69335713D01*
X148101492Y-69357499D01*
X148035304Y-69392878D01*
X147977289Y-69440489D01*
X147929678Y-69498504D01*
X147894299Y-69564692D01*
X147872513Y-69636511D01*
X147865157Y-69711200D01*
X146298688Y-69711200D01*
X146169355Y-69594622D01*
X146043745Y-69519800D01*
X146169355Y-69444978D01*
X146385588Y-69250069D01*
X146559641Y-69016720D01*
X146684825Y-68753899D01*
X146729476Y-68606690D01*
X146608155Y-68376800D01*
X145415000Y-68376800D01*
X145161000Y-68376800D01*
X145141000Y-68376800D01*
X145141000Y-68122800D01*
X145161000Y-68122800D01*
X145161000Y-65836800D01*
X145415000Y-65836800D01*
X145415000Y-68122800D01*
X146608155Y-68122800D01*
X146729476Y-67892910D01*
X146684825Y-67745701D01*
X146559641Y-67482880D01*
X146385588Y-67249531D01*
X146169355Y-67054622D01*
X146043745Y-66979800D01*
X146169355Y-66904978D01*
X146385588Y-66710069D01*
X146559641Y-66476720D01*
X146684825Y-66213899D01*
X146729476Y-66066690D01*
X146608155Y-65836800D01*
X145415000Y-65836800D01*
X145161000Y-65836800D01*
X145141000Y-65836800D01*
X145141000Y-65582800D01*
X145161000Y-65582800D01*
X145161000Y-64388986D01*
X145415000Y-64388986D01*
X145415000Y-65582800D01*
X146608155Y-65582800D01*
X146729476Y-65352910D01*
X146684825Y-65205701D01*
X146559641Y-64942880D01*
X146385588Y-64709531D01*
X146169355Y-64514622D01*
X145919252Y-64365643D01*
X145644891Y-64268319D01*
X145415000Y-64388986D01*
X145161000Y-64388986D01*
X144931109Y-64268319D01*
X144656748Y-64365643D01*
X144406645Y-64514622D01*
X144190412Y-64709531D01*
X144016359Y-64942880D01*
X143891175Y-65205701D01*
X143882909Y-65232954D01*
X143838898Y-65126703D01*
X143704180Y-64925083D01*
X143532717Y-64753620D01*
X143331097Y-64618902D01*
X143107069Y-64526107D01*
X142869243Y-64478800D01*
X142626757Y-64478800D01*
X142388931Y-64526107D01*
X142164903Y-64618902D01*
X141963283Y-64753620D01*
X141791820Y-64925083D01*
X141657102Y-65126703D01*
X141564307Y-65350731D01*
X141517000Y-65588557D01*
X141517000Y-65831043D01*
X141564307Y-66068869D01*
X141657102Y-66292897D01*
X141791820Y-66494517D01*
X141963283Y-66665980D01*
X142164903Y-66800698D01*
X142388931Y-66893493D01*
X142626757Y-66940800D01*
X142869243Y-66940800D01*
X143107069Y-66893493D01*
X143331097Y-66800698D01*
X143532717Y-66665980D01*
X143704180Y-66494517D01*
X143838898Y-66292897D01*
X143882909Y-66186646D01*
X143891175Y-66213899D01*
X144016359Y-66476720D01*
X144190412Y-66710069D01*
X144406645Y-66904978D01*
X144532255Y-66979800D01*
X144406645Y-67054622D01*
X144190412Y-67249531D01*
X144016359Y-67482880D01*
X143891175Y-67745701D01*
X143882909Y-67772954D01*
X143838898Y-67666703D01*
X143704180Y-67465083D01*
X143532717Y-67293620D01*
X143331097Y-67158902D01*
X143107069Y-67066107D01*
X142869243Y-67018800D01*
X142626757Y-67018800D01*
X142388931Y-67066107D01*
X142164903Y-67158902D01*
X141963283Y-67293620D01*
X141791820Y-67465083D01*
X141657102Y-67666703D01*
X141564307Y-67890731D01*
X141517000Y-68128557D01*
X141517000Y-68371043D01*
X141564307Y-68608869D01*
X141657102Y-68832897D01*
X141791820Y-69034517D01*
X141963283Y-69205980D01*
X142164903Y-69340698D01*
X142388931Y-69433493D01*
X142626757Y-69480800D01*
X142869243Y-69480800D01*
X143107069Y-69433493D01*
X143331097Y-69340698D01*
X143532717Y-69205980D01*
X143704180Y-69034517D01*
X143838898Y-68832897D01*
X143882909Y-68726646D01*
X143891175Y-68753899D01*
X144016359Y-69016720D01*
X144190412Y-69250069D01*
X144406645Y-69444978D01*
X144532255Y-69519800D01*
X144406645Y-69594622D01*
X144190412Y-69789531D01*
X144016359Y-70022880D01*
X143891175Y-70285701D01*
X143882909Y-70312954D01*
X143838898Y-70206703D01*
X143704180Y-70005083D01*
X143532717Y-69833620D01*
X143331097Y-69698902D01*
X143107069Y-69606107D01*
X142869243Y-69558800D01*
X142626757Y-69558800D01*
X142388931Y-69606107D01*
X142164903Y-69698902D01*
X141963283Y-69833620D01*
X141791820Y-70005083D01*
X141657102Y-70206703D01*
X141564307Y-70430731D01*
X141517000Y-70668557D01*
X141517000Y-70911043D01*
X141564307Y-71148869D01*
X141657102Y-71372897D01*
X141791820Y-71574517D01*
X141963283Y-71745980D01*
X142164903Y-71880698D01*
X142388931Y-71973493D01*
X142626757Y-72020800D01*
X142869243Y-72020800D01*
X143107069Y-71973493D01*
X143331097Y-71880698D01*
X143532717Y-71745980D01*
X143704180Y-71574517D01*
X143838898Y-71372897D01*
X143882909Y-71266646D01*
X143891175Y-71293899D01*
X144016359Y-71556720D01*
X144190412Y-71790069D01*
X144406645Y-71984978D01*
X144532255Y-72059800D01*
X144406645Y-72134622D01*
X144190412Y-72329531D01*
X144016359Y-72562880D01*
X143891175Y-72825701D01*
X143882909Y-72852954D01*
X143838898Y-72746703D01*
X143704180Y-72545083D01*
X143532717Y-72373620D01*
X143331097Y-72238902D01*
X143107069Y-72146107D01*
X142869243Y-72098800D01*
X142626757Y-72098800D01*
X142388931Y-72146107D01*
X142164903Y-72238902D01*
X141963283Y-72373620D01*
X141791820Y-72545083D01*
X141657102Y-72746703D01*
X141564307Y-72970731D01*
X141517000Y-73208557D01*
X141517000Y-73451043D01*
X141564307Y-73688869D01*
X141657102Y-73912897D01*
X141791820Y-74114517D01*
X141963283Y-74285980D01*
X142164903Y-74420698D01*
X142388931Y-74513493D01*
X142626757Y-74560800D01*
X142869243Y-74560800D01*
X143107069Y-74513493D01*
X143331097Y-74420698D01*
X143532717Y-74285980D01*
X143704180Y-74114517D01*
X143838898Y-73912897D01*
X143882909Y-73806646D01*
X143891175Y-73833899D01*
X144016359Y-74096720D01*
X144190412Y-74330069D01*
X144406645Y-74524978D01*
X144532255Y-74599800D01*
X144406645Y-74674622D01*
X144190412Y-74869531D01*
X144016359Y-75102880D01*
X143980843Y-75177445D01*
X143980843Y-75019800D01*
X143973487Y-74945111D01*
X143951701Y-74873292D01*
X143916322Y-74807104D01*
X143868711Y-74749089D01*
X143810696Y-74701478D01*
X143744508Y-74666099D01*
X143672689Y-74644313D01*
X143598000Y-74636957D01*
X141898000Y-74636957D01*
X141823311Y-74644313D01*
X141751492Y-74666099D01*
X141685304Y-74701478D01*
X141627289Y-74749089D01*
X141579678Y-74807104D01*
X141544299Y-74873292D01*
X141522513Y-74945111D01*
X141515157Y-75019800D01*
X141074000Y-75019800D01*
X141074000Y-63133829D01*
X150335000Y-63133829D01*
X150335000Y-63307371D01*
X150368856Y-63477578D01*
X150435268Y-63637910D01*
X150531682Y-63782205D01*
X150654395Y-63904918D01*
X150798690Y-64001332D01*
X150959022Y-64067744D01*
X151129229Y-64101600D01*
X151302771Y-64101600D01*
X151472978Y-64067744D01*
X151633310Y-64001332D01*
X151777605Y-63904918D01*
X151900318Y-63782205D01*
X151996732Y-63637910D01*
X152063144Y-63477578D01*
X152097000Y-63307371D01*
X152097000Y-63133829D01*
X154735000Y-63133829D01*
X154735000Y-63307371D01*
X154768856Y-63477578D01*
X154835268Y-63637910D01*
X154931682Y-63782205D01*
X155054395Y-63904918D01*
X155198690Y-64001332D01*
X155359022Y-64067744D01*
X155529229Y-64101600D01*
X155702771Y-64101600D01*
X155872978Y-64067744D01*
X156033310Y-64001332D01*
X156177605Y-63904918D01*
X156300318Y-63782205D01*
X156396732Y-63637910D01*
X156463144Y-63477578D01*
X156497000Y-63307371D01*
X156497000Y-63133829D01*
X156463144Y-62963622D01*
X156396732Y-62803290D01*
X156300318Y-62658995D01*
X156177605Y-62536282D01*
X156033310Y-62439868D01*
X155872978Y-62373456D01*
X155702771Y-62339600D01*
X155529229Y-62339600D01*
X155359022Y-62373456D01*
X155198690Y-62439868D01*
X155054395Y-62536282D01*
X154931682Y-62658995D01*
X154835268Y-62803290D01*
X154768856Y-62963622D01*
X154735000Y-63133829D01*
X152097000Y-63133829D01*
X152063144Y-62963622D01*
X151996732Y-62803290D01*
X151900318Y-62658995D01*
X151777605Y-62536282D01*
X151633310Y-62439868D01*
X151472978Y-62373456D01*
X151302771Y-62339600D01*
X151129229Y-62339600D01*
X150959022Y-62373456D01*
X150798690Y-62439868D01*
X150654395Y-62536282D01*
X150531682Y-62658995D01*
X150435268Y-62803290D01*
X150368856Y-62963622D01*
X150335000Y-63133829D01*
X141074000Y-63133829D01*
X141074000Y-58826000D01*
X172094000Y-58826000D01*
X172094001Y-86960600D01*
D16*
X151181380Y-75760109D03*
X152374600Y-68859400D03*
X158470600Y-82092800D03*
X165252400Y-64516000D03*
X153606590Y-67953168D03*
X151155398Y-76885800D03*
X162458400Y-68732402D03*
X145288000Y-65709800D03*
X142748000Y-65709800D03*
X145288000Y-68249800D03*
X142748000Y-68249800D03*
X145288000Y-70789800D03*
X142748000Y-70789800D03*
X145288000Y-73329800D03*
X142748000Y-73329800D03*
X145288000Y-75869800D03*
X142748000Y-75869800D03*
X149098000Y-75641200D03*
X149098000Y-73101200D03*
X149098000Y-70561200D03*
X170103800Y-64439800D03*
X170103800Y-66979800D03*
X170103800Y-69519800D03*
X170103800Y-72059800D03*
X170103800Y-74599800D03*
X170103800Y-77139800D03*
X170103800Y-79679800D03*
X170103800Y-82219800D03*
X151216000Y-63220600D03*
X155616000Y-63220600D03*
M02*
