G04 #@! TF.GenerationSoftware,KiCad,Pcbnew,5.1.5-52549c5~84~ubuntu18.04.1*
G04 #@! TF.CreationDate,2019-12-05T10:19:33+01:00*
G04 #@! TF.ProjectId,ch340-breakout,63683334-302d-4627-9265-616b6f75742e,rev?*
G04 #@! TF.SameCoordinates,Original*
G04 #@! TF.FileFunction,Legend,Bot*
G04 #@! TF.FilePolarity,Positive*
%FSLAX46Y46*%
G04 Gerber Fmt 4.6, Leading zero omitted, Abs format (unit mm)*
G04 Created by KiCad (PCBNEW 5.1.5-52549c5~84~ubuntu18.04.1) date 2019-12-05 10:19:33*
%MOMM*%
%LPD*%
G04 APERTURE LIST*
%ADD10C,0.120000*%
%ADD11C,0.150000*%
G04 APERTURE END LIST*
D10*
X141418000Y-77199800D02*
X142748000Y-77199800D01*
X141418000Y-75869800D02*
X141418000Y-77199800D01*
X144018000Y-77199800D02*
X146618000Y-77199800D01*
X144018000Y-74599800D02*
X144018000Y-77199800D01*
X141418000Y-74599800D02*
X144018000Y-74599800D01*
X146618000Y-77199800D02*
X146618000Y-64379800D01*
X141418000Y-74599800D02*
X141418000Y-64379800D01*
X141418000Y-64379800D02*
X146618000Y-64379800D01*
X168773800Y-83549800D02*
X170103800Y-83549800D01*
X168773800Y-82219800D02*
X168773800Y-83549800D01*
X168773800Y-80949800D02*
X171433800Y-80949800D01*
X171433800Y-80949800D02*
X171433800Y-63109800D01*
X168773800Y-80949800D02*
X168773800Y-63109800D01*
X168773800Y-63109800D02*
X171433800Y-63109800D01*
D11*
X144351333Y-77652180D02*
X144351333Y-78366466D01*
X144398952Y-78509323D01*
X144494190Y-78604561D01*
X144637047Y-78652180D01*
X144732285Y-78652180D01*
X143970380Y-77652180D02*
X143351333Y-77652180D01*
X143684666Y-78033133D01*
X143541809Y-78033133D01*
X143446571Y-78080752D01*
X143398952Y-78128371D01*
X143351333Y-78223609D01*
X143351333Y-78461704D01*
X143398952Y-78556942D01*
X143446571Y-78604561D01*
X143541809Y-78652180D01*
X143827523Y-78652180D01*
X143922761Y-78604561D01*
X143970380Y-78556942D01*
X170437133Y-84002180D02*
X170437133Y-84716466D01*
X170484752Y-84859323D01*
X170579990Y-84954561D01*
X170722847Y-85002180D01*
X170818085Y-85002180D01*
X170008561Y-84097419D02*
X169960942Y-84049800D01*
X169865704Y-84002180D01*
X169627609Y-84002180D01*
X169532371Y-84049800D01*
X169484752Y-84097419D01*
X169437133Y-84192657D01*
X169437133Y-84287895D01*
X169484752Y-84430752D01*
X170056180Y-85002180D01*
X169437133Y-85002180D01*
M02*
