M48
; DRILL file {KiCad 5.1.5-52549c5~84~ubuntu18.04.1} date Thu Dec  5 10:19:33 2019
; FORMAT={-:-/ absolute / metric / decimal}
; #@! TF.CreationDate,2019-12-05T10:19:33+01:00
; #@! TF.GenerationSoftware,Kicad,Pcbnew,5.1.5-52549c5~84~ubuntu18.04.1
FMAT,2
METRIC
T1C0.400
T2C1.000
T3C1.000
%
G90
G05
T1
X151.155Y-76.886
X151.181Y-75.76
X152.375Y-68.859
X153.607Y-67.953
X158.471Y-82.093
X162.458Y-68.732
X165.252Y-64.516
T2
X170.104Y-64.44
X170.104Y-66.98
X170.104Y-69.52
X170.104Y-72.06
X170.104Y-74.6
X170.104Y-77.14
X170.104Y-79.68
X170.104Y-82.22
X142.748Y-65.71
X142.748Y-68.25
X142.748Y-70.79
X142.748Y-73.33
X142.748Y-75.87
X145.288Y-65.71
X145.288Y-68.25
X145.288Y-70.79
X145.288Y-73.33
X145.288Y-75.87
X149.098Y-70.561
X149.098Y-73.101
X149.098Y-75.641
T3
X151.216Y-63.221
X155.616Y-63.221
T0
M30
